<svg width="151" height="31" viewBox="0 0 151 31" fill="none" xmlns="http://www.w3.org/2000/svg">
<rect y="0.541992" width="151" height="30" rx="5" fill="#161C2D"/>
<path d="M20.986 20.542L25.424 10.742H26.81L31.262 20.542H29.792L25.83 11.526H26.39L22.428 20.542H20.986ZM22.876 18.092L23.254 16.972H28.77L29.176 18.092H22.876ZM35.2791 20.626C34.5605 20.626 33.9165 20.4673 33.3471 20.15C32.7871 19.8327 32.3438 19.3893 32.0171 18.82C31.6905 18.2507 31.5271 17.588 31.5271 16.832C31.5271 16.076 31.6905 15.418 32.0171 14.858C32.3438 14.2887 32.7871 13.8453 33.3471 13.528C33.9165 13.2107 34.5605 13.052 35.2791 13.052C35.9045 13.052 36.4691 13.192 36.9731 13.472C37.4771 13.752 37.8785 14.172 38.1771 14.732C38.4851 15.292 38.6391 15.992 38.6391 16.832C38.6391 17.672 38.4898 18.372 38.1911 18.932C37.9018 19.492 37.5051 19.9167 37.0011 20.206C36.4971 20.486 35.9231 20.626 35.2791 20.626ZM35.3911 19.45C35.8578 19.45 36.2778 19.3427 36.6511 19.128C37.0338 18.9133 37.3325 18.61 37.5471 18.218C37.7711 17.8167 37.8831 17.3547 37.8831 16.832C37.8831 16.3 37.7711 15.8427 37.5471 15.46C37.3325 15.068 37.0338 14.7647 36.6511 14.55C36.2778 14.3353 35.8578 14.228 35.3911 14.228C34.9151 14.228 34.4905 14.3353 34.1171 14.55C33.7438 14.7647 33.4451 15.068 33.2211 15.46C32.9971 15.8427 32.8851 16.3 32.8851 16.832C32.8851 17.3547 32.9971 17.8167 33.2211 18.218C33.4451 18.61 33.7438 18.9133 34.1171 19.128C34.4905 19.3427 34.9151 19.45 35.3911 19.45ZM37.9251 20.542V18.54L38.0091 16.818L37.8691 15.096V10.154H39.2131V20.542H37.9251ZM44.5757 20.626C43.857 20.626 43.213 20.4673 42.6437 20.15C42.0837 19.8327 41.6404 19.3893 41.3137 18.82C40.987 18.2507 40.8237 17.588 40.8237 16.832C40.8237 16.076 40.987 15.418 41.3137 14.858C41.6404 14.2887 42.0837 13.8453 42.6437 13.528C43.213 13.2107 43.857 13.052 44.5757 13.052C45.201 13.052 45.7657 13.192 46.2697 13.472C46.7737 13.752 47.175 14.172 47.4737 14.732C47.7817 15.292 47.9357 15.992 47.9357 16.832C47.9357 17.672 47.7864 18.372 47.4877 18.932C47.1984 19.492 46.8017 19.9167 46.2977 20.206C45.7937 20.486 45.2197 20.626 44.5757 20.626ZM44.6877 19.45C45.1544 19.45 45.5744 19.3427 45.9477 19.128C46.3304 18.9133 46.629 18.61 46.8437 18.218C47.0677 17.8167 47.1797 17.3547 47.1797 16.832C47.1797 16.3 47.0677 15.8427 46.8437 15.46C46.629 15.068 46.3304 14.7647 45.9477 14.55C45.5744 14.3353 45.1544 14.228 44.6877 14.228C44.2117 14.228 43.787 14.3353 43.4137 14.55C43.0404 14.7647 42.7417 15.068 42.5177 15.46C42.2937 15.8427 42.1817 16.3 42.1817 16.832C42.1817 17.3547 42.2937 17.8167 42.5177 18.218C42.7417 18.61 43.0404 18.9133 43.4137 19.128C43.787 19.3427 44.2117 19.45 44.6877 19.45ZM47.2217 20.542V18.54L47.3057 16.818L47.1657 15.096V10.154H48.5097V20.542H47.2217ZM50.8063 20.542V13.122H52.1503V20.542H50.8063ZM51.4783 11.694C51.217 11.694 50.9976 11.61 50.8203 11.442C50.6523 11.274 50.5683 11.0687 50.5683 10.826C50.5683 10.574 50.6523 10.364 50.8203 10.196C50.9976 10.028 51.217 9.94399 51.4783 9.94399C51.7396 9.94399 51.9543 10.028 52.1223 10.196C52.2996 10.3547 52.3883 10.5553 52.3883 10.798C52.3883 11.05 52.3043 11.2647 52.1363 11.442C51.9683 11.61 51.749 11.694 51.4783 11.694ZM57.018 20.626C56.2714 20.626 55.6927 20.4253 55.282 20.024C54.8714 19.6227 54.666 19.0487 54.666 18.302V11.498H56.01V18.246C56.01 18.6473 56.108 18.9553 56.304 19.17C56.5094 19.3847 56.7987 19.492 57.172 19.492C57.592 19.492 57.942 19.3753 58.222 19.142L58.642 20.108C58.4367 20.2853 58.1894 20.416 57.9 20.5C57.62 20.584 57.326 20.626 57.018 20.626ZM53.406 14.228V13.122H58.138V14.228H53.406ZM60.0205 20.542V13.122H61.3645V20.542H60.0205ZM60.6925 11.694C60.4312 11.694 60.2119 11.61 60.0345 11.442C59.8665 11.274 59.7825 11.0687 59.7825 10.826C59.7825 10.574 59.8665 10.364 60.0345 10.196C60.2119 10.028 60.4312 9.94399 60.6925 9.94399C60.9539 9.94399 61.1685 10.028 61.3365 10.196C61.5139 10.3547 61.6025 10.5553 61.6025 10.798C61.6025 11.05 61.5185 11.2647 61.3505 11.442C61.1825 11.61 60.9632 11.694 60.6925 11.694ZM66.8623 20.626C66.1156 20.626 65.4529 20.4627 64.8743 20.136C64.2956 19.8093 63.8383 19.3613 63.5023 18.792C63.1663 18.2133 62.9983 17.56 62.9983 16.832C62.9983 16.0947 63.1663 15.4413 63.5023 14.872C63.8383 14.3027 64.2956 13.8593 64.8743 13.542C65.4529 13.2153 66.1156 13.052 66.8623 13.052C67.5996 13.052 68.2576 13.2153 68.8363 13.542C69.4243 13.8593 69.8816 14.3027 70.2083 14.872C70.5443 15.432 70.7123 16.0853 70.7123 16.832C70.7123 17.5693 70.5443 18.2227 70.2083 18.792C69.8816 19.3613 69.4243 19.8093 68.8363 20.136C68.2576 20.4627 67.5996 20.626 66.8623 20.626ZM66.8623 19.45C67.3383 19.45 67.7629 19.3427 68.1363 19.128C68.5189 18.9133 68.8176 18.61 69.0323 18.218C69.2469 17.8167 69.3543 17.3547 69.3543 16.832C69.3543 16.3 69.2469 15.8427 69.0323 15.46C68.8176 15.068 68.5189 14.7647 68.1363 14.55C67.7629 14.3353 67.3383 14.228 66.8623 14.228C66.3863 14.228 65.9616 14.3353 65.5883 14.55C65.2149 14.7647 64.9163 15.068 64.6923 15.46C64.4683 15.8427 64.3563 16.3 64.3563 16.832C64.3563 17.3547 64.4683 17.8167 64.6923 18.218C64.9163 18.61 65.2149 18.9133 65.5883 19.128C65.9616 19.3427 66.3863 19.45 66.8623 19.45ZM76.2866 13.052C76.8933 13.052 77.4253 13.1687 77.8826 13.402C78.3493 13.6353 78.7133 13.99 78.9746 14.466C79.2359 14.942 79.3666 15.544 79.3666 16.272V20.542H78.0226V16.426C78.0226 15.7073 77.8453 15.166 77.4906 14.802C77.1453 14.438 76.6553 14.256 76.0206 14.256C75.5446 14.256 75.1293 14.3493 74.7746 14.536C74.4199 14.7227 74.1446 14.998 73.9486 15.362C73.7619 15.726 73.6686 16.1787 73.6686 16.72V20.542H72.3246V13.122H73.6126V15.124L73.4026 14.592C73.6453 14.1067 74.0186 13.7287 74.5226 13.458C75.0266 13.1873 75.6146 13.052 76.2866 13.052ZM86.2135 20.542V18.974L86.1435 18.68V16.006C86.1435 15.4367 85.9755 14.998 85.6395 14.69C85.3128 14.3727 84.8182 14.214 84.1555 14.214C83.7168 14.214 83.2875 14.2887 82.8675 14.438C82.4475 14.578 82.0928 14.7693 81.8035 15.012L81.2435 14.004C81.6262 13.696 82.0835 13.4627 82.6155 13.304C83.1568 13.136 83.7215 13.052 84.3095 13.052C85.3268 13.052 86.1108 13.2993 86.6615 13.794C87.2122 14.2887 87.4875 15.0447 87.4875 16.062V20.542H86.2135ZM83.7775 20.626C83.2268 20.626 82.7415 20.5327 82.3215 20.346C81.9108 20.1593 81.5935 19.9027 81.3695 19.576C81.1455 19.24 81.0335 18.862 81.0335 18.442C81.0335 18.0407 81.1268 17.6767 81.3135 17.35C81.5095 17.0233 81.8222 16.762 82.2515 16.566C82.6902 16.37 83.2782 16.272 84.0155 16.272H86.3675V17.238H84.0715C83.3995 17.238 82.9468 17.35 82.7135 17.574C82.4802 17.798 82.3635 18.0687 82.3635 18.386C82.3635 18.75 82.5082 19.044 82.7975 19.268C83.0868 19.4827 83.4882 19.59 84.0015 19.59C84.5055 19.59 84.9442 19.478 85.3175 19.254C85.7002 19.03 85.9755 18.7033 86.1435 18.274L86.4095 19.198C86.2322 19.6367 85.9195 19.9867 85.4715 20.248C85.0235 20.5 84.4588 20.626 83.7775 20.626ZM89.7283 20.542V10.154H91.0723V20.542H89.7283ZM96.9054 20.542V13.122H98.2494V20.542H96.9054ZM97.5774 11.694C97.3161 11.694 97.0967 11.61 96.9194 11.442C96.7514 11.274 96.6674 11.0687 96.6674 10.826C96.6674 10.574 96.7514 10.364 96.9194 10.196C97.0967 10.028 97.3161 9.94399 97.5774 9.94399C97.8387 9.94399 98.0534 10.028 98.2214 10.196C98.3987 10.3547 98.4874 10.5553 98.4874 10.798C98.4874 11.05 98.4034 11.2647 98.2354 11.442C98.0674 11.61 97.8481 11.694 97.5774 11.694ZM104.531 13.052C105.138 13.052 105.67 13.1687 106.127 13.402C106.594 13.6353 106.958 13.99 107.219 14.466C107.48 14.942 107.611 15.544 107.611 16.272V20.542H106.267V16.426C106.267 15.7073 106.09 15.166 105.735 14.802C105.39 14.438 104.9 14.256 104.265 14.256C103.789 14.256 103.374 14.3493 103.019 14.536C102.664 14.7227 102.389 14.998 102.193 15.362C102.006 15.726 101.913 16.1787 101.913 16.72V20.542H100.569V13.122H101.857V15.124L101.647 14.592C101.89 14.1067 102.263 13.7287 102.767 13.458C103.271 13.1873 103.859 13.052 104.531 13.052ZM110.048 20.542V12.464C110.048 11.736 110.258 11.1573 110.678 10.728C111.107 10.2893 111.714 10.07 112.498 10.07C112.787 10.07 113.063 10.1073 113.324 10.182C113.595 10.2473 113.823 10.3547 114.01 10.504L113.604 11.526C113.464 11.414 113.305 11.33 113.128 11.274C112.951 11.2087 112.764 11.176 112.568 11.176C112.176 11.176 111.877 11.288 111.672 11.512C111.467 11.7267 111.364 12.0487 111.364 12.478V13.472L111.392 14.088V20.542H110.048ZM108.788 14.228V13.122H113.52V14.228H108.788ZM117.61 20.626C116.863 20.626 116.2 20.4627 115.622 20.136C115.043 19.8093 114.586 19.3613 114.25 18.792C113.914 18.2133 113.746 17.56 113.746 16.832C113.746 16.0947 113.914 15.4413 114.25 14.872C114.586 14.3027 115.043 13.8593 115.622 13.542C116.2 13.2153 116.863 13.052 117.61 13.052C118.347 13.052 119.005 13.2153 119.584 13.542C120.172 13.8593 120.629 14.3027 120.956 14.872C121.292 15.432 121.46 16.0853 121.46 16.832C121.46 17.5693 121.292 18.2227 120.956 18.792C120.629 19.3613 120.172 19.8093 119.584 20.136C119.005 20.4627 118.347 20.626 117.61 20.626ZM117.61 19.45C118.086 19.45 118.51 19.3427 118.884 19.128C119.266 18.9133 119.565 18.61 119.78 18.218C119.994 17.8167 120.102 17.3547 120.102 16.832C120.102 16.3 119.994 15.8427 119.78 15.46C119.565 15.068 119.266 14.7647 118.884 14.55C118.51 14.3353 118.086 14.228 117.61 14.228C117.134 14.228 116.709 14.3353 116.336 14.55C115.962 14.7647 115.664 15.068 115.44 15.46C115.216 15.8427 115.104 16.3 115.104 16.832C115.104 17.3547 115.216 17.8167 115.44 18.218C115.664 18.61 115.962 18.9133 116.336 19.128C116.709 19.3427 117.134 19.45 117.61 19.45Z" fill="white"/>
</svg>
