<svg width="134" height="31" viewBox="0 0 134 31" fill="none" xmlns="http://www.w3.org/2000/svg">
<rect y="0.541992" width="134" height="30" rx="5" fill="white"/>
<path d="M39.326 20.654C38.5793 20.654 37.8653 20.542 37.184 20.318C36.5027 20.0847 35.966 19.786 35.574 19.422L36.092 18.33C36.4653 18.6567 36.9413 18.9273 37.52 19.142C38.0987 19.3567 38.7007 19.464 39.326 19.464C39.8953 19.464 40.3573 19.3987 40.712 19.268C41.0667 19.1373 41.328 18.96 41.496 18.736C41.664 18.5027 41.748 18.2413 41.748 17.952C41.748 17.616 41.636 17.3453 41.412 17.14C41.1973 16.9347 40.9127 16.7713 40.558 16.65C40.2127 16.5193 39.83 16.4073 39.41 16.314C38.99 16.2207 38.5653 16.1133 38.136 15.992C37.716 15.8613 37.3287 15.698 36.974 15.502C36.6287 15.306 36.3487 15.0447 36.134 14.718C35.9193 14.382 35.812 13.9527 35.812 13.43C35.812 12.926 35.9427 12.464 36.204 12.044C36.4747 11.6147 36.8853 11.274 37.436 11.022C37.996 10.7607 38.7053 10.63 39.564 10.63C40.1333 10.63 40.698 10.7047 41.258 10.854C41.818 11.0033 42.3033 11.218 42.714 11.498L42.252 12.618C41.832 12.338 41.3887 12.1373 40.922 12.016C40.4553 11.8853 40.0027 11.82 39.564 11.82C39.0133 11.82 38.5607 11.89 38.206 12.03C37.8513 12.17 37.59 12.3567 37.422 12.59C37.2633 12.8233 37.184 13.0847 37.184 13.374C37.184 13.7193 37.2913 13.9947 37.506 14.2C37.73 14.4053 38.0147 14.5687 38.36 14.69C38.7147 14.8113 39.102 14.9233 39.522 15.026C39.942 15.1193 40.362 15.2267 40.782 15.348C41.2113 15.4693 41.5987 15.628 41.944 15.824C42.2987 16.02 42.5833 16.2813 42.798 16.608C43.0127 16.9347 43.12 17.3547 43.12 17.868C43.12 18.3627 42.9847 18.8247 42.714 19.254C42.4433 19.674 42.0233 20.0147 41.454 20.276C40.894 20.528 40.1847 20.654 39.326 20.654ZM48.0269 20.626C47.2336 20.626 46.5336 20.4627 45.9269 20.136C45.3296 19.8093 44.8629 19.3613 44.5269 18.792C44.2002 18.2227 44.0369 17.5693 44.0369 16.832C44.0369 16.0947 44.1956 15.4413 44.5129 14.872C44.8396 14.3027 45.2829 13.8593 45.8429 13.542C46.4122 13.2153 47.0516 13.052 47.7609 13.052C48.4796 13.052 49.1142 13.2107 49.6649 13.528C50.2156 13.8453 50.6449 14.2933 50.9529 14.872C51.2702 15.4413 51.4289 16.1087 51.4289 16.874C51.4289 16.93 51.4242 16.9953 51.4149 17.07C51.4149 17.1447 51.4102 17.2147 51.4009 17.28H45.0869V16.314H50.7009L50.1549 16.65C50.1642 16.174 50.0662 15.7493 49.8609 15.376C49.6556 15.0027 49.3709 14.7133 49.0069 14.508C48.6522 14.2933 48.2369 14.186 47.7609 14.186C47.2942 14.186 46.8789 14.2933 46.5149 14.508C46.1509 14.7133 45.8662 15.0073 45.6609 15.39C45.4556 15.7633 45.3529 16.1927 45.3529 16.678V16.902C45.3529 17.3967 45.4649 17.84 45.6889 18.232C45.9222 18.6147 46.2442 18.9133 46.6549 19.128C47.0656 19.3427 47.5369 19.45 48.0689 19.45C48.5076 19.45 48.9042 19.3753 49.2589 19.226C49.6229 19.0767 49.9402 18.8527 50.2109 18.554L50.9529 19.422C50.6169 19.814 50.1969 20.1127 49.6929 20.318C49.1982 20.5233 48.6429 20.626 48.0269 20.626ZM55.5968 20.626C54.8501 20.626 54.2714 20.4253 53.8608 20.024C53.4501 19.6227 53.2448 19.0487 53.2448 18.302V11.498H54.5888V18.246C54.5888 18.6473 54.6868 18.9553 54.8828 19.17C55.0881 19.3847 55.3774 19.492 55.7508 19.492C56.1708 19.492 56.5208 19.3753 56.8008 19.142L57.2208 20.108C57.0154 20.2853 56.7681 20.416 56.4788 20.5C56.1988 20.584 55.9048 20.626 55.5968 20.626ZM51.9848 14.228V13.122H56.7168V14.228H51.9848ZM64.6606 20.626C63.914 20.626 63.3353 20.4253 62.9246 20.024C62.514 19.6227 62.3086 19.0487 62.3086 18.302V11.498H63.6526V18.246C63.6526 18.6473 63.7506 18.9553 63.9466 19.17C64.152 19.3847 64.4413 19.492 64.8146 19.492C65.2346 19.492 65.5846 19.3753 65.8646 19.142L66.2846 20.108C66.0793 20.2853 65.832 20.416 65.5426 20.5C65.2626 20.584 64.9686 20.626 64.6606 20.626ZM61.0486 14.228V13.122H65.7806V14.228H61.0486ZM67.6631 20.542V13.122H69.0071V20.542H67.6631ZM68.3351 11.694C68.0738 11.694 67.8544 11.61 67.6771 11.442C67.5091 11.274 67.4251 11.0687 67.4251 10.826C67.4251 10.574 67.5091 10.364 67.6771 10.196C67.8544 10.028 68.0738 9.94399 68.3351 9.94399C68.5964 9.94399 68.8111 10.028 68.9791 10.196C69.1564 10.3547 69.2451 10.5553 69.2451 10.798C69.2451 11.05 69.1611 11.2647 68.9931 11.442C68.8251 11.61 68.6058 11.694 68.3351 11.694ZM80.6088 13.052C81.2062 13.052 81.7335 13.1687 82.1908 13.402C82.6482 13.6353 83.0028 13.99 83.2548 14.466C83.5162 14.942 83.6468 15.544 83.6468 16.272V20.542H82.3028V16.426C82.3028 15.7073 82.1348 15.166 81.7988 14.802C81.4628 14.438 80.9915 14.256 80.3848 14.256C79.9368 14.256 79.5448 14.3493 79.2088 14.536C78.8728 14.7227 78.6115 14.998 78.4248 15.362C78.2475 15.726 78.1588 16.1787 78.1588 16.72V20.542H76.8148V16.426C76.8148 15.7073 76.6468 15.166 76.3108 14.802C75.9842 14.438 75.5128 14.256 74.8968 14.256C74.4582 14.256 74.0708 14.3493 73.7348 14.536C73.3988 14.7227 73.1375 14.998 72.9508 15.362C72.7642 15.726 72.6708 16.1787 72.6708 16.72V20.542H71.3268V13.122H72.6148V15.096L72.4048 14.592C72.6382 14.1067 72.9975 13.7287 73.4828 13.458C73.9682 13.1873 74.5328 13.052 75.1768 13.052C75.8862 13.052 76.4975 13.2293 77.0108 13.584C77.5242 13.9293 77.8602 14.4567 78.0188 15.166L77.4728 14.942C77.6968 14.3727 78.0888 13.9153 78.6488 13.57C79.2088 13.2247 79.8622 13.052 80.6088 13.052ZM89.1774 20.626C88.3841 20.626 87.6841 20.4627 87.0774 20.136C86.4801 19.8093 86.0134 19.3613 85.6774 18.792C85.3508 18.2227 85.1874 17.5693 85.1874 16.832C85.1874 16.0947 85.3461 15.4413 85.6634 14.872C85.9901 14.3027 86.4334 13.8593 86.9934 13.542C87.5628 13.2153 88.2021 13.052 88.9114 13.052C89.6301 13.052 90.2648 13.2107 90.8154 13.528C91.3661 13.8453 91.7954 14.2933 92.1034 14.872C92.4208 15.4413 92.5794 16.1087 92.5794 16.874C92.5794 16.93 92.5748 16.9953 92.5654 17.07C92.5654 17.1447 92.5608 17.2147 92.5514 17.28H86.2374V16.314H91.8514L91.3054 16.65C91.3148 16.174 91.2168 15.7493 91.0114 15.376C90.8061 15.0027 90.5214 14.7133 90.1574 14.508C89.8028 14.2933 89.3874 14.186 88.9114 14.186C88.4448 14.186 88.0294 14.2933 87.6654 14.508C87.3014 14.7133 87.0168 15.0073 86.8114 15.39C86.6061 15.7633 86.5034 16.1927 86.5034 16.678V16.902C86.5034 17.3967 86.6154 17.84 86.8394 18.232C87.0728 18.6147 87.3948 18.9133 87.8054 19.128C88.2161 19.3427 88.6874 19.45 89.2194 19.45C89.6581 19.45 90.0548 19.3753 90.4094 19.226C90.7734 19.0767 91.0908 18.8527 91.3614 18.554L92.1034 19.422C91.7674 19.814 91.3474 20.1127 90.8434 20.318C90.3488 20.5233 89.7934 20.626 89.1774 20.626ZM94.1993 20.542V13.122H95.4873V15.138L95.3613 14.634C95.5666 14.1207 95.912 13.7287 96.3973 13.458C96.8826 13.1873 97.48 13.052 98.1893 13.052V14.354C98.1333 14.3447 98.0773 14.34 98.0213 14.34C97.9746 14.34 97.928 14.34 97.8813 14.34C97.1626 14.34 96.5933 14.5547 96.1733 14.984C95.7533 15.4133 95.5433 16.034 95.5433 16.846V20.542H94.1993Z" fill="#161C2D"/>
</svg>
