<svg width="90" height="90" viewBox="0 0 110 104" fill="none" xmlns="http://www.w3.org/2000/svg">
<path d="M0 20C0 8.95431 8.95431 0 20 0H90C101.046 0 110 8.95431 110 20V72C110 83.0457 101.046 92 90 92H20C8.95431 92 0 83.0457 0 72V20Z" fill="#161C2D"/>
<g clip-path="url(#clip0_127_984)">
<path d="M69.6172 58.3333C69.6172 58.7753 69.4416 59.1993 69.129 59.5118C68.8165 59.8244 68.3925 60 67.9505 60H41.2839C40.8418 60 40.4179 59.8244 40.1053 59.5118C39.7928 59.1993 39.6172 58.7753 39.6172 58.3333V40.8166C39.617 40.5627 39.6749 40.312 39.7864 40.0838C39.8979 39.8556 40.0601 39.6559 40.2605 39.5L53.5939 29.13C53.8864 28.9024 54.2465 28.7788 54.6172 28.7788C54.9879 28.7788 55.3479 28.9024 55.6405 29.13L68.9739 39.5C69.1743 39.6559 69.3365 39.8556 69.448 40.0838C69.5595 40.312 69.6174 40.5627 69.6172 40.8166V58.3333ZM66.2839 56.6666V41.63L54.6172 32.5566L42.9505 41.63V56.6666H66.2839Z" fill="white"/>
</g>
<path d="M43.512 69.6H44.388V78H43.512V69.6ZM38.256 78H37.368V69.6H38.256V78ZM43.596 74.124H38.16V73.344H43.596V74.124ZM49.2713 78.06C48.6633 78.06 48.1153 77.924 47.6273 77.652C47.1473 77.372 46.7673 76.992 46.4873 76.512C46.2073 76.024 46.0673 75.468 46.0673 74.844C46.0673 74.212 46.2073 73.656 46.4873 73.176C46.7673 72.696 47.1473 72.32 47.6273 72.048C48.1073 71.776 48.6553 71.64 49.2713 71.64C49.8953 71.64 50.4473 71.776 50.9273 72.048C51.4153 72.32 51.7953 72.696 52.0673 73.176C52.3473 73.656 52.4873 74.212 52.4873 74.844C52.4873 75.468 52.3473 76.024 52.0673 76.512C51.7953 76.992 51.4153 77.372 50.9273 77.652C50.4393 77.924 49.8873 78.06 49.2713 78.06ZM49.2713 77.304C49.7273 77.304 50.1313 77.204 50.4833 77.004C50.8353 76.796 51.1113 76.508 51.3113 76.14C51.5193 75.764 51.6233 75.332 51.6233 74.844C51.6233 74.348 51.5193 73.916 51.3113 73.548C51.1113 73.18 50.8353 72.896 50.4833 72.696C50.1313 72.488 49.7313 72.384 49.2833 72.384C48.8353 72.384 48.4353 72.488 48.0833 72.696C47.7313 72.896 47.4513 73.18 47.2433 73.548C47.0353 73.916 46.9313 74.348 46.9313 74.844C46.9313 75.332 47.0353 75.764 47.2433 76.14C47.4513 76.508 47.7313 76.796 48.0833 77.004C48.4353 77.204 48.8313 77.304 49.2713 77.304ZM61.8524 71.64C62.3644 71.64 62.8084 71.74 63.1844 71.94C63.5684 72.132 63.8644 72.428 64.0724 72.828C64.2884 73.228 64.3964 73.732 64.3964 74.34V78H63.5444V74.424C63.5444 73.76 63.3844 73.26 63.0644 72.924C62.7524 72.58 62.3084 72.408 61.7324 72.408C61.3004 72.408 60.9244 72.5 60.6044 72.684C60.2924 72.86 60.0484 73.12 59.8724 73.464C59.7044 73.8 59.6204 74.208 59.6204 74.688V78H58.7684V74.424C58.7684 73.76 58.6084 73.26 58.2884 72.924C57.9684 72.58 57.5204 72.408 56.9444 72.408C56.5204 72.408 56.1484 72.5 55.8284 72.684C55.5084 72.86 55.2604 73.12 55.0844 73.464C54.9164 73.8 54.8324 74.208 54.8324 74.688V78H53.9804V71.7H54.7964V73.404L54.6644 73.104C54.8564 72.648 55.1644 72.292 55.5884 72.036C56.0204 71.772 56.5284 71.64 57.1124 71.64C57.7284 71.64 58.2524 71.796 58.6844 72.108C59.1164 72.412 59.3964 72.872 59.5244 73.488L59.1884 73.356C59.3724 72.844 59.6964 72.432 60.1604 72.12C60.6324 71.8 61.1964 71.64 61.8524 71.64ZM69.1365 78.06C68.4805 78.06 67.9045 77.924 67.4085 77.652C66.9125 77.372 66.5245 76.992 66.2445 76.512C65.9645 76.024 65.8245 75.468 65.8245 74.844C65.8245 74.22 65.9565 73.668 66.2205 73.188C66.4925 72.708 66.8605 72.332 67.3245 72.06C67.7965 71.78 68.3245 71.64 68.9085 71.64C69.5005 71.64 70.0245 71.776 70.4805 72.048C70.9445 72.312 71.3085 72.688 71.5725 73.176C71.8365 73.656 71.9685 74.212 71.9685 74.844C71.9685 74.884 71.9645 74.928 71.9565 74.976C71.9565 75.016 71.9565 75.06 71.9565 75.108H66.4725V74.472H71.5005L71.1645 74.724C71.1645 74.268 71.0645 73.864 70.8645 73.512C70.6725 73.152 70.4085 72.872 70.0725 72.672C69.7365 72.472 69.3485 72.372 68.9085 72.372C68.4765 72.372 68.0885 72.472 67.7445 72.672C67.4005 72.872 67.1325 73.152 66.9405 73.512C66.7485 73.872 66.6525 74.284 66.6525 74.748V74.88C66.6525 75.36 66.7565 75.784 66.9645 76.152C67.1805 76.512 67.4765 76.796 67.8525 77.004C68.2365 77.204 68.6725 77.304 69.1605 77.304C69.5445 77.304 69.9005 77.236 70.2285 77.1C70.5645 76.964 70.8525 76.756 71.0925 76.476L71.5725 77.028C71.2925 77.364 70.9405 77.62 70.5165 77.796C70.1005 77.972 69.6405 78.06 69.1365 78.06Z" fill="white"/>
<defs>
<clipPath id="clip0_127_984">
<rect width="40" height="40" fill="white" transform="translate(34.6172 25)"/>
</clipPath>
</defs>
</svg>
