<svg width="110" height="115" viewBox="0 0 110 115" fill="none" xmlns="http://www.w3.org/2000/svg">
<path d="M0 20C0 8.9543 8.95431 0 20 0H90C101.046 0 110 8.95431 110 20V92C110 97.5229 105.523 102 100 102H10C4.47715 102 0 97.5229 0 92V20Z" fill="white"/>
<g clip-path="url(#clip0_127_1007)">
<path d="M42.8923 33.4934L48.8023 54.1767L53.8689 44.0434L63.2639 40.285L42.8923 33.4934ZM39.4489 28.8334L70.7923 39.28C70.9545 39.3338 71.0963 39.4362 71.1984 39.5732C71.3005 39.7103 71.358 39.8754 71.3631 40.0462C71.3681 40.217 71.3206 40.3853 71.2268 40.5282C71.1331 40.6711 70.9977 40.7817 70.8389 40.845L56.2839 46.6667L48.9089 61.4167C48.8339 61.5669 48.7152 61.6909 48.5685 61.7725C48.4217 61.8541 48.2538 61.8895 48.0866 61.874C47.9194 61.8585 47.7608 61.7929 47.6315 61.6857C47.5023 61.5785 47.4084 61.4348 47.3623 61.2734L38.3839 29.8517C38.3424 29.7057 38.3414 29.5512 38.3813 29.4047C38.4211 29.2582 38.5002 29.1254 38.6099 29.0206C38.7197 28.9158 38.8561 28.843 39.0042 28.81C39.1524 28.777 39.3067 28.7851 39.4506 28.8334H39.4489Z" fill="#161C2D"/>
</g>
<path d="M42 78V70.368H39.048V69.6H45.84V70.368H42.888V78H42ZM46.6682 78V71.7H47.4842V73.416L47.4002 73.116C47.5762 72.636 47.8722 72.272 48.2882 72.024C48.7042 71.768 49.2202 71.64 49.8362 71.64V72.468C49.8042 72.468 49.7722 72.468 49.7402 72.468C49.7082 72.46 49.6762 72.456 49.6442 72.456C48.9802 72.456 48.4602 72.66 48.0842 73.068C47.7082 73.468 47.5202 74.04 47.5202 74.784V78H46.6682ZM54.6237 78V76.608L54.5877 76.38V74.052C54.5877 73.516 54.4357 73.104 54.1317 72.816C53.8357 72.528 53.3917 72.384 52.7997 72.384C52.3917 72.384 52.0037 72.452 51.6357 72.588C51.2677 72.724 50.9557 72.904 50.6997 73.128L50.3157 72.492C50.6357 72.22 51.0197 72.012 51.4677 71.868C51.9157 71.716 52.3877 71.64 52.8837 71.64C53.6997 71.64 54.3277 71.844 54.7677 72.252C55.2157 72.652 55.4397 73.264 55.4397 74.088V78H54.6237ZM52.4517 78.06C51.9797 78.06 51.5677 77.984 51.2157 77.832C50.8717 77.672 50.6077 77.456 50.4237 77.184C50.2397 76.904 50.1477 76.584 50.1477 76.224C50.1477 75.896 50.2237 75.6 50.3757 75.336C50.5357 75.064 50.7917 74.848 51.1437 74.688C51.5037 74.52 51.9837 74.436 52.5837 74.436H54.7557V75.072H52.6077C51.9997 75.072 51.5757 75.18 51.3357 75.396C51.1037 75.612 50.9877 75.88 50.9877 76.2C50.9877 76.56 51.1277 76.848 51.4077 77.064C51.6877 77.28 52.0797 77.388 52.5837 77.388C53.0637 77.388 53.4757 77.28 53.8197 77.064C54.1717 76.84 54.4277 76.52 54.5877 76.104L54.7797 76.692C54.6197 77.108 54.3397 77.44 53.9397 77.688C53.5477 77.936 53.0517 78.06 52.4517 78.06ZM60.1234 78.06C59.4994 78.06 58.9394 77.924 58.4434 77.652C57.9554 77.372 57.5714 76.992 57.2914 76.512C57.0114 76.024 56.8714 75.468 56.8714 74.844C56.8714 74.212 57.0114 73.656 57.2914 73.176C57.5714 72.696 57.9554 72.32 58.4434 72.048C58.9394 71.776 59.4994 71.64 60.1234 71.64C60.6594 71.64 61.1434 71.744 61.5754 71.952C62.0074 72.16 62.3474 72.472 62.5954 72.888L61.9594 73.32C61.7434 73 61.4754 72.764 61.1554 72.612C60.8354 72.46 60.4874 72.384 60.1114 72.384C59.6634 72.384 59.2594 72.488 58.8994 72.696C58.5394 72.896 58.2554 73.18 58.0474 73.548C57.8394 73.916 57.7354 74.348 57.7354 74.844C57.7354 75.34 57.8394 75.772 58.0474 76.14C58.2554 76.508 58.5394 76.796 58.8994 77.004C59.2594 77.204 59.6634 77.304 60.1114 77.304C60.4874 77.304 60.8354 77.228 61.1554 77.076C61.4754 76.924 61.7434 76.692 61.9594 76.38L62.5954 76.812C62.3474 77.22 62.0074 77.532 61.5754 77.748C61.1434 77.956 60.6594 78.06 60.1234 78.06ZM64.601 76.368L64.625 75.276L68.549 71.7H69.593L66.821 74.352L66.341 74.76L64.601 76.368ZM63.929 78V69.096H64.781V78H63.929ZM68.813 78L66.185 74.724L66.737 74.064L69.857 78H68.813Z" fill="#161C2D"/>
<defs>
<clipPath id="clip0_127_1007">
<rect width="40" height="40" fill="white" transform="translate(34.6172 25)"/>
</clipPath>
</defs>
</svg>
