<svg width="47" height="48" viewBox="0 0 47 48" fill="none" xmlns="http://www.w3.org/2000/svg">
<rect width="47" height="48" rx="10" fill="white"/>
<g clip-path="url(#clip0_434_8594)">
<path d="M25.12 29.0232L20.921 26.7332C20.3728 27.3193 19.661 27.7269 18.8781 27.9031C18.0952 28.0793 17.2774 28.0159 16.5309 27.7212C15.7845 27.4266 15.144 26.9142 14.6926 26.2506C14.2412 25.5871 13.9998 24.8032 13.9998 24.0007C13.9998 23.1982 14.2412 22.4143 14.6926 21.7508C15.144 21.0873 15.7845 20.5749 16.5309 20.2802C17.2774 19.9855 18.0952 19.9221 18.8781 20.0983C19.661 20.2745 20.3728 20.6821 20.921 21.2682L25.121 18.9782C24.8826 18.0343 24.9966 17.0358 25.4416 16.1699C25.8867 15.304 26.6323 14.6302 27.5387 14.2747C28.445 13.9192 29.4499 13.9065 30.365 14.2389C31.2801 14.5714 32.0425 15.2261 32.5093 16.0805C32.9762 16.9348 33.1154 17.9301 32.9009 18.8797C32.6864 19.8294 32.133 20.6682 31.3442 21.239C30.5555 21.8098 29.5857 22.0733 28.6166 21.9802C27.6475 21.8871 26.7456 21.4437 26.08 20.7332L21.88 23.0232C22.0412 23.6646 22.0412 24.3358 21.88 24.9772L26.079 27.2672C26.7446 26.5567 27.6465 26.1133 28.6156 26.0202C29.5847 25.9271 30.5545 26.1906 31.3432 26.7614C32.132 27.3322 32.6854 28.171 32.8999 29.1207C33.1144 30.0703 32.9752 31.0656 32.5083 31.9199C32.0415 32.7743 31.2791 33.429 30.364 33.7615C29.4489 34.0939 28.444 34.0812 27.5377 33.7257C26.6313 33.3702 25.8857 32.6964 25.4406 31.8305C24.9956 30.9646 24.8816 29.9661 25.12 29.0222V29.0232ZM18 26.0002C18.5304 26.0002 19.0391 25.7895 19.4142 25.4144C19.7893 25.0393 20 24.5306 20 24.0002C20 23.4698 19.7893 22.9611 19.4142 22.586C19.0391 22.2109 18.5304 22.0002 18 22.0002C17.4696 22.0002 16.9609 22.2109 16.5858 22.586C16.2107 22.9611 16 23.4698 16 24.0002C16 24.5306 16.2107 25.0393 16.5858 25.4144C16.9609 25.7895 17.4696 26.0002 18 26.0002ZM29 20.0002C29.5304 20.0002 30.0391 19.7895 30.4142 19.4144C30.7893 19.0393 31 18.5306 31 18.0002C31 17.4698 30.7893 16.9611 30.4142 16.586C30.0391 16.2109 29.5304 16.0002 29 16.0002C28.4696 16.0002 27.9609 16.2109 27.5858 16.586C27.2107 16.9611 27 17.4698 27 18.0002C27 18.5306 27.2107 19.0393 27.5858 19.4144C27.9609 19.7895 28.4696 20.0002 29 20.0002ZM29 32.0002C29.5304 32.0002 30.0391 31.7895 30.4142 31.4144C30.7893 31.0393 31 30.5306 31 30.0002C31 29.4698 30.7893 28.9611 30.4142 28.586C30.0391 28.2109 29.5304 28.0002 29 28.0002C28.4696 28.0002 27.9609 28.2109 27.5858 28.586C27.2107 28.9611 27 29.4698 27 30.0002C27 30.5306 27.2107 31.0393 27.5858 31.4144C27.9609 31.7895 28.4696 32.0002 29 32.0002Z" fill="#09121F"/>
</g>
<defs>
<clipPath id="clip0_434_8594">
<rect width="24" height="24" fill="white" transform="translate(12 12)"/>
</clipPath>
</defs>
</svg>
