<svg width="57" height="28" viewBox="0 0 57 28" fill="none" xmlns="http://www.w3.org/2000/svg">
<rect y="0.771057" width="57" height="27" rx="10" fill="#DADADA"/>
<path d="M13.052 18.8671C12.412 18.8671 11.816 18.7591 11.264 18.5431C10.72 18.3271 10.248 18.0271 9.848 17.6431C9.448 17.2511 9.136 16.7951 8.912 16.2751C8.688 15.7551 8.576 15.1871 8.576 14.5711C8.576 13.9551 8.688 13.3871 8.912 12.8671C9.136 12.3471 9.448 11.8951 9.848 11.5111C10.248 11.1191 10.72 10.8151 11.264 10.5991C11.808 10.3831 12.404 10.2751 13.052 10.2751C13.692 10.2751 14.28 10.3831 14.816 10.5991C15.36 10.8071 15.832 11.1071 16.232 11.4991C16.64 11.8831 16.952 12.3351 17.168 12.8551C17.392 13.3751 17.504 13.9471 17.504 14.5711C17.504 15.1951 17.392 15.7671 17.168 16.2871C16.952 16.8071 16.64 17.2631 16.232 17.6551C15.832 18.0391 15.36 18.3391 14.816 18.5551C14.28 18.7631 13.692 18.8671 13.052 18.8671ZM13.052 17.7991C13.516 17.7991 13.944 17.7191 14.336 17.5591C14.736 17.3991 15.08 17.1751 15.368 16.8871C15.664 16.5911 15.892 16.2471 16.052 15.8551C16.22 15.4631 16.304 15.0351 16.304 14.5711C16.304 14.1071 16.22 13.6791 16.052 13.2871C15.892 12.8951 15.664 12.5551 15.368 12.2671C15.08 11.9711 14.736 11.7431 14.336 11.5831C13.944 11.4231 13.516 11.3431 13.052 11.3431C12.58 11.3431 12.144 11.4231 11.744 11.5831C11.352 11.7431 11.008 11.9711 10.712 12.2671C10.416 12.5551 10.184 12.8951 10.016 13.2871C9.856 13.6791 9.776 14.1071 9.776 14.5711C9.776 15.0351 9.856 15.4631 10.016 15.8551C10.184 16.2471 10.416 16.5911 10.712 16.8871C11.008 17.1751 11.352 17.3991 11.744 17.5591C12.144 17.7191 12.58 17.7991 13.052 17.7991ZM21.1663 18.8431C20.5263 18.8431 20.0303 18.6711 19.6783 18.3271C19.3263 17.9831 19.1503 17.4911 19.1503 16.8511V11.0191H20.3023V16.8031C20.3023 17.1471 20.3863 17.4111 20.5543 17.5951C20.7303 17.7791 20.9783 17.8711 21.2983 17.8711C21.6583 17.8711 21.9583 17.7711 22.1983 17.5711L22.5583 18.3991C22.3823 18.5511 22.1703 18.6631 21.9223 18.7351C21.6823 18.8071 21.4303 18.8431 21.1663 18.8431ZM18.0703 13.3591V12.4111H22.1263V13.3591H18.0703ZM27.1007 12.3511C27.6207 12.3511 28.0767 12.4511 28.4687 12.6511C28.8687 12.8511 29.1807 13.1551 29.4047 13.5631C29.6287 13.9711 29.7407 14.4871 29.7407 15.1111V18.7711H28.5887V15.2431C28.5887 14.6271 28.4367 14.1631 28.1327 13.8511C27.8367 13.5391 27.4167 13.3831 26.8727 13.3831C26.4647 13.3831 26.1087 13.4631 25.8047 13.6231C25.5007 13.7831 25.2647 14.0191 25.0967 14.3311C24.9367 14.6431 24.8567 15.0311 24.8567 15.4951V18.7711H23.7047V9.86706H24.8567V14.1271L24.6287 13.6711C24.8367 13.2551 25.1567 12.9311 25.5887 12.6991C26.0207 12.4671 26.5247 12.3511 27.1007 12.3511ZM34.4582 18.8431C33.7782 18.8431 33.1782 18.7031 32.6582 18.4231C32.1462 18.1431 31.7462 17.7591 31.4582 17.2711C31.1782 16.7831 31.0382 16.2231 31.0382 15.5911C31.0382 14.9591 31.1742 14.3991 31.4462 13.9111C31.7262 13.4231 32.1062 13.0431 32.5862 12.7711C33.0742 12.4911 33.6222 12.3511 34.2302 12.3511C34.8462 12.3511 35.3902 12.4871 35.8622 12.7591C36.3342 13.0311 36.7022 13.4151 36.9662 13.9111C37.2382 14.3991 37.3742 14.9711 37.3742 15.6271C37.3742 15.6751 37.3702 15.7311 37.3622 15.7951C37.3622 15.8591 37.3582 15.9191 37.3502 15.9751H31.9382V15.1471H36.7502L36.2822 15.4351C36.2902 15.0271 36.2062 14.6631 36.0302 14.3431C35.8542 14.0231 35.6102 13.7751 35.2982 13.5991C34.9942 13.4151 34.6382 13.3231 34.2302 13.3231C33.8302 13.3231 33.4742 13.4151 33.1622 13.5991C32.8502 13.7751 32.6062 14.0271 32.4302 14.3551C32.2542 14.6751 32.1662 15.0431 32.1662 15.4591V15.6511C32.1662 16.0751 32.2622 16.4551 32.4542 16.7911C32.6542 17.1191 32.9302 17.3751 33.2822 17.5591C33.6342 17.7431 34.0382 17.8351 34.4942 17.8351C34.8702 17.8351 35.2102 17.7711 35.5142 17.6431C35.8262 17.5151 36.0982 17.3231 36.3302 17.0671L36.9662 17.8111C36.6782 18.1471 36.3182 18.4031 35.8862 18.5791C35.4622 18.7551 34.9862 18.8431 34.4582 18.8431ZM38.7275 18.7711V12.4111H39.8315V14.1391L39.7235 13.7071C39.8995 13.2671 40.1955 12.9311 40.6115 12.6991C41.0275 12.4671 41.5395 12.3511 42.1475 12.3511V13.4671C42.0995 13.4591 42.0515 13.4551 42.0035 13.4551C41.9635 13.4551 41.9235 13.4551 41.8835 13.4551C41.2675 13.4551 40.7795 13.6391 40.4195 14.0071C40.0595 14.3751 39.8795 14.9071 39.8795 15.6031V18.7711H38.7275ZM45.2153 18.8431C44.6873 18.8431 44.1833 18.7711 43.7033 18.6271C43.2313 18.4831 42.8593 18.3071 42.5873 18.0991L43.0673 17.1871C43.3393 17.3711 43.6753 17.5271 44.0753 17.6551C44.4753 17.7831 44.8833 17.8471 45.2993 17.8471C45.8353 17.8471 46.2193 17.7711 46.4513 17.6191C46.6913 17.4671 46.8113 17.2551 46.8113 16.9831C46.8113 16.7831 46.7393 16.6271 46.5953 16.5151C46.4513 16.4031 46.2593 16.3191 46.0193 16.2631C45.7873 16.2071 45.5273 16.1591 45.2393 16.1191C44.9513 16.0711 44.6633 16.0151 44.3753 15.9511C44.0873 15.8791 43.8233 15.7831 43.5833 15.6631C43.3433 15.5351 43.1513 15.3631 43.0073 15.1471C42.8633 14.9231 42.7913 14.6271 42.7913 14.2591C42.7913 13.8751 42.8993 13.5391 43.1153 13.2511C43.3313 12.9631 43.6353 12.7431 44.0273 12.5911C44.4273 12.4311 44.8993 12.3511 45.4433 12.3511C45.8593 12.3511 46.2793 12.4031 46.7033 12.5071C47.1353 12.6031 47.4873 12.7431 47.7593 12.9271L47.2673 13.8391C46.9793 13.6471 46.6793 13.5151 46.3673 13.4431C46.0553 13.3711 45.7433 13.3351 45.4313 13.3351C44.9273 13.3351 44.5513 13.4191 44.3033 13.5871C44.0553 13.7471 43.9313 13.9551 43.9313 14.2111C43.9313 14.4271 44.0033 14.5951 44.1473 14.7151C44.2993 14.8271 44.4913 14.9151 44.7233 14.9791C44.9633 15.0431 45.2273 15.0991 45.5153 15.1471C45.8033 15.1871 46.0913 15.2431 46.3793 15.3151C46.6673 15.3791 46.9273 15.4711 47.1593 15.5911C47.3993 15.7111 47.5913 15.8791 47.7353 16.0951C47.8873 16.3111 47.9633 16.5991 47.9633 16.9591C47.9633 17.3431 47.8513 17.6751 47.6273 17.9551C47.4033 18.2351 47.0873 18.4551 46.6793 18.6151C46.2713 18.7671 45.7833 18.8431 45.2153 18.8431Z" fill="#202020" fill-opacity="0.5"/>
</svg>
