<svg width="64" height="28" viewBox="0 0 64 28" fill="none" xmlns="http://www.w3.org/2000/svg">
<rect y="0.771057" width="64" height="27" rx="10" fill="#DADADA"/>
<path d="M11.708 18.8671C11.068 18.8671 10.456 18.7711 9.872 18.5791C9.288 18.3791 8.828 18.1231 8.492 17.8111L8.936 16.8751C9.256 17.1551 9.664 17.3871 10.16 17.5711C10.656 17.7551 11.172 17.8471 11.708 17.8471C12.196 17.8471 12.592 17.7911 12.896 17.6791C13.2 17.5671 13.424 17.4151 13.568 17.2231C13.712 17.0231 13.784 16.7991 13.784 16.5511C13.784 16.2631 13.688 16.0311 13.496 15.8551C13.312 15.6791 13.068 15.5391 12.764 15.4351C12.468 15.3231 12.14 15.2271 11.78 15.1471C11.42 15.0671 11.056 14.9751 10.688 14.8711C10.328 14.7591 9.996 14.6191 9.692 14.4511C9.396 14.2831 9.156 14.0591 8.972 13.7791C8.788 13.4911 8.696 13.1231 8.696 12.6751C8.696 12.2431 8.808 11.8471 9.032 11.4871C9.264 11.1191 9.616 10.8271 10.088 10.6111C10.568 10.3871 11.176 10.2751 11.912 10.2751C12.4 10.2751 12.884 10.3391 13.364 10.4671C13.844 10.5951 14.26 10.7791 14.612 11.0191L14.216 11.9791C13.856 11.7391 13.476 11.5671 13.076 11.4631C12.676 11.3511 12.288 11.2951 11.912 11.2951C11.44 11.2951 11.052 11.3551 10.748 11.4751C10.444 11.5951 10.22 11.7551 10.076 11.9551C9.94 12.1551 9.872 12.3791 9.872 12.6271C9.872 12.9231 9.964 13.1591 10.148 13.3351C10.34 13.5111 10.584 13.6511 10.88 13.7551C11.184 13.8591 11.516 13.9551 11.876 14.0431C12.236 14.1231 12.596 14.2151 12.956 14.3191C13.324 14.4231 13.656 14.5591 13.952 14.7271C14.256 14.8951 14.5 15.1191 14.684 15.3991C14.868 15.6791 14.96 16.0391 14.96 16.4791C14.96 16.9031 14.844 17.2991 14.612 17.6671C14.38 18.0271 14.02 18.3191 13.532 18.5431C13.052 18.7591 12.444 18.8671 11.708 18.8671ZM19.0227 18.8431C18.3827 18.8431 17.8147 18.7031 17.3187 18.4231C16.8227 18.1431 16.4307 17.7591 16.1427 17.2711C15.8547 16.7751 15.7107 16.2151 15.7107 15.5911C15.7107 14.9591 15.8547 14.3991 16.1427 13.9111C16.4307 13.4231 16.8227 13.0431 17.3187 12.7711C17.8147 12.4911 18.3827 12.3511 19.0227 12.3511C19.6547 12.3511 20.2187 12.4911 20.7147 12.7711C21.2187 13.0431 21.6107 13.4231 21.8907 13.9111C22.1787 14.3911 22.3227 14.9511 22.3227 15.5911C22.3227 16.2231 22.1787 16.7831 21.8907 17.2711C21.6107 17.7591 21.2187 18.1431 20.7147 18.4231C20.2187 18.7031 19.6547 18.8431 19.0227 18.8431ZM19.0227 17.8351C19.4307 17.8351 19.7947 17.7431 20.1147 17.5591C20.4427 17.3751 20.6987 17.1151 20.8827 16.7791C21.0667 16.4351 21.1587 16.0391 21.1587 15.5911C21.1587 15.1351 21.0667 14.7431 20.8827 14.4151C20.6987 14.0791 20.4427 13.8191 20.1147 13.6351C19.7947 13.4511 19.4307 13.3591 19.0227 13.3591C18.6147 13.3591 18.2507 13.4511 17.9307 13.6351C17.6107 13.8191 17.3547 14.0791 17.1627 14.4151C16.9707 14.7431 16.8747 15.1351 16.8747 15.5911C16.8747 16.0391 16.9707 16.4351 17.1627 16.7791C17.3547 17.1151 17.6107 17.3751 17.9307 17.5591C18.2507 17.7431 18.6147 17.8351 19.0227 17.8351ZM26.4415 18.8431C25.7935 18.8431 25.2135 18.7031 24.7015 18.4231C24.1975 18.1431 23.8015 17.7591 23.5135 17.2711C23.2255 16.7831 23.0815 16.2231 23.0815 15.5911C23.0815 14.9591 23.2255 14.3991 23.5135 13.9111C23.8015 13.4231 24.1975 13.0431 24.7015 12.7711C25.2135 12.4911 25.7935 12.3511 26.4415 12.3511C27.0175 12.3511 27.5295 12.4671 27.9775 12.6991C28.4335 12.9231 28.7855 13.2591 29.0335 13.7071L28.1575 14.2711C27.9495 13.9591 27.6935 13.7311 27.3895 13.5871C27.0935 13.4351 26.7735 13.3591 26.4295 13.3591C26.0135 13.3591 25.6415 13.4511 25.3135 13.6351C24.9855 13.8191 24.7255 14.0791 24.5335 14.4151C24.3415 14.7431 24.2455 15.1351 24.2455 15.5911C24.2455 16.0471 24.3415 16.4431 24.5335 16.7791C24.7255 17.1151 24.9855 17.3751 25.3135 17.5591C25.6415 17.7431 26.0135 17.8351 26.4295 17.8351C26.7735 17.8351 27.0935 17.7631 27.3895 17.6191C27.6935 17.4671 27.9495 17.2351 28.1575 16.9231L29.0335 17.4751C28.7855 17.9151 28.4335 18.2551 27.9775 18.4951C27.5295 18.7271 27.0175 18.8431 26.4415 18.8431ZM30.1965 18.7711V12.4111H31.3485V18.7711H30.1965ZM30.7725 11.1871C30.5485 11.1871 30.3605 11.1151 30.2085 10.9711C30.0645 10.8271 29.9925 10.6511 29.9925 10.4431C29.9925 10.2271 30.0645 10.0471 30.2085 9.90306C30.3605 9.75906 30.5485 9.68706 30.7725 9.68706C30.9965 9.68706 31.1805 9.75906 31.3245 9.90306C31.4765 10.0391 31.5525 10.2111 31.5525 10.4191C31.5525 10.6351 31.4805 10.8191 31.3365 10.9711C31.1925 11.1151 31.0045 11.1871 30.7725 11.1871ZM37.2497 18.7711V17.4271L37.1897 17.1751V14.8831C37.1897 14.3951 37.0457 14.0191 36.7577 13.7551C36.4777 13.4831 36.0537 13.3471 35.4857 13.3471C35.1097 13.3471 34.7417 13.4111 34.3817 13.5391C34.0217 13.6591 33.7177 13.8231 33.4697 14.0311L32.9897 13.1671C33.3177 12.9031 33.7097 12.7031 34.1657 12.5671C34.6297 12.4231 35.1137 12.3511 35.6177 12.3511C36.4897 12.3511 37.1617 12.5631 37.6337 12.9871C38.1057 13.4111 38.3417 14.0591 38.3417 14.9311V18.7711H37.2497ZM35.1617 18.8431C34.6897 18.8431 34.2737 18.7631 33.9137 18.6031C33.5617 18.4431 33.2897 18.2231 33.0977 17.9431C32.9057 17.6551 32.8097 17.3311 32.8097 16.9711C32.8097 16.6271 32.8897 16.3151 33.0497 16.0351C33.2177 15.7551 33.4857 15.5311 33.8537 15.3631C34.2297 15.1951 34.7337 15.1111 35.3657 15.1111H37.3817V15.9391H35.4137C34.8377 15.9391 34.4497 16.0351 34.2497 16.2271C34.0497 16.4191 33.9497 16.6511 33.9497 16.9231C33.9497 17.2351 34.0737 17.4871 34.3217 17.6791C34.5697 17.8631 34.9137 17.9551 35.3537 17.9551C35.7857 17.9551 36.1617 17.8591 36.4817 17.6671C36.8097 17.4751 37.0457 17.1951 37.1897 16.8271L37.4177 17.6191C37.2657 17.9951 36.9977 18.2951 36.6137 18.5191C36.2297 18.7351 35.7457 18.8431 35.1617 18.8431ZM40.2272 18.7711V9.86706H41.3792V18.7711H40.2272ZM47.5566 14.3431H51.8886V15.3751H47.5566V14.3431ZM47.6766 18.7711H46.4766V10.3711H52.4046V11.4151H47.6766V18.7711ZM53.6794 18.7711V12.4111H54.8314V18.7711H53.6794ZM54.2554 11.1871C54.0314 11.1871 53.8434 11.1151 53.6914 10.9711C53.5474 10.8271 53.4754 10.6511 53.4754 10.4431C53.4754 10.2271 53.5474 10.0471 53.6914 9.90306C53.8434 9.75906 54.0314 9.68706 54.2554 9.68706C54.4794 9.68706 54.6634 9.75906 54.8074 9.90306C54.9594 10.0391 55.0354 10.2111 55.0354 10.4191C55.0354 10.6351 54.9634 10.8191 54.8194 10.9711C54.6754 11.1151 54.4874 11.1871 54.2554 11.1871Z" fill="#202020" fill-opacity="0.5"/>
</svg>
