<svg width="73" height="28" viewBox="0 0 73 28" fill="none" xmlns="http://www.w3.org/2000/svg">
<rect y="0.771057" width="73" height="27" rx="10" fill="#DADADA"/>
<path d="M10.928 18.7711V11.4151H8.048V10.3711H14.996V11.4151H12.116V18.7711H10.928ZM18.0643 18.8431C17.3843 18.8431 16.7843 18.7031 16.2643 18.4231C15.7523 18.1431 15.3523 17.7591 15.0643 17.2711C14.7843 16.7831 14.6443 16.2231 14.6443 15.5911C14.6443 14.9591 14.7803 14.3991 15.0523 13.9111C15.3323 13.4231 15.7123 13.0431 16.1923 12.7711C16.6803 12.4911 17.2283 12.3511 17.8363 12.3511C18.4523 12.3511 18.9963 12.4871 19.4683 12.7591C19.9403 13.0311 20.3083 13.4151 20.5723 13.9111C20.8443 14.3991 20.9803 14.9711 20.9803 15.6271C20.9803 15.6751 20.9763 15.7311 20.9683 15.7951C20.9683 15.8591 20.9643 15.9191 20.9563 15.9751H15.5443V15.1471H20.3563L19.8883 15.4351C19.8963 15.0271 19.8123 14.6631 19.6363 14.3431C19.4603 14.0231 19.2163 13.7751 18.9043 13.5991C18.6003 13.4151 18.2443 13.3231 17.8363 13.3231C17.4363 13.3231 17.0803 13.4151 16.7683 13.5991C16.4563 13.7751 16.2123 14.0271 16.0363 14.3551C15.8603 14.6751 15.7723 15.0431 15.7723 15.4591V15.6511C15.7723 16.0751 15.8683 16.4551 16.0603 16.7911C16.2603 17.1191 16.5363 17.3751 16.8883 17.5591C17.2403 17.7431 17.6443 17.8351 18.1003 17.8351C18.4763 17.8351 18.8163 17.7711 19.1203 17.6431C19.4323 17.5151 19.7043 17.3231 19.9363 17.0671L20.5723 17.8111C20.2843 18.1471 19.9243 18.4031 19.4923 18.5791C19.0683 18.7551 18.5923 18.8431 18.0643 18.8431ZM24.1576 18.8431C23.6296 18.8431 23.1256 18.7711 22.6456 18.6271C22.1736 18.4831 21.8016 18.3071 21.5296 18.0991L22.0096 17.1871C22.2816 17.3711 22.6176 17.5271 23.0176 17.6551C23.4176 17.7831 23.8256 17.8471 24.2416 17.8471C24.7776 17.8471 25.1616 17.7711 25.3936 17.6191C25.6336 17.4671 25.7536 17.2551 25.7536 16.9831C25.7536 16.7831 25.6816 16.6271 25.5376 16.5151C25.3936 16.4031 25.2016 16.3191 24.9616 16.2631C24.7296 16.2071 24.4696 16.1591 24.1816 16.1191C23.8936 16.0711 23.6056 16.0151 23.3176 15.9511C23.0296 15.8791 22.7656 15.7831 22.5256 15.6631C22.2856 15.5351 22.0936 15.3631 21.9496 15.1471C21.8056 14.9231 21.7336 14.6271 21.7336 14.2591C21.7336 13.8751 21.8416 13.5391 22.0576 13.2511C22.2736 12.9631 22.5776 12.7431 22.9696 12.5911C23.3696 12.4311 23.8416 12.3511 24.3856 12.3511C24.8016 12.3511 25.2216 12.4031 25.6456 12.5071C26.0776 12.6031 26.4296 12.7431 26.7016 12.9271L26.2096 13.8391C25.9216 13.6471 25.6216 13.5151 25.3096 13.4431C24.9976 13.3711 24.6856 13.3351 24.3736 13.3351C23.8696 13.3351 23.4936 13.4191 23.2456 13.5871C22.9976 13.7471 22.8736 13.9551 22.8736 14.2111C22.8736 14.4271 22.9456 14.5951 23.0896 14.7151C23.2416 14.8271 23.4336 14.9151 23.6656 14.9791C23.9056 15.0431 24.1696 15.0991 24.4576 15.1471C24.7456 15.1871 25.0336 15.2431 25.3216 15.3151C25.6096 15.3791 25.8696 15.4711 26.1016 15.5911C26.3416 15.7111 26.5336 15.8791 26.6776 16.0951C26.8296 16.3111 26.9056 16.5991 26.9056 16.9591C26.9056 17.3431 26.7936 17.6751 26.5696 17.9551C26.3456 18.2351 26.0296 18.4551 25.6216 18.6151C25.2136 18.7671 24.7256 18.8431 24.1576 18.8431ZM30.9309 18.8431C30.2509 18.8431 29.6509 18.7031 29.1309 18.4231C28.6189 18.1431 28.2189 17.7591 27.9309 17.2711C27.6509 16.7831 27.5109 16.2231 27.5109 15.5911C27.5109 14.9591 27.6469 14.3991 27.9189 13.9111C28.1989 13.4231 28.5789 13.0431 29.0589 12.7711C29.5469 12.4911 30.0949 12.3511 30.7029 12.3511C31.3189 12.3511 31.8629 12.4871 32.3349 12.7591C32.8069 13.0311 33.1749 13.4151 33.4389 13.9111C33.7109 14.3991 33.8469 14.9711 33.8469 15.6271C33.8469 15.6751 33.8429 15.7311 33.8349 15.7951C33.8349 15.8591 33.8309 15.9191 33.8229 15.9751H28.4109V15.1471H33.2229L32.7549 15.4351C32.7629 15.0271 32.6789 14.6631 32.5029 14.3431C32.3269 14.0231 32.0829 13.7751 31.7709 13.5991C31.4669 13.4151 31.1109 13.3231 30.7029 13.3231C30.3029 13.3231 29.9469 13.4151 29.6349 13.5991C29.3229 13.7751 29.0789 14.0271 28.9029 14.3551C28.7269 14.6751 28.6389 15.0431 28.6389 15.4591V15.6511C28.6389 16.0751 28.7349 16.4551 28.9269 16.7911C29.1269 17.1191 29.4029 17.3751 29.7549 17.5591C30.1069 17.7431 30.5109 17.8351 30.9669 17.8351C31.3429 17.8351 31.6829 17.7711 31.9869 17.6431C32.2989 17.5151 32.5709 17.3231 32.8029 17.0671L33.4389 17.8111C33.1509 18.1471 32.7909 18.4031 32.3589 18.5791C31.9349 18.7551 31.4589 18.8431 30.9309 18.8431ZM37.3842 18.8431C36.7442 18.8431 36.2482 18.6711 35.8962 18.3271C35.5442 17.9831 35.3682 17.4911 35.3682 16.8511V11.0191H36.5202V16.8031C36.5202 17.1471 36.6042 17.4111 36.7722 17.5951C36.9482 17.7791 37.1962 17.8711 37.5162 17.8711C37.8762 17.8711 38.1762 17.7711 38.4162 17.5711L38.7762 18.3991C38.6002 18.5511 38.3882 18.6631 38.1402 18.7351C37.9002 18.8071 37.6482 18.8431 37.3842 18.8431ZM34.2882 13.3591V12.4111H38.3442V13.3591H34.2882ZM43.3185 12.3511C43.8385 12.3511 44.2945 12.4511 44.6865 12.6511C45.0865 12.8511 45.3985 13.1551 45.6225 13.5631C45.8465 13.9711 45.9585 14.4871 45.9585 15.1111V18.7711H44.8065V15.2431C44.8065 14.6271 44.6545 14.1631 44.3505 13.8511C44.0545 13.5391 43.6345 13.3831 43.0905 13.3831C42.6825 13.3831 42.3265 13.4631 42.0225 13.6231C41.7185 13.7831 41.4825 14.0191 41.3145 14.3311C41.1545 14.6431 41.0745 15.0311 41.0745 15.4951V18.7711H39.9225V12.4111H41.0265V14.1271L40.8465 13.6711C41.0545 13.2551 41.3745 12.9311 41.8065 12.6991C42.2385 12.4671 42.7425 12.3511 43.3185 12.3511ZM50.6761 18.8431C49.9961 18.8431 49.3961 18.7031 48.8761 18.4231C48.3641 18.1431 47.9641 17.7591 47.6761 17.2711C47.3961 16.7831 47.2561 16.2231 47.2561 15.5911C47.2561 14.9591 47.3921 14.3991 47.6641 13.9111C47.9441 13.4231 48.3241 13.0431 48.8041 12.7711C49.2921 12.4911 49.8401 12.3511 50.4481 12.3511C51.0641 12.3511 51.6081 12.4871 52.0801 12.7591C52.5521 13.0311 52.9201 13.4151 53.1841 13.9111C53.4561 14.3991 53.5921 14.9711 53.5921 15.6271C53.5921 15.6751 53.5881 15.7311 53.5801 15.7951C53.5801 15.8591 53.5761 15.9191 53.5681 15.9751H48.1561V15.1471H52.9681L52.5001 15.4351C52.5081 15.0271 52.4241 14.6631 52.2481 14.3431C52.0721 14.0231 51.8281 13.7751 51.5161 13.5991C51.2121 13.4151 50.8561 13.3231 50.4481 13.3231C50.0481 13.3231 49.6921 13.4151 49.3801 13.5991C49.0681 13.7751 48.8241 14.0271 48.6481 14.3551C48.4721 14.6751 48.3841 15.0431 48.3841 15.4591V15.6511C48.3841 16.0751 48.4801 16.4551 48.6721 16.7911C48.8721 17.1191 49.1481 17.3751 49.5001 17.5591C49.8521 17.7431 50.2561 17.8351 50.7121 17.8351C51.0881 17.8351 51.4281 17.7711 51.7321 17.6431C52.0441 17.5151 52.3161 17.3231 52.5481 17.0671L53.1841 17.8111C52.8961 18.1471 52.5361 18.4031 52.1041 18.5791C51.6801 18.7551 51.2041 18.8431 50.6761 18.8431ZM57.1293 18.8431C56.4893 18.8431 55.9933 18.6711 55.6413 18.3271C55.2893 17.9831 55.1133 17.4911 55.1133 16.8511V11.0191H56.2653V16.8031C56.2653 17.1471 56.3493 17.4111 56.5173 17.5951C56.6933 17.7791 56.9413 17.8711 57.2613 17.8711C57.6213 17.8711 57.9213 17.7711 58.1613 17.5711L58.5213 18.3991C58.3453 18.5511 58.1333 18.6631 57.8853 18.7351C57.6453 18.8071 57.3933 18.8431 57.1293 18.8431ZM54.0333 13.3591V12.4111H58.0893V13.3591H54.0333ZM61.4917 18.8431C60.9637 18.8431 60.4597 18.7711 59.9797 18.6271C59.5077 18.4831 59.1357 18.3071 58.8637 18.0991L59.3437 17.1871C59.6157 17.3711 59.9517 17.5271 60.3517 17.6551C60.7517 17.7831 61.1597 17.8471 61.5757 17.8471C62.1117 17.8471 62.4957 17.7711 62.7277 17.6191C62.9677 17.4671 63.0877 17.2551 63.0877 16.9831C63.0877 16.7831 63.0157 16.6271 62.8717 16.5151C62.7277 16.4031 62.5357 16.3191 62.2957 16.2631C62.0637 16.2071 61.8037 16.1591 61.5157 16.1191C61.2277 16.0711 60.9397 16.0151 60.6517 15.9511C60.3637 15.8791 60.0997 15.7831 59.8597 15.6631C59.6197 15.5351 59.4277 15.3631 59.2837 15.1471C59.1397 14.9231 59.0677 14.6271 59.0677 14.2591C59.0677 13.8751 59.1757 13.5391 59.3917 13.2511C59.6077 12.9631 59.9117 12.7431 60.3037 12.5911C60.7037 12.4311 61.1757 12.3511 61.7197 12.3511C62.1357 12.3511 62.5557 12.4031 62.9797 12.5071C63.4117 12.6031 63.7637 12.7431 64.0357 12.9271L63.5437 13.8391C63.2557 13.6471 62.9557 13.5151 62.6437 13.4431C62.3317 13.3711 62.0197 13.3351 61.7077 13.3351C61.2037 13.3351 60.8277 13.4191 60.5797 13.5871C60.3317 13.7471 60.2077 13.9551 60.2077 14.2111C60.2077 14.4271 60.2797 14.5951 60.4237 14.7151C60.5757 14.8271 60.7677 14.9151 60.9997 14.9791C61.2397 15.0431 61.5037 15.0991 61.7917 15.1471C62.0797 15.1871 62.3677 15.2431 62.6557 15.3151C62.9437 15.3791 63.2037 15.4711 63.4357 15.5911C63.6757 15.7111 63.8677 15.8791 64.0117 16.0951C64.1637 16.3111 64.2397 16.5991 64.2397 16.9591C64.2397 17.3431 64.1277 17.6751 63.9037 17.9551C63.6797 18.2351 63.3637 18.4551 62.9557 18.6151C62.5477 18.7671 62.0597 18.8431 61.4917 18.8431Z" fill="#202020" fill-opacity="0.5"/>
</svg>
