<svg width="97" height="25" viewBox="0 0 97 25" fill="none" xmlns="http://www.w3.org/2000/svg">
<rect x="0.5" width="96" height="25" rx="5" fill="#161C2D"/>
<path d="M15.0043 16.58C14.4709 16.58 13.9776 16.4933 13.5243 16.32C13.0776 16.14 12.6876 15.89 12.3543 15.57C12.0276 15.2433 11.7709 14.8633 11.5843 14.43C11.3976 13.9967 11.3043 13.52 11.3043 13C11.3043 12.48 11.3976 12.0033 11.5843 11.57C11.7709 11.1367 12.0309 10.76 12.3643 10.44C12.6976 10.1133 13.0876 9.86333 13.5343 9.69C13.9876 9.51 14.4809 9.42 15.0143 9.42C15.5543 9.42 16.0509 9.51333 16.5043 9.7C16.9643 9.88 17.3543 10.15 17.6743 10.51L17.0243 11.14C16.7576 10.86 16.4576 10.6533 16.1243 10.52C15.7909 10.38 15.4343 10.31 15.0543 10.31C14.6609 10.31 14.2943 10.3767 13.9543 10.51C13.6209 10.6433 13.3309 10.83 13.0843 11.07C12.8376 11.31 12.6443 11.5967 12.5043 11.93C12.3709 12.2567 12.3043 12.6133 12.3043 13C12.3043 13.3867 12.3709 13.7467 12.5043 14.08C12.6443 14.4067 12.8376 14.69 13.0843 14.93C13.3309 15.17 13.6209 15.3567 13.9543 15.49C14.2943 15.6233 14.6609 15.69 15.0543 15.69C15.4343 15.69 15.7909 15.6233 16.1243 15.49C16.4576 15.35 16.7576 15.1367 17.0243 14.85L17.6743 15.48C17.3543 15.84 16.9643 16.1133 16.5043 16.3C16.0509 16.4867 15.5509 16.58 15.0043 16.58ZM20.7598 16.56C20.2265 16.56 19.7531 16.4433 19.3398 16.21C18.9265 15.9767 18.5998 15.6567 18.3598 15.25C18.1198 14.8367 17.9998 14.37 17.9998 13.85C17.9998 13.3233 18.1198 12.8567 18.3598 12.45C18.5998 12.0433 18.9265 11.7267 19.3398 11.5C19.7531 11.2667 20.2265 11.15 20.7598 11.15C21.2865 11.15 21.7565 11.2667 22.1698 11.5C22.5898 11.7267 22.9165 12.0433 23.1498 12.45C23.3898 12.85 23.5098 13.3167 23.5098 13.85C23.5098 14.3767 23.3898 14.8433 23.1498 15.25C22.9165 15.6567 22.5898 15.9767 22.1698 16.21C21.7565 16.4433 21.2865 16.56 20.7598 16.56ZM20.7598 15.72C21.0998 15.72 21.4031 15.6433 21.6698 15.49C21.9431 15.3367 22.1565 15.12 22.3098 14.84C22.4631 14.5533 22.5398 14.2233 22.5398 13.85C22.5398 13.47 22.4631 13.1433 22.3098 12.87C22.1565 12.59 21.9431 12.3733 21.6698 12.22C21.4031 12.0667 21.0998 11.99 20.7598 11.99C20.4198 11.99 20.1165 12.0667 19.8498 12.22C19.5831 12.3733 19.3698 12.59 19.2098 12.87C19.0498 13.1433 18.9698 13.47 18.9698 13.85C18.9698 14.2233 19.0498 14.5533 19.2098 14.84C19.3698 15.12 19.5831 15.3367 19.8498 15.49C20.1165 15.6433 20.4198 15.72 20.7598 15.72ZM31.2211 11.15C31.6477 11.15 32.0244 11.2333 32.3511 11.4C32.6777 11.5667 32.9311 11.82 33.1111 12.16C33.2977 12.5 33.3911 12.93 33.3911 13.45V16.5H32.4311V13.56C32.4311 13.0467 32.3111 12.66 32.0711 12.4C31.8311 12.14 31.4944 12.01 31.0611 12.01C30.7411 12.01 30.4611 12.0767 30.2211 12.21C29.9811 12.3433 29.7944 12.54 29.6611 12.8C29.5344 13.06 29.4711 13.3833 29.4711 13.77V16.5H28.5111V13.56C28.5111 13.0467 28.3911 12.66 28.1511 12.4C27.9177 12.14 27.5811 12.01 27.1411 12.01C26.8277 12.01 26.5511 12.0767 26.3111 12.21C26.0711 12.3433 25.8844 12.54 25.7511 12.8C25.6177 13.06 25.5511 13.3833 25.5511 13.77V16.5H24.5911V11.2H25.5111V12.61L25.3611 12.25C25.5277 11.9033 25.7844 11.6333 26.1311 11.44C26.4777 11.2467 26.8811 11.15 27.3411 11.15C27.8477 11.15 28.2844 11.2767 28.6511 11.53C29.0177 11.7767 29.2577 12.1533 29.3711 12.66L28.9811 12.5C29.1411 12.0933 29.4211 11.7667 29.8211 11.52C30.2211 11.2733 30.6877 11.15 31.2211 11.15ZM37.7211 16.56C37.2811 16.56 36.8777 16.46 36.5111 16.26C36.1511 16.0533 35.8611 15.75 35.6411 15.35C35.4277 14.95 35.3211 14.45 35.3211 13.85C35.3211 13.25 35.4244 12.75 35.6311 12.35C35.8444 11.95 36.1311 11.65 36.4911 11.45C36.8577 11.25 37.2677 11.15 37.7211 11.15C38.2411 11.15 38.7011 11.2633 39.1011 11.49C39.5011 11.7167 39.8177 12.0333 40.0511 12.44C40.2844 12.84 40.4011 13.31 40.4011 13.85C40.4011 14.39 40.2844 14.8633 40.0511 15.27C39.8177 15.6767 39.5011 15.9933 39.1011 16.22C38.7011 16.4467 38.2411 16.56 37.7211 16.56ZM34.9111 18.44V11.2H35.8311V12.63L35.7711 13.86L35.8711 15.09V18.44H34.9111ZM37.6411 15.72C37.9811 15.72 38.2844 15.6433 38.5511 15.49C38.8244 15.3367 39.0377 15.12 39.1911 14.84C39.3511 14.5533 39.4311 14.2233 39.4311 13.85C39.4311 13.47 39.3511 13.1433 39.1911 12.87C39.0377 12.59 38.8244 12.3733 38.5511 12.22C38.2844 12.0667 37.9811 11.99 37.6411 11.99C37.3077 11.99 37.0044 12.0667 36.7311 12.22C36.4644 12.3733 36.2511 12.59 36.0911 12.87C35.9377 13.1433 35.8611 13.47 35.8611 13.85C35.8611 14.2233 35.9377 14.5533 36.0911 14.84C36.2511 15.12 36.4644 15.3367 36.7311 15.49C37.0044 15.6433 37.3077 15.72 37.6411 15.72ZM41.4811 16.5V9.08H42.4411V16.5H41.4811ZM46.3876 16.56C45.821 16.56 45.321 16.4433 44.8876 16.21C44.461 15.9767 44.1276 15.6567 43.8876 15.25C43.6543 14.8433 43.5376 14.3767 43.5376 13.85C43.5376 13.3233 43.651 12.8567 43.8776 12.45C44.111 12.0433 44.4276 11.7267 44.8276 11.5C45.2343 11.2667 45.691 11.15 46.1976 11.15C46.711 11.15 47.1643 11.2633 47.5576 11.49C47.951 11.7167 48.2576 12.0367 48.4776 12.45C48.7043 12.8567 48.8176 13.3333 48.8176 13.88C48.8176 13.92 48.8143 13.9667 48.8076 14.02C48.8076 14.0733 48.8043 14.1233 48.7976 14.17H44.2876V13.48H48.2976L47.9076 13.72C47.9143 13.38 47.8443 13.0767 47.6976 12.81C47.551 12.5433 47.3476 12.3367 47.0876 12.19C46.8343 12.0367 46.5376 11.96 46.1976 11.96C45.8643 11.96 45.5676 12.0367 45.3076 12.19C45.0476 12.3367 44.8443 12.5467 44.6976 12.82C44.551 13.0867 44.4776 13.3933 44.4776 13.74V13.9C44.4776 14.2533 44.5576 14.57 44.7176 14.85C44.8843 15.1233 45.1143 15.3367 45.4076 15.49C45.701 15.6433 46.0376 15.72 46.4176 15.72C46.731 15.72 47.0143 15.6667 47.2676 15.56C47.5276 15.4533 47.7543 15.2933 47.9476 15.08L48.4776 15.7C48.2376 15.98 47.9376 16.1933 47.5776 16.34C47.2243 16.4867 46.8276 16.56 46.3876 16.56ZM51.7243 16.56C51.191 16.56 50.7776 16.4167 50.4843 16.13C50.191 15.8433 50.0443 15.4333 50.0443 14.9V10.04H51.0043V14.86C51.0043 15.1467 51.0743 15.3667 51.2143 15.52C51.361 15.6733 51.5676 15.75 51.8343 15.75C52.1343 15.75 52.3843 15.6667 52.5843 15.5L52.8843 16.19C52.7376 16.3167 52.561 16.41 52.3543 16.47C52.1543 16.53 51.9443 16.56 51.7243 16.56ZM49.1443 11.99V11.2H52.5243V11.99H49.1443ZM55.9827 16.56C55.4161 16.56 54.9161 16.4433 54.4827 16.21C54.0561 15.9767 53.7227 15.6567 53.4827 15.25C53.2494 14.8433 53.1327 14.3767 53.1327 13.85C53.1327 13.3233 53.2461 12.8567 53.4727 12.45C53.7061 12.0433 54.0227 11.7267 54.4227 11.5C54.8294 11.2667 55.2861 11.15 55.7927 11.15C56.3061 11.15 56.7594 11.2633 57.1527 11.49C57.5461 11.7167 57.8527 12.0367 58.0727 12.45C58.2994 12.8567 58.4127 13.3333 58.4127 13.88C58.4127 13.92 58.4094 13.9667 58.4027 14.02C58.4027 14.0733 58.3994 14.1233 58.3927 14.17H53.8827V13.48H57.8927L57.5027 13.72C57.5094 13.38 57.4394 13.0767 57.2927 12.81C57.1461 12.5433 56.9427 12.3367 56.6827 12.19C56.4294 12.0367 56.1327 11.96 55.7927 11.96C55.4594 11.96 55.1627 12.0367 54.9027 12.19C54.6427 12.3367 54.4394 12.5467 54.2927 12.82C54.1461 13.0867 54.0727 13.3933 54.0727 13.74V13.9C54.0727 14.2533 54.1527 14.57 54.3127 14.85C54.4794 15.1233 54.7094 15.3367 55.0027 15.49C55.2961 15.6433 55.6327 15.72 56.0127 15.72C56.3261 15.72 56.6094 15.6667 56.8627 15.56C57.1227 15.4533 57.3494 15.2933 57.5427 15.08L58.0727 15.7C57.8327 15.98 57.5327 16.1933 57.1727 16.34C56.8194 16.4867 56.4227 16.56 55.9827 16.56ZM63.7585 16.56C63.2252 16.56 62.8119 16.4167 62.5185 16.13C62.2252 15.8433 62.0785 15.4333 62.0785 14.9V10.04H63.0385V14.86C63.0385 15.1467 63.1085 15.3667 63.2485 15.52C63.3952 15.6733 63.6019 15.75 63.8685 15.75C64.1685 15.75 64.4185 15.6667 64.6185 15.5L64.9185 16.19C64.7719 16.3167 64.5952 16.41 64.3885 16.47C64.1885 16.53 63.9785 16.56 63.7585 16.56ZM61.1785 11.99V11.2H64.5585V11.99H61.1785ZM69.1228 16.5V15.38L69.0728 15.17V13.26C69.0728 12.8533 68.9528 12.54 68.7128 12.32C68.4794 12.0933 68.1261 11.98 67.6528 11.98C67.3394 11.98 67.0328 12.0333 66.7328 12.14C66.4328 12.24 66.1794 12.3767 65.9728 12.55L65.5728 11.83C65.8461 11.61 66.1728 11.4433 66.5528 11.33C66.9394 11.21 67.3428 11.15 67.7628 11.15C68.4894 11.15 69.0494 11.3267 69.4428 11.68C69.8361 12.0333 70.0328 12.5733 70.0328 13.3V16.5H69.1228ZM67.3828 16.56C66.9894 16.56 66.6428 16.4933 66.3428 16.36C66.0494 16.2267 65.8228 16.0433 65.6628 15.81C65.5028 15.57 65.4228 15.3 65.4228 15C65.4228 14.7133 65.4894 14.4533 65.6228 14.22C65.7628 13.9867 65.9861 13.8 66.2928 13.66C66.6061 13.52 67.0261 13.45 67.5528 13.45H69.2328V14.14H67.5928C67.1128 14.14 66.7894 14.22 66.6228 14.38C66.4561 14.54 66.3728 14.7333 66.3728 14.96C66.3728 15.22 66.4761 15.43 66.6828 15.59C66.8894 15.7433 67.1761 15.82 67.5428 15.82C67.9028 15.82 68.2161 15.74 68.4828 15.58C68.7561 15.42 68.9528 15.1867 69.0728 14.88L69.2628 15.54C69.1361 15.8533 68.9128 16.1033 68.5928 16.29C68.2728 16.47 67.8694 16.56 67.3828 16.56ZM73.0829 16.56C72.6429 16.56 72.2229 16.5 71.8229 16.38C71.4296 16.26 71.1196 16.1133 70.8929 15.94L71.2929 15.18C71.5196 15.3333 71.7996 15.4633 72.1329 15.57C72.4663 15.6767 72.8063 15.73 73.1529 15.73C73.5996 15.73 73.9196 15.6667 74.1129 15.54C74.3129 15.4133 74.4129 15.2367 74.4129 15.01C74.4129 14.8433 74.3529 14.7133 74.2329 14.62C74.1129 14.5267 73.9529 14.4567 73.7529 14.41C73.5596 14.3633 73.3429 14.3233 73.1029 14.29C72.8629 14.25 72.6229 14.2033 72.3829 14.15C72.1429 14.09 71.9229 14.01 71.7229 13.91C71.5229 13.8033 71.3629 13.66 71.2429 13.48C71.1229 13.2933 71.0629 13.0467 71.0629 12.74C71.0629 12.42 71.1529 12.14 71.3329 11.9C71.5129 11.66 71.7663 11.4767 72.0929 11.35C72.4263 11.2167 72.8196 11.15 73.2729 11.15C73.6196 11.15 73.9696 11.1933 74.3229 11.28C74.6829 11.36 74.9763 11.4767 75.2029 11.63L74.7929 12.39C74.5529 12.23 74.3029 12.12 74.0429 12.06C73.7829 12 73.5229 11.97 73.2629 11.97C72.8429 11.97 72.5296 12.04 72.3229 12.18C72.1163 12.3133 72.0129 12.4867 72.0129 12.7C72.0129 12.88 72.0729 13.02 72.1929 13.12C72.3196 13.2133 72.4796 13.2867 72.6729 13.34C72.8729 13.3933 73.0929 13.44 73.3329 13.48C73.5729 13.5133 73.8129 13.56 74.0529 13.62C74.2929 13.6733 74.5096 13.75 74.7029 13.85C74.9029 13.95 75.0629 14.09 75.1829 14.27C75.3096 14.45 75.3729 14.69 75.3729 14.99C75.3729 15.31 75.2796 15.5867 75.0929 15.82C74.9063 16.0533 74.6429 16.2367 74.3029 16.37C73.9629 16.4967 73.5563 16.56 73.0829 16.56ZM77.1063 15.22L77.1263 13.99L80.1763 11.2H81.3363L78.9963 13.5L78.4763 13.94L77.1063 15.22ZM76.3263 16.5V9.08H77.2863V16.5H76.3263ZM80.3763 16.5L78.2963 13.92L78.9163 13.15L81.5563 16.5H80.3763ZM83.596 16.56C83.156 16.56 82.736 16.5 82.336 16.38C81.9426 16.26 81.6326 16.1133 81.406 15.94L81.806 15.18C82.0326 15.3333 82.3126 15.4633 82.646 15.57C82.9793 15.6767 83.3193 15.73 83.666 15.73C84.1126 15.73 84.4326 15.6667 84.626 15.54C84.826 15.4133 84.926 15.2367 84.926 15.01C84.926 14.8433 84.866 14.7133 84.746 14.62C84.626 14.5267 84.466 14.4567 84.266 14.41C84.0726 14.3633 83.856 14.3233 83.616 14.29C83.376 14.25 83.136 14.2033 82.896 14.15C82.656 14.09 82.436 14.01 82.236 13.91C82.036 13.8033 81.876 13.66 81.756 13.48C81.636 13.2933 81.576 13.0467 81.576 12.74C81.576 12.42 81.666 12.14 81.846 11.9C82.026 11.66 82.2793 11.4767 82.606 11.35C82.9393 11.2167 83.3326 11.15 83.786 11.15C84.1326 11.15 84.4826 11.1933 84.836 11.28C85.196 11.36 85.4893 11.4767 85.716 11.63L85.306 12.39C85.066 12.23 84.816 12.12 84.556 12.06C84.296 12 84.036 11.97 83.776 11.97C83.356 11.97 83.0426 12.04 82.836 12.18C82.6293 12.3133 82.526 12.4867 82.526 12.7C82.526 12.88 82.586 13.02 82.706 13.12C82.8326 13.2133 82.9926 13.2867 83.186 13.34C83.386 13.3933 83.606 13.44 83.846 13.48C84.086 13.5133 84.326 13.56 84.566 13.62C84.806 13.6733 85.0226 13.75 85.216 13.85C85.416 13.95 85.576 14.09 85.696 14.27C85.8226 14.45 85.886 14.69 85.886 14.99C85.886 15.31 85.7926 15.5867 85.606 15.82C85.4193 16.0533 85.156 16.2367 84.816 16.37C84.476 16.4967 84.0693 16.56 83.596 16.56Z" fill="white"/>
</svg>
