<svg width="156" height="48" viewBox="0 0 156 48" fill="none" xmlns="http://www.w3.org/2000/svg">
<rect width="156" height="48" rx="10" fill="#161C2D"/>
<path d="M36.904 30V20.192H33.064V18.8H42.328V20.192H38.488V30H36.904ZM48.329 30V28.208L48.249 27.872V24.816C48.249 24.1653 48.057 23.664 47.673 23.312C47.2996 22.9493 46.7343 22.768 45.977 22.768C45.4756 22.768 44.985 22.8533 44.505 23.024C44.025 23.184 43.6196 23.4027 43.289 23.68L42.649 22.528C43.0863 22.176 43.609 21.9093 44.217 21.728C44.8356 21.536 45.481 21.44 46.153 21.44C47.3156 21.44 48.2116 21.7227 48.841 22.288C49.4703 22.8533 49.785 23.7173 49.785 24.88V30H48.329ZM45.545 30.096C44.9156 30.096 44.361 29.9893 43.881 29.776C43.4116 29.5627 43.049 29.2693 42.793 28.896C42.537 28.512 42.409 28.08 42.409 27.6C42.409 27.1413 42.5156 26.7253 42.729 26.352C42.953 25.9787 43.3103 25.68 43.801 25.456C44.3023 25.232 44.9743 25.12 45.817 25.12H48.505V26.224H45.881C45.113 26.224 44.5956 26.352 44.329 26.608C44.0623 26.864 43.929 27.1733 43.929 27.536C43.929 27.952 44.0943 28.288 44.425 28.544C44.7556 28.7893 45.2143 28.912 45.801 28.912C46.377 28.912 46.8783 28.784 47.305 28.528C47.7423 28.272 48.057 27.8987 48.249 27.408L48.553 28.464C48.3503 28.9653 47.993 29.3653 47.481 29.664C46.969 29.952 46.3236 30.096 45.545 30.096ZM56.7949 30.096C56.0909 30.096 55.4456 29.936 54.8589 29.616C54.2829 29.2853 53.8189 28.8 53.4669 28.16C53.1256 27.52 52.9549 26.72 52.9549 25.76C52.9549 24.8 53.1203 24 53.4509 23.36C53.7923 22.72 54.2509 22.24 54.8269 21.92C55.4136 21.6 56.0696 21.44 56.7949 21.44C57.6269 21.44 58.3629 21.6213 59.0029 21.984C59.6429 22.3467 60.1496 22.8533 60.5229 23.504C60.8963 24.144 61.0829 24.896 61.0829 25.76C61.0829 26.624 60.8963 27.3813 60.5229 28.032C60.1496 28.6827 59.6429 29.1893 59.0029 29.552C58.3629 29.9147 57.6269 30.096 56.7949 30.096ZM52.2989 33.104V21.52H53.7709V23.808L53.6749 25.776L53.8349 27.744V33.104H52.2989ZM56.6669 28.752C57.2109 28.752 57.6963 28.6293 58.1229 28.384C58.5603 28.1387 58.9016 27.792 59.1469 27.344C59.4029 26.8853 59.5309 26.3573 59.5309 25.76C59.5309 25.152 59.4029 24.6293 59.1469 24.192C58.9016 23.744 58.5603 23.3973 58.1229 23.152C57.6963 22.9067 57.2109 22.784 56.6669 22.784C56.1336 22.784 55.6483 22.9067 55.2109 23.152C54.7843 23.3973 54.4429 23.744 54.1869 24.192C53.9416 24.6293 53.8189 25.152 53.8189 25.76C53.8189 26.3573 53.9416 26.8853 54.1869 27.344C54.4429 27.792 54.7843 28.1387 55.2109 28.384C55.6483 28.6293 56.1336 28.752 56.6669 28.752ZM69.757 30.096C68.9037 30.096 68.2423 29.8667 67.773 29.408C67.3037 28.9493 67.069 28.2933 67.069 27.44V19.664H68.605V27.376C68.605 27.8347 68.717 28.1867 68.941 28.432C69.1757 28.6773 69.5063 28.8 69.933 28.8C70.413 28.8 70.813 28.6667 71.133 28.4L71.613 29.504C71.3783 29.7067 71.0957 29.856 70.765 29.952C70.445 30.048 70.109 30.096 69.757 30.096ZM65.629 22.784V21.52H71.037V22.784H65.629ZM76.4922 30.096C75.6389 30.096 74.8815 29.9093 74.2202 29.536C73.5589 29.1627 73.0362 28.6507 72.6522 28C72.2682 27.3387 72.0762 26.592 72.0762 25.76C72.0762 24.9173 72.2682 24.1707 72.6522 23.52C73.0362 22.8693 73.5589 22.3627 74.2202 22C74.8815 21.6267 75.6389 21.44 76.4922 21.44C77.3349 21.44 78.0869 21.6267 78.7482 22C79.4202 22.3627 79.9429 22.8693 80.3162 23.52C80.7002 24.16 80.8922 24.9067 80.8922 25.76C80.8922 26.6027 80.7002 27.3493 80.3162 28C79.9429 28.6507 79.4202 29.1627 78.7482 29.536C78.0869 29.9093 77.3349 30.096 76.4922 30.096ZM76.4922 28.752C77.0362 28.752 77.5215 28.6293 77.9482 28.384C78.3855 28.1387 78.7269 27.792 78.9722 27.344C79.2175 26.8853 79.3402 26.3573 79.3402 25.76C79.3402 25.152 79.2175 24.6293 78.9722 24.192C78.7269 23.744 78.3855 23.3973 77.9482 23.152C77.5215 22.9067 77.0362 22.784 76.4922 22.784C75.9482 22.784 75.4629 22.9067 75.0362 23.152C74.6095 23.3973 74.2682 23.744 74.0122 24.192C73.7562 24.6293 73.6282 25.152 73.6282 25.76C73.6282 26.3573 73.7562 26.8853 74.0122 27.344C74.2682 27.792 74.6095 28.1387 75.0362 28.384C75.4629 28.6293 75.9482 28.752 76.4922 28.752ZM90.3523 30.096C89.4883 30.096 88.7149 29.9093 88.0323 29.536C87.3603 29.1627 86.8323 28.6507 86.4483 28C86.0643 27.3493 85.8723 26.6027 85.8723 25.76C85.8723 24.9173 86.0643 24.1707 86.4483 23.52C86.8323 22.8693 87.3603 22.3627 88.0323 22C88.7149 21.6267 89.4883 21.44 90.3523 21.44C91.1203 21.44 91.8029 21.5947 92.4003 21.904C93.0083 22.2027 93.4776 22.6507 93.8083 23.248L92.6403 24C92.3629 23.584 92.0216 23.28 91.6163 23.088C91.2216 22.8853 90.7949 22.784 90.3363 22.784C89.7816 22.784 89.2856 22.9067 88.8483 23.152C88.4109 23.3973 88.0643 23.744 87.8083 24.192C87.5523 24.6293 87.4243 25.152 87.4243 25.76C87.4243 26.368 87.5523 26.896 87.8083 27.344C88.0643 27.792 88.4109 28.1387 88.8483 28.384C89.2856 28.6293 89.7816 28.752 90.3363 28.752C90.7949 28.752 91.2216 28.656 91.6163 28.464C92.0216 28.2613 92.3629 27.952 92.6403 27.536L93.8083 28.272C93.4776 28.8587 93.0083 29.312 92.4003 29.632C91.8029 29.9413 91.1203 30.096 90.3523 30.096ZM98.9754 30.096C98.122 30.096 97.3647 29.9093 96.7034 29.536C96.042 29.1627 95.5194 28.6507 95.1354 28C94.7514 27.3387 94.5594 26.592 94.5594 25.76C94.5594 24.9173 94.7514 24.1707 95.1354 23.52C95.5194 22.8693 96.042 22.3627 96.7034 22C97.3647 21.6267 98.122 21.44 98.9754 21.44C99.818 21.44 100.57 21.6267 101.231 22C101.903 22.3627 102.426 22.8693 102.799 23.52C103.183 24.16 103.375 24.9067 103.375 25.76C103.375 26.6027 103.183 27.3493 102.799 28C102.426 28.6507 101.903 29.1627 101.231 29.536C100.57 29.9093 99.818 30.096 98.9754 30.096ZM98.9754 28.752C99.5194 28.752 100.005 28.6293 100.431 28.384C100.869 28.1387 101.21 27.792 101.455 27.344C101.701 26.8853 101.823 26.3573 101.823 25.76C101.823 25.152 101.701 24.6293 101.455 24.192C101.21 23.744 100.869 23.3973 100.431 23.152C100.005 22.9067 99.5194 22.784 98.9754 22.784C98.4314 22.784 97.946 22.9067 97.5194 23.152C97.0927 23.3973 96.7514 23.744 96.4954 24.192C96.2394 24.6293 96.1114 25.152 96.1114 25.76C96.1114 26.3573 96.2394 26.8853 96.4954 27.344C96.7514 27.792 97.0927 28.1387 97.5194 28.384C97.946 28.6293 98.4314 28.752 98.9754 28.752ZM109.667 30.096C108.963 30.096 108.318 29.936 107.731 29.616C107.155 29.2853 106.691 28.8 106.339 28.16C105.998 27.52 105.827 26.72 105.827 25.76C105.827 24.8 105.992 24 106.323 23.36C106.664 22.72 107.123 22.24 107.699 21.92C108.286 21.6 108.942 21.44 109.667 21.44C110.499 21.44 111.235 21.6213 111.875 21.984C112.515 22.3467 113.022 22.8533 113.395 23.504C113.768 24.144 113.955 24.896 113.955 25.76C113.955 26.624 113.768 27.3813 113.395 28.032C113.022 28.6827 112.515 29.1893 111.875 29.552C111.235 29.9147 110.499 30.096 109.667 30.096ZM105.171 33.104V21.52H106.643V23.808L106.547 25.776L106.707 27.744V33.104H105.171ZM109.539 28.752C110.083 28.752 110.568 28.6293 110.995 28.384C111.432 28.1387 111.774 27.792 112.019 27.344C112.275 26.8853 112.403 26.3573 112.403 25.76C112.403 25.152 112.275 24.6293 112.019 24.192C111.774 23.744 111.432 23.3973 110.995 23.152C110.568 22.9067 110.083 22.784 109.539 22.784C109.006 22.784 108.52 22.9067 108.083 23.152C107.656 23.3973 107.315 23.744 107.059 24.192C106.814 24.6293 106.691 25.152 106.691 25.76C106.691 26.3573 106.814 26.8853 107.059 27.344C107.315 27.792 107.656 28.1387 108.083 28.384C108.52 28.6293 109.006 28.752 109.539 28.752ZM115.882 33.2C115.477 33.2 115.082 33.1307 114.698 32.992C114.314 32.864 113.984 32.672 113.706 32.416L114.362 31.264C114.576 31.4667 114.81 31.6213 115.066 31.728C115.322 31.8347 115.594 31.888 115.882 31.888C116.256 31.888 116.565 31.792 116.81 31.6C117.056 31.408 117.285 31.0667 117.498 30.576L118.026 29.408L118.186 29.216L121.514 21.52H123.018L118.906 30.848C118.661 31.4453 118.384 31.9147 118.074 32.256C117.776 32.5973 117.445 32.8373 117.082 32.976C116.72 33.1253 116.32 33.2 115.882 33.2ZM117.898 30.272L114.026 21.52H115.626L118.922 29.072L117.898 30.272Z" fill="white"/>
</svg>
