<svg width="107" height="31" viewBox="0 0 107 31" fill="none" xmlns="http://www.w3.org/2000/svg">
<rect y="0.541992" width="107" height="30" rx="5" fill="#161C2D"/>
<path d="M38.416 20.542V11.96H35.056V10.742H43.162V11.96H39.802V20.542H38.416ZM48.4539 20.542V18.974L48.3839 18.68V16.006C48.3839 15.4367 48.2159 14.998 47.8799 14.69C47.5532 14.3727 47.0586 14.214 46.3959 14.214C45.9572 14.214 45.5279 14.2887 45.1079 14.438C44.6879 14.578 44.3332 14.7693 44.0439 15.012L43.4839 14.004C43.8666 13.696 44.3239 13.4627 44.8559 13.304C45.3972 13.136 45.9619 13.052 46.5499 13.052C47.5672 13.052 48.3512 13.2993 48.9019 13.794C49.4526 14.2887 49.7279 15.0447 49.7279 16.062V20.542H48.4539ZM46.0179 20.626C45.4672 20.626 44.9819 20.5327 44.5619 20.346C44.1512 20.1593 43.8339 19.9027 43.6099 19.576C43.3859 19.24 43.2739 18.862 43.2739 18.442C43.2739 18.0407 43.3672 17.6767 43.5539 17.35C43.7499 17.0233 44.0626 16.762 44.4919 16.566C44.9306 16.37 45.5186 16.272 46.2559 16.272H48.6079V17.238H46.3119C45.6399 17.238 45.1872 17.35 44.9539 17.574C44.7206 17.798 44.6039 18.0687 44.6039 18.386C44.6039 18.75 44.7486 19.044 45.0379 19.268C45.3272 19.4827 45.7286 19.59 46.2419 19.59C46.7459 19.59 47.1846 19.478 47.5579 19.254C47.9406 19.03 48.2159 18.7033 48.3839 18.274L48.6499 19.198C48.4726 19.6367 48.1599 19.9867 47.7119 20.248C47.2639 20.5 46.6992 20.626 46.0179 20.626ZM54.0967 20.626C53.4807 20.626 52.8927 20.542 52.3327 20.374C51.782 20.206 51.348 20.0007 51.0307 19.758L51.5907 18.694C51.908 18.9087 52.3 19.0907 52.7667 19.24C53.2334 19.3893 53.7094 19.464 54.1947 19.464C54.82 19.464 55.268 19.3753 55.5387 19.198C55.8187 19.0207 55.9587 18.7733 55.9587 18.456C55.9587 18.2227 55.8747 18.0407 55.7067 17.91C55.5387 17.7793 55.3147 17.6813 55.0347 17.616C54.764 17.5507 54.4607 17.4947 54.1247 17.448C53.7887 17.392 53.4527 17.3267 53.1167 17.252C52.7807 17.168 52.4727 17.056 52.1927 16.916C51.9127 16.7667 51.6887 16.566 51.5207 16.314C51.3527 16.0527 51.2687 15.7073 51.2687 15.278C51.2687 14.83 51.3947 14.438 51.6467 14.102C51.8987 13.766 52.2534 13.5093 52.7107 13.332C53.1774 13.1453 53.728 13.052 54.3627 13.052C54.848 13.052 55.338 13.1127 55.8327 13.234C56.3367 13.346 56.7474 13.5093 57.0647 13.724L56.4907 14.788C56.1547 14.564 55.8047 14.41 55.4407 14.326C55.0767 14.242 54.7127 14.2 54.3487 14.2C53.7607 14.2 53.322 14.298 53.0327 14.494C52.7434 14.6807 52.5987 14.9233 52.5987 15.222C52.5987 15.474 52.6827 15.67 52.8507 15.81C53.028 15.9407 53.252 16.0433 53.5227 16.118C53.8027 16.1927 54.1107 16.258 54.4467 16.314C54.7827 16.3607 55.1187 16.426 55.4547 16.51C55.7907 16.5847 56.094 16.692 56.3647 16.832C56.6447 16.972 56.8687 17.168 57.0367 17.42C57.214 17.672 57.3027 18.008 57.3027 18.428C57.3027 18.876 57.172 19.2633 56.9107 19.59C56.6494 19.9167 56.2807 20.1733 55.8047 20.36C55.3287 20.5373 54.7594 20.626 54.0967 20.626ZM59.828 18.75L59.856 17.028L64.126 13.122H65.75L62.474 16.342L61.746 16.958L59.828 18.75ZM58.736 20.542V10.154H60.08V20.542H58.736ZM64.406 20.542L61.494 16.93L62.362 15.852L66.058 20.542H64.406ZM69.0121 20.626C68.3961 20.626 67.8081 20.542 67.2481 20.374C66.6974 20.206 66.2634 20.0007 65.9461 19.758L66.5061 18.694C66.8234 18.9087 67.2154 19.0907 67.6821 19.24C68.1488 19.3893 68.6248 19.464 69.1101 19.464C69.7354 19.464 70.1834 19.3753 70.4541 19.198C70.7341 19.0207 70.8741 18.7733 70.8741 18.456C70.8741 18.2227 70.7901 18.0407 70.6221 17.91C70.4541 17.7793 70.2301 17.6813 69.9501 17.616C69.6794 17.5507 69.3761 17.4947 69.0401 17.448C68.7041 17.392 68.3681 17.3267 68.0321 17.252C67.6961 17.168 67.3881 17.056 67.1081 16.916C66.8281 16.7667 66.6041 16.566 66.4361 16.314C66.2681 16.0527 66.1841 15.7073 66.1841 15.278C66.1841 14.83 66.3101 14.438 66.5621 14.102C66.8141 13.766 67.1688 13.5093 67.6261 13.332C68.0928 13.1453 68.6434 13.052 69.2781 13.052C69.7634 13.052 70.2534 13.1127 70.7481 13.234C71.2521 13.346 71.6628 13.5093 71.9801 13.724L71.4061 14.788C71.0701 14.564 70.7201 14.41 70.3561 14.326C69.9921 14.242 69.6281 14.2 69.2641 14.2C68.6761 14.2 68.2374 14.298 67.9481 14.494C67.6588 14.6807 67.5141 14.9233 67.5141 15.222C67.5141 15.474 67.5981 15.67 67.7661 15.81C67.9434 15.9407 68.1674 16.0433 68.4381 16.118C68.7181 16.1927 69.0261 16.258 69.3621 16.314C69.6981 16.3607 70.0341 16.426 70.3701 16.51C70.7061 16.5847 71.0094 16.692 71.2801 16.832C71.5601 16.972 71.7841 17.168 71.9521 17.42C72.1294 17.672 72.2181 18.008 72.2181 18.428C72.2181 18.876 72.0874 19.2633 71.8261 19.59C71.5648 19.9167 71.1961 20.1733 70.7201 20.36C70.2441 20.5373 69.6748 20.626 69.0121 20.626Z" fill="white"/>
</svg>
