<svg width="156" height="48" viewBox="0 0 156 48" fill="none" xmlns="http://www.w3.org/2000/svg">
<rect width="156" height="48" rx="10" fill="white"/>
<path d="M53.368 30L49.592 18.8H50.808L54.344 29.344H53.736L57.384 18.8H58.472L62.072 29.344H61.496L65.064 18.8H66.2L62.424 30H61.176L57.736 20H58.056L54.6 30H53.368ZM72.3247 21.52C73.0074 21.52 73.6047 21.6533 74.1167 21.92C74.6394 22.176 75.0447 22.5707 75.3327 23.104C75.6314 23.6373 75.7807 24.3093 75.7807 25.12V30H74.6447V25.232C74.6447 24.3467 74.4207 23.68 73.9727 23.232C73.5354 22.7733 72.9167 22.544 72.1167 22.544C71.5194 22.544 70.9967 22.6667 70.5487 22.912C70.1114 23.1467 69.7701 23.4933 69.5247 23.952C69.2901 24.4 69.1727 24.944 69.1727 25.584V30H68.0367V18.128H69.1727V23.904L68.9487 23.472C69.2154 22.864 69.6421 22.3893 70.2287 22.048C70.8154 21.696 71.5141 21.52 72.3247 21.52ZM83.7847 30V28.144L83.7367 27.84V24.736C83.7367 24.0213 83.534 23.472 83.1287 23.088C82.734 22.704 82.142 22.512 81.3527 22.512C80.8087 22.512 80.2914 22.6027 79.8007 22.784C79.31 22.9653 78.894 23.2053 78.5527 23.504L78.0407 22.656C78.4674 22.2933 78.9794 22.016 79.5767 21.824C80.174 21.6213 80.8034 21.52 81.4647 21.52C82.5527 21.52 83.39 21.792 83.9767 22.336C84.574 22.8693 84.8727 23.6853 84.8727 24.784V30H83.7847ZM80.8887 30.08C80.2594 30.08 79.71 29.9787 79.2407 29.776C78.782 29.5627 78.43 29.2747 78.1847 28.912C77.9394 28.5387 77.8167 28.112 77.8167 27.632C77.8167 27.1947 77.918 26.8 78.1207 26.448C78.334 26.0853 78.6754 25.7973 79.1447 25.584C79.6247 25.36 80.2647 25.248 81.0647 25.248H83.9607V26.096H81.0967C80.286 26.096 79.7207 26.24 79.4007 26.528C79.0914 26.816 78.9367 27.1733 78.9367 27.6C78.9367 28.08 79.1234 28.464 79.4967 28.752C79.87 29.04 80.3927 29.184 81.0647 29.184C81.7047 29.184 82.254 29.04 82.7127 28.752C83.182 28.4533 83.5234 28.0267 83.7367 27.472L83.9927 28.256C83.7794 28.8107 83.406 29.2533 82.8727 29.584C82.35 29.9147 81.6887 30.08 80.8887 30.08ZM90.2857 30.08C89.4963 30.08 88.8883 29.8667 88.4617 29.44C88.035 29.0133 87.8217 28.4107 87.8217 27.632V19.744H88.9577V27.568C88.9577 28.0587 89.0803 28.4373 89.3257 28.704C89.5817 28.9707 89.9443 29.104 90.4137 29.104C90.915 29.104 91.331 28.96 91.6617 28.672L92.0617 29.488C91.8377 29.6907 91.5657 29.84 91.2457 29.936C90.9363 30.032 90.6163 30.08 90.2857 30.08ZM86.3177 22.544V21.6H91.5177V22.544H86.3177ZM96.0571 30.08C95.3638 30.08 94.7078 29.984 94.0891 29.792C93.4705 29.5893 92.9851 29.3387 92.6331 29.04L93.1451 28.144C93.4865 28.4 93.9238 28.624 94.4571 28.816C94.9905 28.9973 95.5505 29.088 96.1371 29.088C96.9371 29.088 97.5131 28.9653 97.8651 28.72C98.2171 28.464 98.3931 28.128 98.3931 27.712C98.3931 27.4027 98.2918 27.1627 98.0891 26.992C97.8971 26.8107 97.6411 26.6773 97.3211 26.592C97.0011 26.496 96.6438 26.416 96.2491 26.352C95.8545 26.288 95.4598 26.2133 95.0651 26.128C94.6811 26.0427 94.3291 25.92 94.0091 25.76C93.6891 25.5893 93.4278 25.36 93.2251 25.072C93.0331 24.784 92.9371 24.4 92.9371 23.92C92.9371 23.4613 93.0651 23.0507 93.3211 22.688C93.5771 22.3253 93.9505 22.0427 94.4411 21.84C94.9425 21.6267 95.5505 21.52 96.2651 21.52C96.8091 21.52 97.3531 21.5947 97.8971 21.744C98.4411 21.8827 98.8891 22.0693 99.2411 22.304L98.7451 23.216C98.3718 22.96 97.9718 22.7787 97.5451 22.672C97.1185 22.5547 96.6918 22.496 96.2651 22.496C95.5078 22.496 94.9478 22.6293 94.5851 22.896C94.2331 23.152 94.0571 23.4827 94.0571 23.888C94.0571 24.208 94.1531 24.4587 94.3451 24.64C94.5478 24.8213 94.8091 24.9653 95.1291 25.072C95.4598 25.168 95.8171 25.248 96.2011 25.312C96.5958 25.376 96.9851 25.456 97.3691 25.552C97.7638 25.6373 98.1211 25.76 98.4411 25.92C98.7718 26.0693 99.0331 26.288 99.2251 26.576C99.4278 26.8533 99.5291 27.2213 99.5291 27.68C99.5291 28.1707 99.3905 28.5973 99.1131 28.96C98.8465 29.312 98.4518 29.5893 97.9291 29.792C97.4171 29.984 96.7931 30.08 96.0571 30.08ZM106.549 30V28.144L106.501 27.84V24.736C106.501 24.0213 106.298 23.472 105.893 23.088C105.498 22.704 104.906 22.512 104.117 22.512C103.573 22.512 103.056 22.6027 102.565 22.784C102.074 22.9653 101.658 23.2053 101.317 23.504L100.805 22.656C101.232 22.2933 101.744 22.016 102.341 21.824C102.938 21.6213 103.568 21.52 104.229 21.52C105.317 21.52 106.154 21.792 106.741 22.336C107.338 22.8693 107.637 23.6853 107.637 24.784V30H106.549ZM103.653 30.08C103.024 30.08 102.474 29.9787 102.005 29.776C101.546 29.5627 101.194 29.2747 100.949 28.912C100.704 28.5387 100.581 28.112 100.581 27.632C100.581 27.1947 100.682 26.8 100.885 26.448C101.098 26.0853 101.44 25.7973 101.909 25.584C102.389 25.36 103.029 25.248 103.829 25.248H106.725V26.096H103.861C103.05 26.096 102.485 26.24 102.165 26.528C101.856 26.816 101.701 27.1733 101.701 27.6C101.701 28.08 101.888 28.464 102.261 28.752C102.634 29.04 103.157 29.184 103.829 29.184C104.469 29.184 105.018 29.04 105.477 28.752C105.946 28.4533 106.288 28.0267 106.501 27.472L106.757 28.256C106.544 28.8107 106.17 29.2533 105.637 29.584C105.114 29.9147 104.453 30.08 103.653 30.08ZM114.73 30.08C114.005 30.08 113.349 29.9147 112.762 29.584C112.175 29.2427 111.706 28.7573 111.354 28.128C111.013 27.488 110.842 26.7093 110.842 25.792C110.842 24.8747 111.013 24.1013 111.354 23.472C111.695 22.832 112.159 22.3467 112.746 22.016C113.333 21.6853 113.994 21.52 114.73 21.52C115.53 21.52 116.245 21.7013 116.874 22.064C117.514 22.416 118.015 22.9173 118.378 23.568C118.741 24.208 118.922 24.9493 118.922 25.792C118.922 26.6453 118.741 27.392 118.378 28.032C118.015 28.672 117.514 29.1733 116.874 29.536C116.245 29.8987 115.53 30.08 114.73 30.08ZM110.394 33.104V21.6H111.482V24.128L111.37 25.808L111.53 27.504V33.104H110.394ZM114.65 29.072C115.247 29.072 115.781 28.9387 116.25 28.672C116.719 28.3947 117.093 28.0107 117.37 27.52C117.647 27.0187 117.786 26.4427 117.786 25.792C117.786 25.1413 117.647 24.5707 117.37 24.08C117.093 23.5893 116.719 23.2053 116.25 22.928C115.781 22.6507 115.247 22.512 114.65 22.512C114.053 22.512 113.514 22.6507 113.034 22.928C112.565 23.2053 112.191 23.5893 111.914 24.08C111.647 24.5707 111.514 25.1413 111.514 25.792C111.514 26.4427 111.647 27.0187 111.914 27.52C112.191 28.0107 112.565 28.3947 113.034 28.672C113.514 28.9387 114.053 29.072 114.65 29.072ZM125.245 30.08C124.52 30.08 123.864 29.9147 123.277 29.584C122.691 29.2427 122.221 28.7573 121.869 28.128C121.528 27.488 121.357 26.7093 121.357 25.792C121.357 24.8747 121.528 24.1013 121.869 23.472C122.211 22.832 122.675 22.3467 123.261 22.016C123.848 21.6853 124.509 21.52 125.245 21.52C126.045 21.52 126.76 21.7013 127.389 22.064C128.029 22.416 128.531 22.9173 128.893 23.568C129.256 24.208 129.437 24.9493 129.437 25.792C129.437 26.6453 129.256 27.392 128.893 28.032C128.531 28.672 128.029 29.1733 127.389 29.536C126.76 29.8987 126.045 30.08 125.245 30.08ZM120.909 33.104V21.6H121.997V24.128L121.885 25.808L122.045 27.504V33.104H120.909ZM125.165 29.072C125.763 29.072 126.296 28.9387 126.765 28.672C127.235 28.3947 127.608 28.0107 127.885 27.52C128.163 27.0187 128.301 26.4427 128.301 25.792C128.301 25.1413 128.163 24.5707 127.885 24.08C127.608 23.5893 127.235 23.2053 126.765 22.928C126.296 22.6507 125.763 22.512 125.165 22.512C124.568 22.512 124.029 22.6507 123.549 22.928C123.08 23.2053 122.707 23.5893 122.429 24.08C122.163 24.5707 122.029 25.1413 122.029 25.792C122.029 26.4427 122.163 27.0187 122.429 27.52C122.707 28.0107 123.08 28.3947 123.549 28.672C124.029 28.9387 124.568 29.072 125.165 29.072Z" fill="black"/>
<g clip-path="url(#clip0_434_8560)">
<path d="M32.253 30.494L32.977 30.917C34.1979 31.6291 35.5866 32.0029 37 32C38.5822 32 40.129 31.5308 41.4446 30.6518C42.7602 29.7727 43.7855 28.5233 44.391 27.0615C44.9965 25.5997 45.155 23.9911 44.8463 22.4393C44.5376 20.8874 43.7757 19.462 42.6569 18.3431C41.538 17.2243 40.1126 16.4624 38.5607 16.1537C37.0089 15.845 35.4003 16.0035 33.9385 16.609C32.4767 17.2145 31.2273 18.2398 30.3482 19.5554C29.4692 20.871 29 22.4177 29 24C29 25.436 29.377 26.813 30.084 28.024L30.506 28.748L29.853 31.149L32.253 30.494ZM27.004 34L28.356 29.032C27.4651 27.5049 26.9971 25.768 27 24C27 18.477 31.477 14 37 14C42.523 14 47 18.477 47 24C47 29.523 42.523 34 37 34C35.2328 34.0029 33.4967 33.5352 31.97 32.645L27.004 34ZM33.391 19.308C33.525 19.298 33.66 19.298 33.794 19.304C33.848 19.308 33.902 19.314 33.956 19.32C34.115 19.338 34.29 19.435 34.349 19.569C34.647 20.245 34.937 20.926 35.217 21.609C35.279 21.761 35.242 21.956 35.124 22.146C35.0428 22.2745 34.9551 22.3986 34.861 22.518C34.748 22.663 34.505 22.929 34.505 22.929C34.505 22.929 34.406 23.047 34.444 23.194C34.458 23.25 34.504 23.331 34.546 23.399L34.605 23.494C34.861 23.921 35.205 24.354 35.625 24.762C35.745 24.878 35.862 24.997 35.988 25.108C36.456 25.521 36.986 25.858 37.558 26.108L37.563 26.11C37.648 26.147 37.691 26.167 37.815 26.22C37.877 26.246 37.941 26.269 38.006 26.286C38.0732 26.3031 38.1439 26.2999 38.2092 26.2767C38.2746 26.2536 38.3316 26.2116 38.373 26.156C39.097 25.279 39.163 25.222 39.169 25.222V25.224C39.2193 25.1771 39.2791 25.1415 39.3442 25.1196C39.4094 25.0977 39.4786 25.09 39.547 25.097C39.607 25.101 39.668 25.112 39.724 25.137C40.255 25.38 41.124 25.759 41.124 25.759L41.706 26.02C41.804 26.067 41.893 26.178 41.896 26.285C41.9 26.352 41.906 26.46 41.883 26.658C41.851 26.917 41.773 27.228 41.695 27.391C41.6416 27.5022 41.5707 27.6042 41.485 27.693C41.3841 27.7989 41.2736 27.8954 41.155 27.981C41.114 28.0119 41.0723 28.0419 41.03 28.071C40.9056 28.1499 40.7778 28.2233 40.647 28.291C40.3895 28.4278 40.1052 28.5063 39.814 28.521C39.629 28.531 39.444 28.545 39.258 28.535C39.25 28.535 38.69 28.448 38.69 28.448C37.2683 28.074 35.9534 27.3735 34.85 26.402C34.624 26.203 34.415 25.989 34.201 25.776C33.311 24.891 32.639 23.936 32.231 23.034C32.0222 22.5913 31.9094 22.1094 31.9 21.62C31.8959 21.0129 32.0943 20.4217 32.464 19.94C32.537 19.846 32.606 19.748 32.725 19.635C32.852 19.515 32.932 19.451 33.019 19.407C33.1347 19.349 33.2609 19.315 33.39 19.307L33.391 19.308Z" fill="#34A853"/>
</g>
<defs>
<clipPath id="clip0_434_8560">
<rect width="24" height="24" fill="white" transform="translate(25 12)"/>
</clipPath>
</defs>
</svg>
