<svg width="15" height="16" viewBox="0 0 15 16" fill="none" xmlns="http://www.w3.org/2000/svg">
<g clip-path="url(#clip0_559_7448)">
<path d="M7.5 15.542C11.6421 15.542 15 12.1841 15 8.04199C15 3.89986 11.6421 0.541992 7.5 0.541992C3.35786 0.541992 0 3.89986 0 8.04199C0 12.1841 3.35786 15.542 7.5 15.542Z" fill="#004CFF"/>
<path fill-rule="evenodd" clip-rule="evenodd" d="M5.41071 5.49731H9.61606C9.77678 5.49731 9.91071 5.5241 10.0714 5.60446C10.2589 5.68481 10.3661 5.81874 10.4196 5.92589C10.4196 5.92589 10.4196 5.95267 10.4464 5.95267C10.5268 6.0866 10.5803 6.24731 10.5803 6.43481C10.5803 6.59553 10.5536 6.75624 10.4464 6.91696L7.79464 11.4705C7.74106 11.5777 7.63392 11.6312 7.49999 11.6312C7.39285 11.6312 7.28571 11.5777 7.20535 11.4705L4.60714 6.91696C4.55356 6.80981 4.44642 6.67589 4.44642 6.4616C4.41964 6.2741 4.47321 6.11339 4.55356 5.95267C4.63392 5.79196 4.76785 5.65803 4.95535 5.60446C5.11606 5.49731 5.30356 5.49731 5.41071 5.49731ZM7.17856 6.14017H5.41071C5.30356 6.14017 5.24999 6.14017 5.22321 6.16696C5.16963 6.19374 5.14285 6.22053 5.11606 6.2741C5.08928 6.30089 5.08928 6.35446 5.08928 6.40803C5.08928 6.43481 5.11606 6.4616 5.16963 6.56874L7.17856 10.0509V6.14017ZM7.82142 6.14017V10.0777L9.85713 6.56874C9.88392 6.51517 9.88392 6.4616 9.88392 6.40803C9.88392 6.35446 9.88392 6.30089 9.85713 6.2741C9.83035 6.24731 9.83035 6.22053 9.80356 6.22053L9.77678 6.19374C9.72321 6.16696 9.66963 6.16696 9.58928 6.16696H7.82142V6.14017Z" fill="white"/>
</g>
<defs>
<clipPath id="clip0_559_7448">
<rect width="15" height="15" fill="white" transform="translate(0 0.541992)"/>
</clipPath>
</defs>
</svg>
