<svg width="370" height="34" viewBox="0 0 370 34" fill="none" xmlns="http://www.w3.org/2000/svg">
<rect x="0.5" y="0.958008" width="369" height="32" rx="9.5" fill="#161C2D"/>
<rect x="0.5" y="0.958008" width="369" height="32" rx="9.5" stroke="#161C2D"/>
<path d="M128.852 22.57C128.105 22.57 127.415 22.4487 126.78 22.206C126.155 21.954 125.609 21.604 125.142 21.156C124.685 20.6987 124.325 20.1667 124.064 19.56C123.803 18.9533 123.672 18.286 123.672 17.558C123.672 16.83 123.803 16.1627 124.064 15.556C124.325 14.9493 124.689 14.422 125.156 13.974C125.623 13.5167 126.169 13.1667 126.794 12.924C127.429 12.672 128.119 12.546 128.866 12.546C129.622 12.546 130.317 12.6767 130.952 12.938C131.596 13.19 132.142 13.568 132.59 14.072L131.68 14.954C131.307 14.562 130.887 14.2727 130.42 14.086C129.953 13.89 129.454 13.792 128.922 13.792C128.371 13.792 127.858 13.8853 127.382 14.072C126.915 14.2587 126.509 14.52 126.164 14.856C125.819 15.192 125.548 15.5933 125.352 16.06C125.165 16.5173 125.072 17.0167 125.072 17.558C125.072 18.0993 125.165 18.6033 125.352 19.07C125.548 19.5273 125.819 19.924 126.164 20.26C126.509 20.596 126.915 20.8573 127.382 21.044C127.858 21.2307 128.371 21.324 128.922 21.324C129.454 21.324 129.953 21.2307 130.42 21.044C130.887 20.848 131.307 20.5493 131.68 20.148L132.59 21.03C132.142 21.534 131.596 21.9167 130.952 22.178C130.317 22.4393 129.617 22.57 128.852 22.57ZM138.025 14.968C138.631 14.968 139.163 15.0847 139.621 15.318C140.087 15.5513 140.451 15.906 140.713 16.382C140.974 16.858 141.105 17.46 141.105 18.188V22.458H139.761V18.342C139.761 17.6233 139.583 17.082 139.229 16.718C138.883 16.354 138.393 16.172 137.759 16.172C137.283 16.172 136.867 16.2653 136.513 16.452C136.158 16.6387 135.883 16.914 135.687 17.278C135.5 17.642 135.407 18.0947 135.407 18.636V22.458H134.063V12.07H135.407V17.04L135.141 16.508C135.383 16.0227 135.757 15.6447 136.261 15.374C136.765 15.1033 137.353 14.968 138.025 14.968ZM147.869 22.458V20.89L147.799 20.596V17.922C147.799 17.3527 147.631 16.914 147.295 16.606C146.969 16.2887 146.474 16.13 145.811 16.13C145.373 16.13 144.943 16.2047 144.523 16.354C144.103 16.494 143.749 16.6853 143.459 16.928L142.899 15.92C143.282 15.612 143.739 15.3787 144.271 15.22C144.813 15.052 145.377 14.968 145.965 14.968C146.983 14.968 147.767 15.2153 148.317 15.71C148.868 16.2047 149.143 16.9607 149.143 17.978V22.458H147.869ZM145.433 22.542C144.883 22.542 144.397 22.4487 143.977 22.262C143.567 22.0753 143.249 21.8187 143.025 21.492C142.801 21.156 142.689 20.778 142.689 20.358C142.689 19.9567 142.783 19.5927 142.969 19.266C143.165 18.9393 143.478 18.678 143.907 18.482C144.346 18.286 144.934 18.188 145.671 18.188H148.023V19.154H145.727C145.055 19.154 144.603 19.266 144.369 19.49C144.136 19.714 144.019 19.9847 144.019 20.302C144.019 20.666 144.164 20.96 144.453 21.184C144.743 21.3987 145.144 21.506 145.657 21.506C146.161 21.506 146.6 21.394 146.973 21.17C147.356 20.946 147.631 20.6193 147.799 20.19L148.065 21.114C147.888 21.5527 147.575 21.9027 147.127 22.164C146.679 22.416 146.115 22.542 145.433 22.542ZM155.264 14.968C155.871 14.968 156.403 15.0847 156.86 15.318C157.327 15.5513 157.691 15.906 157.952 16.382C158.213 16.858 158.344 17.46 158.344 18.188V22.458H157V18.342C157 17.6233 156.823 17.082 156.468 16.718C156.123 16.354 155.633 16.172 154.998 16.172C154.522 16.172 154.107 16.2653 153.752 16.452C153.397 16.6387 153.122 16.914 152.926 17.278C152.739 17.642 152.646 18.0947 152.646 18.636V22.458H151.302V15.038H152.59V17.04L152.38 16.508C152.623 16.0227 152.996 15.6447 153.5 15.374C154.004 15.1033 154.592 14.968 155.264 14.968ZM163.751 25.258C163.07 25.258 162.407 25.16 161.763 24.964C161.128 24.7773 160.61 24.5067 160.209 24.152L160.853 23.116C161.198 23.4147 161.623 23.648 162.127 23.816C162.631 23.9933 163.158 24.082 163.709 24.082C164.586 24.082 165.23 23.8767 165.641 23.466C166.052 23.0553 166.257 22.43 166.257 21.59V20.022L166.397 18.552L166.327 17.068V15.038H167.601V21.45C167.601 22.7567 167.274 23.718 166.621 24.334C165.968 24.95 165.011 25.258 163.751 25.258ZM163.583 22.15C162.864 22.15 162.22 22.0007 161.651 21.702C161.091 21.394 160.643 20.9693 160.307 20.428C159.98 19.8867 159.817 19.2613 159.817 18.552C159.817 17.8333 159.98 17.208 160.307 16.676C160.643 16.1347 161.091 15.7147 161.651 15.416C162.22 15.1173 162.864 14.968 163.583 14.968C164.218 14.968 164.796 15.0987 165.319 15.36C165.842 15.612 166.257 16.004 166.565 16.536C166.882 17.068 167.041 17.74 167.041 18.552C167.041 19.3547 166.882 20.022 166.565 20.554C166.257 21.086 165.842 21.4873 165.319 21.758C164.796 22.0193 164.218 22.15 163.583 22.15ZM163.737 20.974C164.232 20.974 164.67 20.8713 165.053 20.666C165.436 20.4607 165.734 20.176 165.949 19.812C166.173 19.448 166.285 19.028 166.285 18.552C166.285 18.076 166.173 17.656 165.949 17.292C165.734 16.928 165.436 16.648 165.053 16.452C164.67 16.2467 164.232 16.144 163.737 16.144C163.242 16.144 162.799 16.2467 162.407 16.452C162.024 16.648 161.721 16.928 161.497 17.292C161.282 17.656 161.175 18.076 161.175 18.552C161.175 19.028 161.282 19.448 161.497 19.812C161.721 20.176 162.024 20.4607 162.407 20.666C162.799 20.8713 163.242 20.974 163.737 20.974ZM173.144 22.542C172.351 22.542 171.651 22.3787 171.044 22.052C170.447 21.7253 169.98 21.2773 169.644 20.708C169.318 20.1387 169.154 19.4853 169.154 18.748C169.154 18.0107 169.313 17.3573 169.63 16.788C169.957 16.2187 170.4 15.7753 170.96 15.458C171.53 15.1313 172.169 14.968 172.878 14.968C173.597 14.968 174.232 15.1267 174.782 15.444C175.333 15.7613 175.762 16.2093 176.07 16.788C176.388 17.3573 176.546 18.0247 176.546 18.79C176.546 18.846 176.542 18.9113 176.532 18.986C176.532 19.0607 176.528 19.1307 176.518 19.196H170.204V18.23H175.818L175.272 18.566C175.282 18.09 175.184 17.6653 174.978 17.292C174.773 16.9187 174.488 16.6293 174.124 16.424C173.77 16.2093 173.354 16.102 172.878 16.102C172.412 16.102 171.996 16.2093 171.632 16.424C171.268 16.6293 170.984 16.9233 170.778 17.306C170.573 17.6793 170.47 18.1087 170.47 18.594V18.818C170.47 19.3127 170.582 19.756 170.806 20.148C171.04 20.5307 171.362 20.8293 171.772 21.044C172.183 21.2587 172.654 21.366 173.186 21.366C173.625 21.366 174.022 21.2913 174.376 21.142C174.74 20.9927 175.058 20.7687 175.328 20.47L176.07 21.338C175.734 21.73 175.314 22.0287 174.81 22.234C174.316 22.4393 173.76 22.542 173.144 22.542ZM181.711 22.458V12.658H185.533C186.392 12.658 187.125 12.7933 187.731 13.064C188.338 13.3347 188.805 13.7267 189.131 14.24C189.458 14.7533 189.621 15.3647 189.621 16.074C189.621 16.7833 189.458 17.3947 189.131 17.908C188.805 18.412 188.338 18.804 187.731 19.084C187.125 19.3547 186.392 19.49 185.533 19.49H182.481L183.111 18.832V22.458H181.711ZM183.111 18.972L182.481 18.272H185.491C186.387 18.272 187.064 18.0807 187.521 17.698C187.988 17.3153 188.221 16.774 188.221 16.074C188.221 15.374 187.988 14.8327 187.521 14.45C187.064 14.0673 186.387 13.876 185.491 13.876H182.481L183.111 13.176V18.972ZM195.691 22.458V20.89L195.621 20.596V17.922C195.621 17.3527 195.453 16.914 195.117 16.606C194.791 16.2887 194.296 16.13 193.633 16.13C193.195 16.13 192.765 16.2047 192.345 16.354C191.925 16.494 191.571 16.6853 191.281 16.928L190.721 15.92C191.104 15.612 191.561 15.3787 192.093 15.22C192.635 15.052 193.199 14.968 193.787 14.968C194.805 14.968 195.589 15.2153 196.139 15.71C196.69 16.2047 196.965 16.9607 196.965 17.978V22.458H195.691ZM193.255 22.542C192.705 22.542 192.219 22.4487 191.799 22.262C191.389 22.0753 191.071 21.8187 190.847 21.492C190.623 21.156 190.511 20.778 190.511 20.358C190.511 19.9567 190.605 19.5927 190.791 19.266C190.987 18.9393 191.3 18.678 191.729 18.482C192.168 18.286 192.756 18.188 193.493 18.188H195.845V19.154H193.549C192.877 19.154 192.425 19.266 192.191 19.49C191.958 19.714 191.841 19.9847 191.841 20.302C191.841 20.666 191.986 20.96 192.275 21.184C192.565 21.3987 192.966 21.506 193.479 21.506C193.983 21.506 194.422 21.394 194.795 21.17C195.178 20.946 195.453 20.6193 195.621 20.19L195.887 21.114C195.71 21.5527 195.397 21.9027 194.949 22.164C194.501 22.416 193.937 22.542 193.255 22.542ZM201.252 22.542C200.636 22.542 200.048 22.458 199.488 22.29C198.937 22.122 198.503 21.9167 198.186 21.674L198.746 20.61C199.063 20.8247 199.455 21.0067 199.922 21.156C200.389 21.3053 200.865 21.38 201.35 21.38C201.975 21.38 202.423 21.2913 202.694 21.114C202.974 20.9367 203.114 20.6893 203.114 20.372C203.114 20.1387 203.03 19.9567 202.862 19.826C202.694 19.6953 202.47 19.5973 202.19 19.532C201.919 19.4667 201.616 19.4107 201.28 19.364C200.944 19.308 200.608 19.2427 200.272 19.168C199.936 19.084 199.628 18.972 199.348 18.832C199.068 18.6827 198.844 18.482 198.676 18.23C198.508 17.9687 198.424 17.6233 198.424 17.194C198.424 16.746 198.55 16.354 198.802 16.018C199.054 15.682 199.409 15.4253 199.866 15.248C200.333 15.0613 200.883 14.968 201.518 14.968C202.003 14.968 202.493 15.0287 202.988 15.15C203.492 15.262 203.903 15.4253 204.22 15.64L203.646 16.704C203.31 16.48 202.96 16.326 202.596 16.242C202.232 16.158 201.868 16.116 201.504 16.116C200.916 16.116 200.477 16.214 200.188 16.41C199.899 16.5967 199.754 16.8393 199.754 17.138C199.754 17.39 199.838 17.586 200.006 17.726C200.183 17.8567 200.407 17.9593 200.678 18.034C200.958 18.1087 201.266 18.174 201.602 18.23C201.938 18.2767 202.274 18.342 202.61 18.426C202.946 18.5007 203.249 18.608 203.52 18.748C203.8 18.888 204.024 19.084 204.192 19.336C204.369 19.588 204.458 19.924 204.458 20.344C204.458 20.792 204.327 21.1793 204.066 21.506C203.805 21.8327 203.436 22.0893 202.96 22.276C202.484 22.4533 201.915 22.542 201.252 22.542ZM207.937 22.542C207.321 22.542 206.733 22.458 206.173 22.29C205.622 22.122 205.188 21.9167 204.871 21.674L205.431 20.61C205.748 20.8247 206.14 21.0067 206.607 21.156C207.074 21.3053 207.55 21.38 208.035 21.38C208.66 21.38 209.108 21.2913 209.379 21.114C209.659 20.9367 209.799 20.6893 209.799 20.372C209.799 20.1387 209.715 19.9567 209.547 19.826C209.379 19.6953 209.155 19.5973 208.875 19.532C208.604 19.4667 208.301 19.4107 207.965 19.364C207.629 19.308 207.293 19.2427 206.957 19.168C206.621 19.084 206.313 18.972 206.033 18.832C205.753 18.6827 205.529 18.482 205.361 18.23C205.193 17.9687 205.109 17.6233 205.109 17.194C205.109 16.746 205.235 16.354 205.487 16.018C205.739 15.682 206.094 15.4253 206.551 15.248C207.018 15.0613 207.568 14.968 208.203 14.968C208.688 14.968 209.178 15.0287 209.673 15.15C210.177 15.262 210.588 15.4253 210.905 15.64L210.331 16.704C209.995 16.48 209.645 16.326 209.281 16.242C208.917 16.158 208.553 16.116 208.189 16.116C207.601 16.116 207.162 16.214 206.873 16.41C206.584 16.5967 206.439 16.8393 206.439 17.138C206.439 17.39 206.523 17.586 206.691 17.726C206.868 17.8567 207.092 17.9593 207.363 18.034C207.643 18.1087 207.951 18.174 208.287 18.23C208.623 18.2767 208.959 18.342 209.295 18.426C209.631 18.5007 209.934 18.608 210.205 18.748C210.485 18.888 210.709 19.084 210.877 19.336C211.054 19.588 211.143 19.924 211.143 20.344C211.143 20.792 211.012 21.1793 210.751 21.506C210.49 21.8327 210.121 22.0893 209.645 22.276C209.169 22.4533 208.6 22.542 207.937 22.542ZM213.925 22.458L211.167 15.038H212.441L214.891 21.758H214.289L216.837 15.038H217.971L220.463 21.758H219.875L222.381 15.038H223.585L220.813 22.458H219.525L217.187 16.326H217.579L215.213 22.458H213.925ZM227.594 22.542C226.847 22.542 226.184 22.3787 225.606 22.052C225.027 21.7253 224.57 21.2773 224.234 20.708C223.898 20.1293 223.73 19.476 223.73 18.748C223.73 18.0107 223.898 17.3573 224.234 16.788C224.57 16.2187 225.027 15.7753 225.606 15.458C226.184 15.1313 226.847 14.968 227.594 14.968C228.331 14.968 228.989 15.1313 229.568 15.458C230.156 15.7753 230.613 16.2187 230.94 16.788C231.276 17.348 231.444 18.0013 231.444 18.748C231.444 19.4853 231.276 20.1387 230.94 20.708C230.613 21.2773 230.156 21.7253 229.568 22.052C228.989 22.3787 228.331 22.542 227.594 22.542ZM227.594 21.366C228.07 21.366 228.494 21.2587 228.868 21.044C229.25 20.8293 229.549 20.526 229.764 20.134C229.978 19.7327 230.086 19.2707 230.086 18.748C230.086 18.216 229.978 17.7587 229.764 17.376C229.549 16.984 229.25 16.6807 228.868 16.466C228.494 16.2513 228.07 16.144 227.594 16.144C227.118 16.144 226.693 16.2513 226.32 16.466C225.946 16.6807 225.648 16.984 225.424 17.376C225.2 17.7587 225.088 18.216 225.088 18.748C225.088 19.2707 225.2 19.7327 225.424 20.134C225.648 20.526 225.946 20.8293 226.32 21.044C226.693 21.2587 227.118 21.366 227.594 21.366ZM232.974 22.458V15.038H234.262V17.054L234.136 16.55C234.341 16.0367 234.686 15.6447 235.172 15.374C235.657 15.1033 236.254 14.968 236.964 14.968V16.27C236.908 16.2607 236.852 16.256 236.796 16.256C236.749 16.256 236.702 16.256 236.656 16.256C235.937 16.256 235.368 16.4707 234.948 16.9C234.528 17.3293 234.318 17.95 234.318 18.762V22.458H232.974ZM241.289 22.542C240.571 22.542 239.927 22.3833 239.357 22.066C238.797 21.7487 238.354 21.3053 238.027 20.736C237.701 20.1667 237.537 19.504 237.537 18.748C237.537 17.992 237.701 17.334 238.027 16.774C238.354 16.2047 238.797 15.7613 239.357 15.444C239.927 15.1267 240.571 14.968 241.289 14.968C241.915 14.968 242.479 15.108 242.983 15.388C243.487 15.668 243.889 16.088 244.187 16.648C244.495 17.208 244.649 17.908 244.649 18.748C244.649 19.588 244.5 20.288 244.201 20.848C243.912 21.408 243.515 21.8327 243.011 22.122C242.507 22.402 241.933 22.542 241.289 22.542ZM241.401 21.366C241.868 21.366 242.288 21.2587 242.661 21.044C243.044 20.8293 243.343 20.526 243.557 20.134C243.781 19.7327 243.893 19.2707 243.893 18.748C243.893 18.216 243.781 17.7587 243.557 17.376C243.343 16.984 243.044 16.6807 242.661 16.466C242.288 16.2513 241.868 16.144 241.401 16.144C240.925 16.144 240.501 16.2513 240.127 16.466C239.754 16.6807 239.455 16.984 239.231 17.376C239.007 17.7587 238.895 18.216 238.895 18.748C238.895 19.2707 239.007 19.7327 239.231 20.134C239.455 20.526 239.754 20.8293 240.127 21.044C240.501 21.2587 240.925 21.366 241.401 21.366ZM243.935 22.458V20.456L244.019 18.734L243.879 17.012V12.07H245.223V22.458H243.935Z" fill="white"/>
</svg>
