<svg width="22" height="22" viewBox="0 0 22 22" fill="none" xmlns="http://www.w3.org/2000/svg">
<g clip-path="url(#clip0_394_11425)">
<path d="M10.7569 19.7213C5.80597 19.7213 1.79272 15.708 1.79272 10.7571C1.79272 5.80622 5.80597 1.79297 10.7569 1.79297C15.7078 1.79297 19.721 5.80622 19.721 10.7571C19.721 15.708 15.7078 19.7213 10.7569 19.7213ZM10.7569 17.9284C12.6588 17.9284 14.4829 17.1729 15.8278 15.828C17.1726 14.4831 17.9282 12.6591 17.9282 10.7571C17.9282 8.85516 17.1726 7.03111 15.8278 5.68623C14.4829 4.34134 12.6588 3.5858 10.7569 3.5858C8.85492 3.5858 7.03086 4.34134 5.68598 5.68623C4.3411 7.03111 3.58555 8.85516 3.58555 10.7571C3.58555 12.6591 4.3411 14.4831 5.68598 15.828C7.03086 17.1729 8.85492 17.9284 10.7569 17.9284ZM9.86314 14.3428L6.05966 10.5393L7.32719 9.27175L9.86314 11.8077L14.9333 6.73669L16.2017 8.00422L9.86314 14.3428Z" fill="#161C2D"/>
</g>
<defs>
<clipPath id="clip0_394_11425">
<rect width="21.5139" height="21.5139" fill="white"/>
</clipPath>
</defs>
</svg>
