<svg width="158" height="27" viewBox="0 0 158 27" fill="none" xmlns="http://www.w3.org/2000/svg">
<rect x="0.601929" y="0.529419" width="157.206" height="26.0274" rx="5" fill="#161C2D"/>
<path d="M23.1872 17.1074C22.6512 17.1074 22.1552 17.0034 21.6992 16.7954C21.2512 16.5874 20.8832 16.2874 20.5952 15.8954L21.4832 14.8274C21.7152 15.1474 21.9672 15.3874 22.2392 15.5474C22.5192 15.7074 22.8232 15.7874 23.1512 15.7874C24.0232 15.7874 24.4592 15.2714 24.4592 14.2394V9.89543H21.4712V8.58743H26.0192V14.1554C26.0192 15.1474 25.7752 15.8874 25.2872 16.3754C24.8072 16.8634 24.1072 17.1074 23.1872 17.1074ZM30.6969 17.0714C30.0409 17.0714 29.4569 16.9314 28.9449 16.6514C28.4329 16.3634 28.0289 15.9714 27.7329 15.4754C27.4369 14.9794 27.2889 14.4154 27.2889 13.7834C27.2889 13.1434 27.4369 12.5794 27.7329 12.0914C28.0289 11.5954 28.4329 11.2074 28.9449 10.9274C29.4569 10.6474 30.0409 10.5074 30.6969 10.5074C31.3609 10.5074 31.9489 10.6474 32.4609 10.9274C32.9809 11.2074 33.3849 11.5914 33.6729 12.0794C33.9689 12.5674 34.1169 13.1354 34.1169 13.7834C34.1169 14.4154 33.9689 14.9794 33.6729 15.4754C33.3849 15.9714 32.9809 16.3634 32.4609 16.6514C31.9489 16.9314 31.3609 17.0714 30.6969 17.0714ZM30.6969 15.7874C31.0649 15.7874 31.3929 15.7074 31.6809 15.5474C31.9689 15.3874 32.1929 15.1554 32.3529 14.8514C32.5209 14.5474 32.6049 14.1914 32.6049 13.7834C32.6049 13.3674 32.5209 13.0114 32.3529 12.7154C32.1929 12.4114 31.9689 12.1794 31.6809 12.0194C31.3929 11.8594 31.0689 11.7794 30.7089 11.7794C30.3409 11.7794 30.0129 11.8594 29.7249 12.0194C29.4449 12.1794 29.2209 12.4114 29.0529 12.7154C28.8849 13.0114 28.8009 13.3674 28.8009 13.7834C28.8009 14.1914 28.8849 14.5474 29.0529 14.8514C29.2209 15.1554 29.4449 15.3874 29.7249 15.5474C30.0129 15.7074 30.3369 15.7874 30.6969 15.7874ZM35.3049 16.9874V10.5794H36.8049V16.9874H35.3049ZM36.0609 9.52343C35.7809 9.52343 35.5489 9.43543 35.3649 9.25943C35.1889 9.08343 35.1009 8.87143 35.1009 8.62343C35.1009 8.36743 35.1889 8.15543 35.3649 7.98743C35.5489 7.81143 35.7809 7.72343 36.0609 7.72343C36.3409 7.72343 36.5689 7.80743 36.7449 7.97543C36.9289 8.13543 37.0209 8.33943 37.0209 8.58743C37.0209 8.85143 36.9329 9.07543 36.7569 9.25943C36.5809 9.43543 36.3489 9.52343 36.0609 9.52343ZM42.1632 10.5074C42.6752 10.5074 43.1312 10.6074 43.5312 10.8074C43.9392 11.0074 44.2592 11.3154 44.4912 11.7314C44.7232 12.1394 44.8392 12.6674 44.8392 13.3154V16.9874H43.3392V13.5074C43.3392 12.9394 43.2032 12.5154 42.9312 12.2354C42.6672 11.9554 42.2952 11.8154 41.8152 11.8154C41.4632 11.8154 41.1512 11.8874 40.8792 12.0314C40.6072 12.1754 40.3952 12.3914 40.2432 12.6794C40.0992 12.9594 40.0272 13.3154 40.0272 13.7474V16.9874H38.5272V10.5794H39.9552V12.3074L39.7032 11.7794C39.9272 11.3714 40.2512 11.0594 40.6752 10.8434C41.1072 10.6194 41.6032 10.5074 42.1632 10.5074ZM57.6537 10.5074C58.1657 10.5074 58.6177 10.6074 59.0097 10.8074C59.4097 11.0074 59.7217 11.3154 59.9457 11.7314C60.1697 12.1394 60.2817 12.6674 60.2817 13.3154V16.9874H58.7817V13.5074C58.7817 12.9394 58.6577 12.5154 58.4097 12.2354C58.1617 11.9554 57.8057 11.8154 57.3417 11.8154C57.0137 11.8154 56.7217 11.8874 56.4657 12.0314C56.2177 12.1754 56.0217 12.3874 55.8777 12.6674C55.7417 12.9474 55.6737 13.3034 55.6737 13.7354V16.9874H54.1737V13.5074C54.1737 12.9394 54.0497 12.5154 53.8017 12.2354C53.5537 11.9554 53.1977 11.8154 52.7337 11.8154C52.4057 11.8154 52.1137 11.8874 51.8577 12.0314C51.6097 12.1754 51.4137 12.3874 51.2697 12.6674C51.1337 12.9474 51.0657 13.3034 51.0657 13.7354V16.9874H49.5657V10.5794H50.9937V12.2834L50.7417 11.7794C50.9577 11.3634 51.2697 11.0474 51.6777 10.8314C52.0937 10.6154 52.5657 10.5074 53.0937 10.5074C53.6937 10.5074 54.2137 10.6554 54.6537 10.9514C55.1017 11.2474 55.3977 11.6954 55.5417 12.2954L54.9537 12.0914C55.1617 11.6114 55.5057 11.2274 55.9857 10.9394C56.4657 10.6514 57.0217 10.5074 57.6537 10.5074ZM64.8438 17.0714C64.1878 17.0714 63.6038 16.9314 63.0918 16.6514C62.5798 16.3634 62.1758 15.9714 61.8798 15.4754C61.5838 14.9794 61.4358 14.4154 61.4358 13.7834C61.4358 13.1434 61.5838 12.5794 61.8798 12.0914C62.1758 11.5954 62.5798 11.2074 63.0918 10.9274C63.6038 10.6474 64.1878 10.5074 64.8438 10.5074C65.5078 10.5074 66.0958 10.6474 66.6078 10.9274C67.1278 11.2074 67.5318 11.5914 67.8198 12.0794C68.1158 12.5674 68.2638 13.1354 68.2638 13.7834C68.2638 14.4154 68.1158 14.9794 67.8198 15.4754C67.5318 15.9714 67.1278 16.3634 66.6078 16.6514C66.0958 16.9314 65.5078 17.0714 64.8438 17.0714ZM64.8438 15.7874C65.2118 15.7874 65.5398 15.7074 65.8278 15.5474C66.1158 15.3874 66.3398 15.1554 66.4998 14.8514C66.6678 14.5474 66.7518 14.1914 66.7518 13.7834C66.7518 13.3674 66.6678 13.0114 66.4998 12.7154C66.3398 12.4114 66.1158 12.1794 65.8278 12.0194C65.5398 11.8594 65.2158 11.7794 64.8558 11.7794C64.4878 11.7794 64.1598 11.8594 63.8718 12.0194C63.5918 12.1794 63.3678 12.4114 63.1998 12.7154C63.0318 13.0114 62.9478 13.3674 62.9478 13.7834C62.9478 14.1914 63.0318 14.5474 63.1998 14.8514C63.3678 15.1554 63.5918 15.3874 63.8718 15.5474C64.1598 15.7074 64.4838 15.7874 64.8438 15.7874ZM69.4518 16.9874V10.5794H70.8798V12.3434L70.7118 11.8274C70.9038 11.3954 71.2038 11.0674 71.6118 10.8434C72.0278 10.6194 72.5438 10.5074 73.1598 10.5074V11.9354C73.0958 11.9194 73.0358 11.9114 72.9798 11.9114C72.9238 11.9034 72.8678 11.8994 72.8118 11.8994C72.2438 11.8994 71.7918 12.0674 71.4558 12.4034C71.1198 12.7314 70.9518 13.2234 70.9518 13.8794V16.9874H69.4518ZM77.1392 17.0714C76.4272 17.0714 75.8032 16.9314 75.2672 16.6514C74.7392 16.3634 74.3272 15.9714 74.0312 15.4754C73.7432 14.9794 73.5992 14.4154 73.5992 13.7834C73.5992 13.1434 73.7392 12.5794 74.0192 12.0914C74.3072 11.5954 74.6992 11.2074 75.1952 10.9274C75.6992 10.6474 76.2712 10.5074 76.9112 10.5074C77.5352 10.5074 78.0912 10.6434 78.5792 10.9154C79.0672 11.1874 79.4512 11.5714 79.7312 12.0674C80.0113 12.5634 80.1513 13.1474 80.1513 13.8194C80.1513 13.8834 80.1472 13.9554 80.1392 14.0354C80.1392 14.1154 80.1352 14.1914 80.1272 14.2634H74.7872V13.2674H79.3352L78.7472 13.5794C78.7552 13.2114 78.6792 12.8874 78.5192 12.6074C78.3592 12.3274 78.1392 12.1074 77.8592 11.9474C77.5872 11.7874 77.2712 11.7074 76.9112 11.7074C76.5432 11.7074 76.2192 11.7874 75.9392 11.9474C75.6672 12.1074 75.4512 12.3314 75.2912 12.6194C75.1392 12.8994 75.0632 13.2314 75.0632 13.6154V13.8554C75.0632 14.2394 75.1512 14.5794 75.3272 14.8754C75.5032 15.1714 75.7512 15.3994 76.0712 15.5594C76.3912 15.7194 76.7592 15.7994 77.1752 15.7994C77.5352 15.7994 77.8592 15.7434 78.1472 15.6314C78.4352 15.5194 78.6912 15.3434 78.9152 15.1034L79.7192 16.0274C79.4312 16.3634 79.0672 16.6234 78.6272 16.8074C78.1952 16.9834 77.6992 17.0714 77.1392 17.0714ZM86.4417 16.9874L90.2217 8.58743H91.7577L95.5497 16.9874H93.9177L90.6657 9.41543H91.2897L88.0497 16.9874H86.4417ZM88.1817 15.0434L88.6017 13.8194H93.1377L93.5577 15.0434H88.1817ZM96.2276 16.9874V10.5794H97.7276V16.9874H96.2276ZM96.9836 9.52343C96.7036 9.52343 96.4716 9.43543 96.2876 9.25943C96.1116 9.08343 96.0236 8.87143 96.0236 8.62343C96.0236 8.36743 96.1116 8.15543 96.2876 7.98743C96.4716 7.81143 96.7036 7.72343 96.9836 7.72343C97.2636 7.72343 97.4916 7.80743 97.6676 7.97543C97.8516 8.13543 97.9436 8.33943 97.9436 8.58743C97.9436 8.85143 97.8556 9.07543 97.6796 9.25943C97.5036 9.43543 97.2716 9.52343 96.9836 9.52343ZM99.4499 16.9874V10.5794H100.878V12.3434L100.71 11.8274C100.902 11.3954 101.202 11.0674 101.61 10.8434C102.026 10.6194 102.542 10.5074 103.158 10.5074V11.9354C103.094 11.9194 103.034 11.9114 102.978 11.9114C102.922 11.9034 102.866 11.8994 102.81 11.8994C102.242 11.8994 101.79 12.0674 101.454 12.4034C101.118 12.7314 100.95 13.2234 100.95 13.8794V16.9874H99.4499ZM106.837 17.0714C106.221 17.0714 105.665 16.9354 105.169 16.6634C104.681 16.3834 104.297 15.9994 104.017 15.5114C103.737 15.0234 103.597 14.4474 103.597 13.7834C103.597 13.1194 103.737 12.5434 104.017 12.0554C104.297 11.5674 104.681 11.1874 105.169 10.9154C105.665 10.6434 106.221 10.5074 106.837 10.5074C107.373 10.5074 107.853 10.6274 108.277 10.8674C108.701 11.0994 109.037 11.4554 109.285 11.9354C109.533 12.4154 109.657 13.0314 109.657 13.7834C109.657 14.5274 109.537 15.1434 109.297 15.6314C109.057 16.1114 108.725 16.4714 108.301 16.7114C107.877 16.9514 107.389 17.0714 106.837 17.0714ZM107.017 15.7874C107.377 15.7874 107.697 15.7074 107.977 15.5474C108.265 15.3874 108.493 15.1554 108.661 14.8514C108.837 14.5474 108.925 14.1914 108.925 13.7834C108.925 13.3674 108.837 13.0114 108.661 12.7154C108.493 12.4114 108.265 12.1794 107.977 12.0194C107.697 11.8594 107.377 11.7794 107.017 11.7794C106.657 11.7794 106.333 11.8594 106.045 12.0194C105.765 12.1794 105.537 12.4114 105.361 12.7154C105.193 13.0114 105.109 13.3674 105.109 13.7834C105.109 14.1914 105.193 14.5474 105.361 14.8514C105.537 15.1554 105.765 15.3874 106.045 15.5474C106.333 15.7074 106.657 15.7874 107.017 15.7874ZM108.961 16.9874V15.4754L109.021 13.7714L108.901 12.0674V8.08343H110.389V16.9874H108.961ZM112.117 16.9874V10.5794H113.545V12.3434L113.377 11.8274C113.569 11.3954 113.869 11.0674 114.277 10.8434C114.693 10.6194 115.209 10.5074 115.825 10.5074V11.9354C115.761 11.9194 115.701 11.9114 115.645 11.9114C115.589 11.9034 115.533 11.8994 115.477 11.8994C114.909 11.8994 114.457 12.0674 114.121 12.4034C113.785 12.7314 113.617 13.2234 113.617 13.8794V16.9874H112.117ZM119.673 17.0714C119.017 17.0714 118.433 16.9314 117.921 16.6514C117.409 16.3634 117.005 15.9714 116.709 15.4754C116.413 14.9794 116.265 14.4154 116.265 13.7834C116.265 13.1434 116.413 12.5794 116.709 12.0914C117.005 11.5954 117.409 11.2074 117.921 10.9274C118.433 10.6474 119.017 10.5074 119.673 10.5074C120.337 10.5074 120.925 10.6474 121.437 10.9274C121.957 11.2074 122.361 11.5914 122.649 12.0794C122.945 12.5674 123.093 13.1354 123.093 13.7834C123.093 14.4154 122.945 14.9794 122.649 15.4754C122.361 15.9714 121.957 16.3634 121.437 16.6514C120.925 16.9314 120.337 17.0714 119.673 17.0714ZM119.673 15.7874C120.041 15.7874 120.369 15.7074 120.657 15.5474C120.945 15.3874 121.169 15.1554 121.329 14.8514C121.497 14.5474 121.581 14.1914 121.581 13.7834C121.581 13.3674 121.497 13.0114 121.329 12.7154C121.169 12.4114 120.945 12.1794 120.657 12.0194C120.369 11.8594 120.045 11.7794 119.685 11.7794C119.317 11.7794 118.989 11.8594 118.701 12.0194C118.421 12.1794 118.197 12.4114 118.029 12.7154C117.861 13.0114 117.777 13.3674 117.777 13.7834C117.777 14.1914 117.861 14.5474 118.029 14.8514C118.197 15.1554 118.421 15.3874 118.701 15.5474C118.989 15.7074 119.313 15.7874 119.673 15.7874ZM127.833 17.0714C127.313 17.0714 126.837 16.9514 126.405 16.7114C125.981 16.4714 125.641 16.1114 125.385 15.6314C125.137 15.1434 125.013 14.5274 125.013 13.7834C125.013 13.0314 125.133 12.4154 125.373 11.9354C125.621 11.4554 125.957 11.0994 126.381 10.8674C126.805 10.6274 127.289 10.5074 127.833 10.5074C128.465 10.5074 129.021 10.6434 129.501 10.9154C129.989 11.1874 130.373 11.5674 130.653 12.0554C130.941 12.5434 131.085 13.1194 131.085 13.7834C131.085 14.4474 130.941 15.0274 130.653 15.5234C130.373 16.0114 129.989 16.3914 129.501 16.6634C129.021 16.9354 128.465 17.0714 127.833 17.0714ZM124.281 19.3154V10.5794H125.709V12.0914L125.661 13.7954L125.781 15.4994V19.3154H124.281ZM127.665 15.7874C128.025 15.7874 128.345 15.7074 128.625 15.5474C128.913 15.3874 129.141 15.1554 129.309 14.8514C129.477 14.5474 129.561 14.1914 129.561 13.7834C129.561 13.3674 129.477 13.0114 129.309 12.7154C129.141 12.4114 128.913 12.1794 128.625 12.0194C128.345 11.8594 128.025 11.7794 127.665 11.7794C127.305 11.7794 126.981 11.8594 126.693 12.0194C126.405 12.1794 126.177 12.4114 126.009 12.7154C125.841 13.0114 125.757 13.3674 125.757 13.7834C125.757 14.1914 125.841 14.5474 126.009 14.8514C126.177 15.1554 126.405 15.3874 126.693 15.5474C126.981 15.7074 127.305 15.7874 127.665 15.7874ZM134.241 17.0714C133.705 17.0714 133.189 17.0034 132.693 16.8674C132.205 16.7234 131.817 16.5514 131.529 16.3514L132.105 15.2114C132.393 15.3954 132.737 15.5474 133.137 15.6674C133.537 15.7874 133.937 15.8474 134.337 15.8474C134.809 15.8474 135.149 15.7834 135.357 15.6554C135.573 15.5274 135.681 15.3554 135.681 15.1394C135.681 14.9634 135.609 14.8314 135.465 14.7434C135.321 14.6474 135.133 14.5754 134.901 14.5274C134.669 14.4794 134.409 14.4354 134.121 14.3954C133.841 14.3554 133.557 14.3034 133.269 14.2394C132.989 14.1674 132.733 14.0674 132.501 13.9394C132.269 13.8034 132.081 13.6234 131.937 13.3994C131.793 13.1754 131.721 12.8794 131.721 12.5114C131.721 12.1034 131.837 11.7514 132.069 11.4554C132.301 11.1514 132.625 10.9194 133.041 10.7594C133.465 10.5914 133.965 10.5074 134.541 10.5074C134.973 10.5074 135.409 10.5554 135.849 10.6514C136.289 10.7474 136.653 10.8834 136.941 11.0594L136.365 12.1994C136.061 12.0154 135.753 11.8914 135.441 11.8274C135.137 11.7554 134.833 11.7194 134.529 11.7194C134.073 11.7194 133.733 11.7874 133.509 11.9234C133.293 12.0594 133.185 12.2314 133.185 12.4394C133.185 12.6314 133.257 12.7754 133.401 12.8714C133.545 12.9674 133.733 13.0434 133.965 13.0994C134.197 13.1554 134.453 13.2034 134.733 13.2434C135.021 13.2754 135.305 13.3274 135.585 13.3994C135.865 13.4714 136.121 13.5714 136.353 13.6994C136.593 13.8194 136.785 13.9914 136.929 14.2154C137.073 14.4394 137.145 14.7314 137.145 15.0914C137.145 15.4914 137.025 15.8394 136.785 16.1354C136.553 16.4314 136.221 16.6634 135.789 16.8314C135.357 16.9914 134.841 17.0714 134.241 17.0714Z" fill="white"/>
</svg>
