<svg width="245" height="33" viewBox="0 0 245 33" fill="none" xmlns="http://www.w3.org/2000/svg">
<rect x="0.5" y="0.5" width="244" height="32" rx="9.5" fill="#161C2D"/>
<rect x="0.5" y="0.5" width="244" height="32" rx="9.5" stroke="#161C2D"/>
<path d="M93.68 23V11.8H95.28V21.608H101.344V23H93.68ZM106.15 23.096C105.297 23.096 104.539 22.9093 103.878 22.536C103.217 22.1627 102.694 21.6507 102.31 21C101.926 20.3387 101.734 19.592 101.734 18.76C101.734 17.9173 101.926 17.1707 102.31 16.52C102.694 15.8693 103.217 15.3627 103.878 15C104.539 14.6267 105.297 14.44 106.15 14.44C106.993 14.44 107.745 14.6267 108.406 15C109.078 15.3627 109.601 15.8693 109.974 16.52C110.358 17.16 110.55 17.9067 110.55 18.76C110.55 19.6027 110.358 20.3493 109.974 21C109.601 21.6507 109.078 22.1627 108.406 22.536C107.745 22.9093 106.993 23.096 106.15 23.096ZM106.15 21.752C106.694 21.752 107.179 21.6293 107.606 21.384C108.043 21.1387 108.385 20.792 108.63 20.344C108.875 19.8853 108.998 19.3573 108.998 18.76C108.998 18.152 108.875 17.6293 108.63 17.192C108.385 16.744 108.043 16.3973 107.606 16.152C107.179 15.9067 106.694 15.784 106.15 15.784C105.606 15.784 105.121 15.9067 104.694 16.152C104.267 16.3973 103.926 16.744 103.67 17.192C103.414 17.6293 103.286 18.152 103.286 18.76C103.286 19.3573 103.414 19.8853 103.67 20.344C103.926 20.792 104.267 21.1387 104.694 21.384C105.121 21.6293 105.606 21.752 106.15 21.752ZM116.058 26.2C115.279 26.2 114.522 26.088 113.786 25.864C113.06 25.6507 112.468 25.3413 112.01 24.936L112.746 23.752C113.14 24.0933 113.626 24.36 114.202 24.552C114.778 24.7547 115.38 24.856 116.01 24.856C117.012 24.856 117.748 24.6213 118.218 24.152C118.687 23.6827 118.922 22.968 118.922 22.008V20.216L119.082 18.536L119.002 16.84V14.52H120.458V21.848C120.458 23.3413 120.084 24.44 119.338 25.144C118.591 25.848 117.498 26.2 116.058 26.2ZM115.866 22.648C115.044 22.648 114.308 22.4773 113.658 22.136C113.018 21.784 112.506 21.2987 112.122 20.68C111.748 20.0613 111.562 19.3467 111.562 18.536C111.562 17.7147 111.748 17 112.122 16.392C112.506 15.7733 113.018 15.2933 113.658 14.952C114.308 14.6107 115.044 14.44 115.866 14.44C116.591 14.44 117.252 14.5893 117.85 14.888C118.447 15.176 118.922 15.624 119.274 16.232C119.636 16.84 119.818 17.608 119.818 18.536C119.818 19.4533 119.636 20.216 119.274 20.824C118.922 21.432 118.447 21.8907 117.85 22.2C117.252 22.4987 116.591 22.648 115.866 22.648ZM116.042 21.304C116.607 21.304 117.108 21.1867 117.546 20.952C117.983 20.7173 118.324 20.392 118.57 19.976C118.826 19.56 118.954 19.08 118.954 18.536C118.954 17.992 118.826 17.512 118.57 17.096C118.324 16.68 117.983 16.36 117.546 16.136C117.108 15.9013 116.607 15.784 116.042 15.784C115.476 15.784 114.97 15.9013 114.522 16.136C114.084 16.36 113.738 16.68 113.482 17.096C113.236 17.512 113.114 17.992 113.114 18.536C113.114 19.08 113.236 19.56 113.482 19.976C113.738 20.392 114.084 20.7173 114.522 20.952C114.97 21.1867 115.476 21.304 116.042 21.304ZM130.664 23.096C129.811 23.096 129.054 22.9093 128.392 22.536C127.731 22.1627 127.208 21.6507 126.824 21C126.44 20.3387 126.248 19.592 126.248 18.76C126.248 17.9173 126.44 17.1707 126.824 16.52C127.208 15.8693 127.731 15.3627 128.392 15C129.054 14.6267 129.811 14.44 130.664 14.44C131.507 14.44 132.259 14.6267 132.92 15C133.592 15.3627 134.115 15.8693 134.488 16.52C134.872 17.16 135.064 17.9067 135.064 18.76C135.064 19.6027 134.872 20.3493 134.488 21C134.115 21.6507 133.592 22.1627 132.92 22.536C132.259 22.9093 131.507 23.096 130.664 23.096ZM130.664 21.752C131.208 21.752 131.694 21.6293 132.12 21.384C132.558 21.1387 132.899 20.792 133.144 20.344C133.39 19.8853 133.512 19.3573 133.512 18.76C133.512 18.152 133.39 17.6293 133.144 17.192C132.899 16.744 132.558 16.3973 132.12 16.152C131.694 15.9067 131.208 15.784 130.664 15.784C130.12 15.784 129.635 15.9067 129.208 16.152C128.782 16.3973 128.44 16.744 128.184 17.192C127.928 17.6293 127.8 18.152 127.8 18.76C127.8 19.3573 127.928 19.8853 128.184 20.344C128.44 20.792 128.782 21.1387 129.208 21.384C129.635 21.6293 130.12 21.752 130.664 21.752ZM140.428 23.096C139.703 23.096 139.063 22.9627 138.508 22.696C137.964 22.4293 137.538 22.024 137.228 21.48C136.93 20.9253 136.78 20.232 136.78 19.4V14.52H138.316V19.224C138.316 20.056 138.514 20.68 138.908 21.096C139.314 21.512 139.879 21.72 140.604 21.72C141.138 21.72 141.602 21.6133 141.996 21.4C142.391 21.176 142.695 20.856 142.908 20.44C143.122 20.0133 143.228 19.5013 143.228 18.904V14.52H144.764V23H143.308V20.712L143.548 21.32C143.271 21.8853 142.855 22.3227 142.3 22.632C141.746 22.9413 141.122 23.096 140.428 23.096ZM150.272 23.096C149.418 23.096 148.757 22.8667 148.288 22.408C147.818 21.9493 147.584 21.2933 147.584 20.44V12.664H149.12V20.376C149.12 20.8347 149.232 21.1867 149.456 21.432C149.69 21.6773 150.021 21.8 150.448 21.8C150.928 21.8 151.328 21.6667 151.648 21.4L152.128 22.504C151.893 22.7067 151.61 22.856 151.28 22.952C150.96 23.048 150.624 23.096 150.272 23.096ZM146.144 15.784V14.52H151.552V15.784H146.144Z" fill="white"/>
</svg>
