<svg width="24" height="24" viewBox="0 0 24 24" fill="none" xmlns="http://www.w3.org/2000/svg">
<g clip-path="url(#clip0_593_7307)">
<path d="M12 3.1L7.05 8.05C6.07111 9.029 5.40449 10.2763 5.13445 11.6341C4.86442 12.992 5.00308 14.3994 5.53292 15.6784C6.06275 16.9575 6.95996 18.0507 8.11109 18.8198C9.26222 19.589 10.6156 19.9995 12 19.9995C13.3844 19.9995 14.7378 19.589 15.8889 18.8198C17.04 18.0507 17.9373 16.9575 18.4671 15.6784C18.9969 14.3994 19.1356 12.992 18.8656 11.6341C18.5955 10.2763 17.9289 9.029 16.95 8.05L12 3.1ZM12 0.272003L18.364 6.636C19.6227 7.89468 20.4798 9.49833 20.8271 11.2442C21.1743 12.99 20.9961 14.7996 20.3149 16.4441C19.6337 18.0886 18.4802 19.4942 17.0001 20.4832C15.5201 21.4721 13.78 21.9999 12 21.9999C10.22 21.9999 8.47992 21.4721 6.99988 20.4832C5.51984 19.4942 4.36629 18.0886 3.6851 16.4441C3.00391 14.7996 2.82567 12.99 3.17293 11.2442C3.52019 9.49833 4.37734 7.89468 5.636 6.636L12 0.272003Z" fill="#008CFF"/>
</g>
<g clip-path="url(#clip1_593_7307)">
<path d="M13.8383 7.616L16.3771 10.1544C16.4033 10.1805 16.4217 10.2134 16.4303 10.2493C16.4389 10.2853 16.4374 10.3229 16.4259 10.358C16.4145 10.3932 16.3935 10.4245 16.3653 10.4484C16.3371 10.4723 16.3029 10.488 16.2663 10.4936L15.6767 10.5856L13.4143 8.3232L13.4991 7.7292C13.5044 7.69247 13.5198 7.65793 13.5436 7.62944C13.5673 7.60096 13.5986 7.57965 13.6338 7.5679C13.669 7.55616 13.7068 7.55443 13.7429 7.56293C13.779 7.57142 13.812 7.5898 13.8383 7.616ZM9.03792 15.26C10.5267 13.9276 12.2359 13.5288 14.0951 13.052L14.2735 11.4448L12.5547 9.726L10.9475 9.9044C10.4707 11.7636 10.0719 13.4724 8.73952 14.9616L8.18152 14.404C9.31272 13.084 9.73752 11.6228 10.3027 9.1716L12.8483 8.8888L15.1111 11.1516L14.8283 13.6972C12.3771 14.2628 10.9155 14.6872 9.59592 15.8184L9.03792 15.26ZM11.1515 12.848C11.0751 12.7742 11.0142 12.6859 10.9722 12.5883C10.9303 12.4907 10.9082 12.3857 10.9073 12.2795C10.9064 12.1733 10.9266 12.068 10.9669 11.9696C11.0071 11.8713 11.0665 11.782 11.1416 11.7069C11.2167 11.6318 11.306 11.5724 11.4044 11.5321C11.5027 11.4919 11.608 11.4717 11.7142 11.4726C11.8205 11.4735 11.9254 11.4956 12.023 11.5375C12.1206 11.5794 12.2089 11.6404 12.2827 11.7168C12.4264 11.868 12.5054 12.0694 12.5028 12.278C12.5001 12.4866 12.4161 12.686 12.2686 12.8335C12.1211 12.9811 11.9218 13.0651 11.7132 13.0679C11.5046 13.0706 11.3032 12.9917 11.1519 12.848H11.1515Z" fill="#008CFF"/>
</g>
<defs>
<clipPath id="clip0_593_7307">
<rect width="24" height="24" fill="white"/>
</clipPath>
<clipPath id="clip1_593_7307">
<rect width="9.6" height="9.6" fill="white" transform="translate(7.19995 7.2)"/>
</clipPath>
</defs>
</svg>
