<svg width="70" height="26" viewBox="0 0 70 26" fill="none" xmlns="http://www.w3.org/2000/svg">
<rect y="0.0141602" width="70" height="25" rx="5" fill="#161C2D"/>
<path d="M11.25 17.0142V8.61416H14.706C15.45 8.61416 16.086 8.73416 16.614 8.97416C17.15 9.21416 17.562 9.55816 17.85 10.0062C18.138 10.4542 18.282 10.9862 18.282 11.6022C18.282 12.2182 18.138 12.7502 17.85 13.1982C17.562 13.6462 17.15 13.9902 16.614 14.2302C16.086 14.4702 15.45 14.5902 14.706 14.5902H12.114L12.81 13.8582V17.0142H11.25ZM12.81 14.0262L12.114 13.2702H14.634C15.322 13.2702 15.838 13.1262 16.182 12.8382C16.534 12.5422 16.71 12.1302 16.71 11.6022C16.71 11.0662 16.534 10.6542 16.182 10.3662C15.838 10.0782 15.322 9.93416 14.634 9.93416H12.114L12.81 9.16616V14.0262ZM19.3909 17.0142V10.6062H20.8189V12.3702L20.6509 11.8542C20.8429 11.4222 21.1429 11.0942 21.5509 10.8702C21.9669 10.6462 22.4829 10.5342 23.0989 10.5342V11.9622C23.0349 11.9462 22.9749 11.9382 22.9189 11.9382C22.8629 11.9302 22.8069 11.9262 22.7509 11.9262C22.1829 11.9262 21.7309 12.0942 21.3949 12.4302C21.0589 12.7582 20.8909 13.2502 20.8909 13.9062V17.0142H19.3909ZM26.9463 17.0982C26.2903 17.0982 25.7063 16.9582 25.1943 16.6782C24.6823 16.3902 24.2783 15.9982 23.9823 15.5022C23.6863 15.0062 23.5383 14.4422 23.5383 13.8102C23.5383 13.1702 23.6863 12.6062 23.9823 12.1182C24.2783 11.6222 24.6823 11.2342 25.1943 10.9542C25.7063 10.6742 26.2903 10.5342 26.9463 10.5342C27.6103 10.5342 28.1983 10.6742 28.7103 10.9542C29.2303 11.2342 29.6343 11.6182 29.9223 12.1062C30.2183 12.5942 30.3663 13.1622 30.3663 13.8102C30.3663 14.4422 30.2183 15.0062 29.9223 15.5022C29.6343 15.9982 29.2303 16.3902 28.7103 16.6782C28.1983 16.9582 27.6103 17.0982 26.9463 17.0982ZM26.9463 15.8142C27.3143 15.8142 27.6423 15.7342 27.9303 15.5742C28.2183 15.4142 28.4423 15.1822 28.6023 14.8782C28.7703 14.5742 28.8543 14.2182 28.8543 13.8102C28.8543 13.3942 28.7703 13.0382 28.6023 12.7422C28.4423 12.4382 28.2183 12.2062 27.9303 12.0462C27.6423 11.8862 27.3183 11.8062 26.9583 11.8062C26.5903 11.8062 26.2623 11.8862 25.9743 12.0462C25.6943 12.2062 25.4703 12.4382 25.3023 12.7422C25.1343 13.0382 25.0503 13.3942 25.0503 13.8102C25.0503 14.2182 25.1343 14.5742 25.3023 14.8782C25.4703 15.1822 25.6943 15.4142 25.9743 15.5742C26.2623 15.7342 26.5863 15.8142 26.9463 15.8142ZM34.4943 17.0982C33.8223 17.0982 33.2223 16.9582 32.6943 16.6782C32.1743 16.3902 31.7663 15.9982 31.4703 15.5022C31.1743 15.0062 31.0263 14.4422 31.0263 13.8102C31.0263 13.1702 31.1743 12.6062 31.4703 12.1182C31.7663 11.6222 32.1743 11.2342 32.6943 10.9542C33.2223 10.6742 33.8223 10.5342 34.4943 10.5342C35.1183 10.5342 35.6663 10.6622 36.1383 10.9182C36.6183 11.1662 36.9823 11.5342 37.2303 12.0222L36.0783 12.6942C35.8863 12.3902 35.6503 12.1662 35.3703 12.0222C35.0983 11.8782 34.8023 11.8062 34.4823 11.8062C34.1143 11.8062 33.7823 11.8862 33.4863 12.0462C33.1903 12.2062 32.9583 12.4382 32.7903 12.7422C32.6223 13.0382 32.5383 13.3942 32.5383 13.8102C32.5383 14.2262 32.6223 14.5862 32.7903 14.8902C32.9583 15.1862 33.1903 15.4142 33.4863 15.5742C33.7823 15.7342 34.1143 15.8142 34.4823 15.8142C34.8023 15.8142 35.0983 15.7422 35.3703 15.5982C35.6503 15.4542 35.8863 15.2302 36.0783 14.9262L37.2303 15.5982C36.9823 16.0782 36.6183 16.4502 36.1383 16.7142C35.6663 16.9702 35.1183 17.0982 34.4943 17.0982ZM41.1988 17.0982C40.4868 17.0982 39.8628 16.9582 39.3268 16.6782C38.7988 16.3902 38.3868 15.9982 38.0908 15.5022C37.8028 15.0062 37.6588 14.4422 37.6588 13.8102C37.6588 13.1702 37.7988 12.6062 38.0788 12.1182C38.3668 11.6222 38.7588 11.2342 39.2548 10.9542C39.7588 10.6742 40.3308 10.5342 40.9708 10.5342C41.5948 10.5342 42.1508 10.6702 42.6388 10.9422C43.1268 11.2142 43.5108 11.5982 43.7908 12.0942C44.0708 12.5902 44.2108 13.1742 44.2108 13.8462C44.2108 13.9102 44.2068 13.9822 44.1988 14.0622C44.1988 14.1422 44.1948 14.2182 44.1868 14.2902H38.8468V13.2942H43.3948L42.8068 13.6062C42.8148 13.2382 42.7388 12.9142 42.5788 12.6342C42.4188 12.3542 42.1988 12.1342 41.9188 11.9742C41.6468 11.8142 41.3308 11.7342 40.9708 11.7342C40.6028 11.7342 40.2788 11.8142 39.9988 11.9742C39.7268 12.1342 39.5108 12.3582 39.3508 12.6462C39.1988 12.9262 39.1228 13.2582 39.1228 13.6422V13.8822C39.1228 14.2662 39.2108 14.6062 39.3868 14.9022C39.5628 15.1982 39.8108 15.4262 40.1308 15.5862C40.4508 15.7462 40.8188 15.8262 41.2348 15.8262C41.5948 15.8262 41.9188 15.7702 42.2068 15.6582C42.4948 15.5462 42.7508 15.3702 42.9748 15.1302L43.7788 16.0542C43.4908 16.3902 43.1268 16.6502 42.6868 16.8342C42.2548 17.0102 41.7588 17.0982 41.1988 17.0982ZM48.4173 17.0982C47.7053 17.0982 47.0813 16.9582 46.5453 16.6782C46.0173 16.3902 45.6053 15.9982 45.3093 15.5022C45.0213 15.0062 44.8773 14.4422 44.8773 13.8102C44.8773 13.1702 45.0173 12.6062 45.2973 12.1182C45.5853 11.6222 45.9773 11.2342 46.4733 10.9542C46.9773 10.6742 47.5493 10.5342 48.1893 10.5342C48.8133 10.5342 49.3693 10.6702 49.8573 10.9422C50.3453 11.2142 50.7293 11.5982 51.0093 12.0942C51.2893 12.5902 51.4293 13.1742 51.4293 13.8462C51.4293 13.9102 51.4253 13.9822 51.4173 14.0622C51.4173 14.1422 51.4133 14.2182 51.4053 14.2902H46.0653V13.2942H50.6133L50.0253 13.6062C50.0333 13.2382 49.9573 12.9142 49.7973 12.6342C49.6373 12.3542 49.4173 12.1342 49.1373 11.9742C48.8653 11.8142 48.5493 11.7342 48.1893 11.7342C47.8213 11.7342 47.4973 11.8142 47.2173 11.9742C46.9453 12.1342 46.7293 12.3582 46.5693 12.6462C46.4173 12.9262 46.3413 13.2582 46.3413 13.6422V13.8822C46.3413 14.2662 46.4293 14.6062 46.6053 14.9022C46.7813 15.1982 47.0293 15.4262 47.3493 15.5862C47.6693 15.7462 48.0373 15.8262 48.4533 15.8262C48.8133 15.8262 49.1373 15.7702 49.4253 15.6582C49.7133 15.5462 49.9693 15.3702 50.1933 15.1302L50.9973 16.0542C50.7093 16.3902 50.3453 16.6502 49.9053 16.8342C49.4733 17.0102 48.9773 17.0982 48.4173 17.0982ZM55.3357 17.0982C54.7197 17.0982 54.1637 16.9622 53.6677 16.6902C53.1797 16.4102 52.7957 16.0262 52.5157 15.5382C52.2357 15.0502 52.0957 14.4742 52.0957 13.8102C52.0957 13.1462 52.2357 12.5702 52.5157 12.0822C52.7957 11.5942 53.1797 11.2142 53.6677 10.9422C54.1637 10.6702 54.7197 10.5342 55.3357 10.5342C55.8717 10.5342 56.3517 10.6542 56.7757 10.8942C57.1997 11.1262 57.5357 11.4822 57.7837 11.9622C58.0317 12.4422 58.1557 13.0582 58.1557 13.8102C58.1557 14.5542 58.0357 15.1702 57.7957 15.6582C57.5557 16.1382 57.2237 16.4982 56.7997 16.7382C56.3757 16.9782 55.8877 17.0982 55.3357 17.0982ZM55.5157 15.8142C55.8757 15.8142 56.1957 15.7342 56.4757 15.5742C56.7637 15.4142 56.9917 15.1822 57.1597 14.8782C57.3357 14.5742 57.4237 14.2182 57.4237 13.8102C57.4237 13.3942 57.3357 13.0382 57.1597 12.7422C56.9917 12.4382 56.7637 12.2062 56.4757 12.0462C56.1957 11.8862 55.8757 11.8062 55.5157 11.8062C55.1557 11.8062 54.8317 11.8862 54.5437 12.0462C54.2637 12.2062 54.0357 12.4382 53.8597 12.7422C53.6917 13.0382 53.6077 13.3942 53.6077 13.8102C53.6077 14.2182 53.6917 14.5742 53.8597 14.8782C54.0357 15.1822 54.2637 15.4142 54.5437 15.5742C54.8317 15.7342 55.1557 15.8142 55.5157 15.8142ZM57.4597 17.0142V15.5022L57.5197 13.7982L57.3997 12.0942V8.11016H58.8877V17.0142H57.4597Z" fill="white"/>
</svg>
