<svg width="85" height="34" viewBox="0 0 85 34" fill="none" xmlns="http://www.w3.org/2000/svg">
<rect x="0.5" y="0.541992" width="84" height="32" rx="9.5" fill="#161C2D"/>
<rect x="0.5" y="0.541992" width="84" height="32" rx="9.5" stroke="#161C2D"/>
<path d="M30.326 22.154C29.5793 22.154 28.8653 22.042 28.184 21.818C27.5027 21.5847 26.966 21.286 26.574 20.922L27.092 19.83C27.4653 20.1567 27.9413 20.4273 28.52 20.642C29.0987 20.8567 29.7007 20.964 30.326 20.964C30.8953 20.964 31.3573 20.8987 31.712 20.768C32.0667 20.6373 32.328 20.46 32.496 20.236C32.664 20.0027 32.748 19.7413 32.748 19.452C32.748 19.116 32.636 18.8453 32.412 18.64C32.1973 18.4347 31.9127 18.2713 31.558 18.15C31.2127 18.0193 30.83 17.9073 30.41 17.814C29.99 17.7207 29.5653 17.6133 29.136 17.492C28.716 17.3613 28.3287 17.198 27.974 17.002C27.6287 16.806 27.3487 16.5447 27.134 16.218C26.9193 15.882 26.812 15.4527 26.812 14.93C26.812 14.426 26.9427 13.964 27.204 13.544C27.4747 13.1147 27.8853 12.774 28.436 12.522C28.996 12.2607 29.7053 12.13 30.564 12.13C31.1333 12.13 31.698 12.2047 32.258 12.354C32.818 12.5033 33.3033 12.718 33.714 12.998L33.252 14.118C32.832 13.838 32.3887 13.6373 31.922 13.516C31.4553 13.3853 31.0027 13.32 30.564 13.32C30.0133 13.32 29.5607 13.39 29.206 13.53C28.8513 13.67 28.59 13.8567 28.422 14.09C28.2633 14.3233 28.184 14.5847 28.184 14.874C28.184 15.2193 28.2913 15.4947 28.506 15.7C28.73 15.9053 29.0147 16.0687 29.36 16.19C29.7147 16.3113 30.102 16.4233 30.522 16.526C30.942 16.6193 31.362 16.7267 31.782 16.848C32.2113 16.9693 32.5987 17.128 32.944 17.324C33.2987 17.52 33.5833 17.7813 33.798 18.108C34.0127 18.4347 34.12 18.8547 34.12 19.368C34.12 19.8627 33.9847 20.3247 33.714 20.754C33.4433 21.174 33.0233 21.5147 32.454 21.776C31.894 22.028 31.1847 22.154 30.326 22.154ZM40.2468 22.042V20.474L40.1768 20.18V17.506C40.1768 16.9367 40.0088 16.498 39.6728 16.19C39.3461 15.8727 38.8514 15.714 38.1888 15.714C37.7501 15.714 37.3208 15.7887 36.9008 15.938C36.4808 16.078 36.1261 16.2693 35.8368 16.512L35.2768 15.504C35.6594 15.196 36.1168 14.9627 36.6488 14.804C37.1901 14.636 37.7548 14.552 38.3428 14.552C39.3601 14.552 40.1441 14.7993 40.6948 15.294C41.2454 15.7887 41.5208 16.5447 41.5208 17.562V22.042H40.2468ZM37.8108 22.126C37.2601 22.126 36.7748 22.0327 36.3548 21.846C35.9441 21.6593 35.6268 21.4027 35.4028 21.076C35.1788 20.74 35.0668 20.362 35.0668 19.942C35.0668 19.5407 35.1601 19.1767 35.3468 18.85C35.5428 18.5233 35.8554 18.262 36.2848 18.066C36.7234 17.87 37.3114 17.772 38.0488 17.772H40.4008V18.738H38.1048C37.4328 18.738 36.9801 18.85 36.7468 19.074C36.5134 19.298 36.3968 19.5687 36.3968 19.886C36.3968 20.25 36.5414 20.544 36.8308 20.768C37.1201 20.9827 37.5214 21.09 38.0348 21.09C38.5388 21.09 38.9774 20.978 39.3508 20.754C39.7334 20.53 40.0088 20.2033 40.1768 19.774L40.4428 20.698C40.2654 21.1367 39.9528 21.4867 39.5048 21.748C39.0568 22 38.4921 22.126 37.8108 22.126ZM45.4887 22.042L42.2407 14.622H43.6407L46.5247 21.342H45.8527L48.7927 14.622H50.1087L46.8607 22.042H45.4887ZM54.1334 22.126C53.3401 22.126 52.6401 21.9627 52.0334 21.636C51.4361 21.3093 50.9694 20.8613 50.6334 20.292C50.3067 19.7227 50.1434 19.0693 50.1434 18.332C50.1434 17.5947 50.3021 16.9413 50.6194 16.372C50.9461 15.8027 51.3894 15.3593 51.9494 15.042C52.5187 14.7153 53.1581 14.552 53.8674 14.552C54.5861 14.552 55.2207 14.7107 55.7714 15.028C56.3221 15.3453 56.7514 15.7933 57.0594 16.372C57.3767 16.9413 57.5354 17.6087 57.5354 18.374C57.5354 18.43 57.5307 18.4953 57.5214 18.57C57.5214 18.6447 57.5167 18.7147 57.5074 18.78H51.1934V17.814H56.8074L56.2614 18.15C56.2707 17.674 56.1727 17.2493 55.9674 16.876C55.7621 16.5027 55.4774 16.2133 55.1134 16.008C54.7587 15.7933 54.3434 15.686 53.8674 15.686C53.4007 15.686 52.9854 15.7933 52.6214 16.008C52.2574 16.2133 51.9727 16.5073 51.7674 16.89C51.5621 17.2633 51.4594 17.6927 51.4594 18.178V18.402C51.4594 18.8967 51.5714 19.34 51.7954 19.732C52.0287 20.1147 52.3507 20.4133 52.7614 20.628C53.1721 20.8427 53.6434 20.95 54.1754 20.95C54.6141 20.95 55.0107 20.8753 55.3654 20.726C55.7294 20.5767 56.0467 20.3527 56.3174 20.054L57.0594 20.922C56.7234 21.314 56.3034 21.6127 55.7994 21.818C55.3047 22.0233 54.7494 22.126 54.1334 22.126Z" fill="white"/>
</svg>
