<svg width="70" height="37" viewBox="0 0 70 37" fill="none" xmlns="http://www.w3.org/2000/svg">
<rect y="0.133301" width="70" height="36" rx="5" fill="#161C2D"/>
<path d="M16.826 23.2453C16.0793 23.2453 15.3653 23.1333 14.684 22.9093C14.0027 22.676 13.466 22.3773 13.074 22.0133L13.592 20.9213C13.9653 21.248 14.4413 21.5186 15.02 21.7333C15.5987 21.948 16.2007 22.0553 16.826 22.0553C17.3953 22.0553 17.8573 21.99 18.212 21.8593C18.5667 21.7286 18.828 21.5513 18.996 21.3273C19.164 21.094 19.248 20.8326 19.248 20.5433C19.248 20.2073 19.136 19.9366 18.912 19.7313C18.6973 19.526 18.4127 19.3626 18.058 19.2413C17.7127 19.1106 17.33 18.9986 16.91 18.9053C16.49 18.812 16.0653 18.7046 15.636 18.5833C15.216 18.4526 14.8287 18.2893 14.474 18.0933C14.1287 17.8973 13.8487 17.636 13.634 17.3093C13.4193 16.9733 13.312 16.544 13.312 16.0213C13.312 15.5173 13.4427 15.0553 13.704 14.6353C13.9747 14.206 14.3853 13.8653 14.936 13.6133C15.496 13.352 16.2053 13.2213 17.064 13.2213C17.6333 13.2213 18.198 13.296 18.758 13.4453C19.318 13.5946 19.8033 13.8093 20.214 14.0893L19.752 15.2093C19.332 14.9293 18.8887 14.7286 18.422 14.6073C17.9553 14.4766 17.5027 14.4113 17.064 14.4113C16.5133 14.4113 16.0607 14.4813 15.706 14.6213C15.3513 14.7613 15.09 14.948 14.922 15.1813C14.7633 15.4146 14.684 15.676 14.684 15.9653C14.684 16.3106 14.7913 16.586 15.006 16.7913C15.23 16.9966 15.5147 17.16 15.86 17.2813C16.2147 17.4026 16.602 17.5146 17.022 17.6173C17.442 17.7106 17.862 17.818 18.282 17.9393C18.7113 18.0606 19.0987 18.2193 19.444 18.4153C19.7987 18.6113 20.0833 18.8726 20.298 19.1993C20.5127 19.526 20.62 19.946 20.62 20.4593C20.62 20.954 20.4847 21.416 20.214 21.8453C19.9433 22.2653 19.5233 22.606 18.954 22.8673C18.394 23.1193 17.6847 23.2453 16.826 23.2453ZM25.5269 23.2173C24.7336 23.2173 24.0336 23.054 23.4269 22.7273C22.8296 22.4006 22.3629 21.9526 22.0269 21.3833C21.7002 20.814 21.5369 20.1606 21.5369 19.4233C21.5369 18.686 21.6956 18.0326 22.0129 17.4633C22.3396 16.894 22.7829 16.4506 23.3429 16.1333C23.9122 15.8066 24.5516 15.6433 25.2609 15.6433C25.9796 15.6433 26.6142 15.802 27.1649 16.1193C27.7156 16.4366 28.1449 16.8846 28.4529 17.4633C28.7702 18.0326 28.9289 18.7 28.9289 19.4653C28.9289 19.5213 28.9242 19.5866 28.9149 19.6613C28.9149 19.736 28.9102 19.806 28.9009 19.8713H22.5869V18.9053H28.2009L27.6549 19.2413C27.6642 18.7653 27.5662 18.3406 27.3609 17.9673C27.1556 17.594 26.8709 17.3046 26.5069 17.0993C26.1522 16.8846 25.7369 16.7773 25.2609 16.7773C24.7942 16.7773 24.3789 16.8846 24.0149 17.0993C23.6509 17.3046 23.3662 17.5986 23.1609 17.9813C22.9556 18.3546 22.8529 18.784 22.8529 19.2693V19.4933C22.8529 19.988 22.9649 20.4313 23.1889 20.8233C23.4222 21.206 23.7442 21.5046 24.1549 21.7193C24.5656 21.934 25.0369 22.0413 25.5689 22.0413C26.0076 22.0413 26.4042 21.9666 26.7589 21.8173C27.1229 21.668 27.4402 21.444 27.7109 21.1453L28.4529 22.0133C28.1169 22.4053 27.6969 22.704 27.1929 22.9093C26.6982 23.1146 26.1429 23.2173 25.5269 23.2173ZM33.8528 23.2173C33.0594 23.2173 32.3594 23.054 31.7528 22.7273C31.1554 22.4006 30.6888 21.9526 30.3528 21.3833C30.0261 20.814 29.8628 20.1606 29.8628 19.4233C29.8628 18.686 30.0214 18.0326 30.3388 17.4633C30.6654 16.894 31.1088 16.4506 31.6688 16.1333C32.2381 15.8066 32.8774 15.6433 33.5868 15.6433C34.3054 15.6433 34.9401 15.802 35.4908 16.1193C36.0414 16.4366 36.4708 16.8846 36.7788 17.4633C37.0961 18.0326 37.2548 18.7 37.2548 19.4653C37.2548 19.5213 37.2501 19.5866 37.2408 19.6613C37.2408 19.736 37.2361 19.806 37.2268 19.8713H30.9128V18.9053H36.5268L35.9808 19.2413C35.9901 18.7653 35.8921 18.3406 35.6868 17.9673C35.4814 17.594 35.1968 17.3046 34.8328 17.0993C34.4781 16.8846 34.0628 16.7773 33.5868 16.7773C33.1201 16.7773 32.7048 16.8846 32.3408 17.0993C31.9768 17.3046 31.6921 17.5986 31.4868 17.9813C31.2814 18.3546 31.1788 18.784 31.1788 19.2693V19.4933C31.1788 19.988 31.2908 20.4313 31.5148 20.8233C31.7481 21.206 32.0701 21.5046 32.4808 21.7193C32.8914 21.934 33.3628 22.0413 33.8948 22.0413C34.3334 22.0413 34.7301 21.9666 35.0848 21.8173C35.4488 21.668 35.7661 21.444 36.0368 21.1453L36.7788 22.0133C36.4428 22.4053 36.0228 22.704 35.5188 22.9093C35.0241 23.1146 34.4688 23.2173 33.8528 23.2173ZM46.994 23.1333V21.5653L46.924 21.2713V18.5973C46.924 18.028 46.756 17.5893 46.42 17.2813C46.0933 16.964 45.5987 16.8053 44.936 16.8053C44.4973 16.8053 44.068 16.88 43.648 17.0293C43.228 17.1693 42.8733 17.3606 42.584 17.6033L42.024 16.5953C42.4067 16.2873 42.864 16.054 43.396 15.8953C43.9373 15.7273 44.502 15.6433 45.09 15.6433C46.1073 15.6433 46.8913 15.8906 47.442 16.3853C47.9927 16.88 48.268 17.636 48.268 18.6533V23.1333H46.994ZM44.558 23.2173C44.0073 23.2173 43.522 23.124 43.102 22.9373C42.6913 22.7506 42.374 22.494 42.15 22.1673C41.926 21.8313 41.814 21.4533 41.814 21.0333C41.814 20.632 41.9073 20.268 42.094 19.9413C42.29 19.6146 42.6027 19.3533 43.032 19.1573C43.4707 18.9613 44.0587 18.8633 44.796 18.8633H47.148V19.8293H44.852C44.18 19.8293 43.7273 19.9413 43.494 20.1653C43.2607 20.3893 43.144 20.66 43.144 20.9773C43.144 21.3413 43.2887 21.6353 43.578 21.8593C43.8673 22.074 44.2687 22.1813 44.782 22.1813C45.286 22.1813 45.7247 22.0693 46.098 21.8453C46.4807 21.6213 46.756 21.2946 46.924 20.8653L47.19 21.7893C47.0127 22.228 46.7 22.578 46.252 22.8393C45.804 23.0913 45.2393 23.2173 44.558 23.2173ZM50.5088 23.1333V12.7453H51.8528V23.1333H50.5088ZM54.1726 23.1333V12.7453H55.5166V23.1333H54.1726Z" fill="white"/>
</svg>
