<svg width="335" height="61" viewBox="0 0 335 61" fill="none" xmlns="http://www.w3.org/2000/svg">
<g clip-path="url(#clip0_1_537)">
<rect width="335" height="61" rx="16" fill="#161C2D"/>
<rect width="335" height="61" rx="16" fill="#161C2D"/>
<path d="M140.81 40V24.6H146.904C148.532 24.6 149.962 24.93 151.194 25.59C152.426 26.25 153.379 27.1593 154.054 28.318C154.743 29.4767 155.088 30.804 155.088 32.3C155.088 33.796 154.743 35.1233 154.054 36.282C153.379 37.4407 152.426 38.35 151.194 39.01C149.962 39.67 148.532 40 146.904 40H140.81ZM141.932 38.988H146.816C148.268 38.988 149.529 38.702 150.6 38.13C151.671 37.558 152.499 36.7733 153.086 35.776C153.673 34.764 153.966 33.6053 153.966 32.3C153.966 30.9947 153.673 29.8433 153.086 28.846C152.499 27.834 151.671 27.042 150.6 26.47C149.529 25.898 148.268 25.612 146.816 25.612H141.932V38.988ZM163.122 40.088C162.022 40.088 161.039 39.8387 160.174 39.34C159.323 38.8413 158.641 38.152 158.128 37.272C157.629 36.392 157.38 35.3873 157.38 34.258C157.38 33.114 157.629 32.1093 158.128 31.244C158.641 30.364 159.323 29.6747 160.174 29.176C161.039 28.6773 162.022 28.428 163.122 28.428C164.222 28.428 165.204 28.6773 166.07 29.176C166.935 29.6747 167.617 30.364 168.116 31.244C168.614 32.1093 168.864 33.114 168.864 34.258C168.864 35.3873 168.614 36.392 168.116 37.272C167.617 38.152 166.935 38.8413 166.07 39.34C165.204 39.8387 164.222 40.088 163.122 40.088ZM163.122 39.098C164.002 39.098 164.794 38.9 165.498 38.504C166.202 38.0933 166.752 37.5213 167.148 36.788C167.544 36.0547 167.742 35.2113 167.742 34.258C167.742 33.29 167.544 32.4467 167.148 31.728C166.752 30.9947 166.202 30.43 165.498 30.034C164.794 29.6233 164.002 29.418 163.122 29.418C162.242 29.418 161.45 29.6233 160.746 30.034C160.056 30.43 159.506 30.9947 159.096 31.728C158.7 32.4467 158.502 33.29 158.502 34.258C158.502 35.2113 158.7 36.0547 159.096 36.788C159.506 37.5213 160.056 38.0933 160.746 38.504C161.45 38.9 162.242 39.098 163.122 39.098ZM177.886 28.428C178.825 28.428 179.639 28.6113 180.328 28.978C181.032 29.33 181.575 29.8727 181.956 30.606C182.352 31.3247 182.55 32.2193 182.55 33.29V40H181.45V33.378C181.45 32.0873 181.12 31.1047 180.46 30.43C179.815 29.7553 178.906 29.418 177.732 29.418C176.838 29.418 176.06 29.6013 175.4 29.968C174.74 30.3347 174.234 30.848 173.882 31.508C173.545 32.168 173.376 32.96 173.376 33.884V40H172.276V28.516H173.332V31.706L173.178 31.354C173.53 30.4447 174.11 29.7333 174.916 29.22C175.723 28.692 176.713 28.428 177.886 28.428ZM191.743 40.088C190.584 40.088 189.558 39.8387 188.663 39.34C187.783 38.8413 187.086 38.152 186.573 37.272C186.074 36.392 185.825 35.3873 185.825 34.258C185.825 33.114 186.06 32.1093 186.529 31.244C187.013 30.364 187.673 29.6747 188.509 29.176C189.345 28.6773 190.284 28.428 191.325 28.428C192.366 28.428 193.298 28.67 194.119 29.154C194.955 29.638 195.608 30.32 196.077 31.2C196.561 32.0653 196.803 33.07 196.803 34.214C196.803 34.258 196.796 34.3093 196.781 34.368C196.781 34.412 196.781 34.4633 196.781 34.522H186.639V33.664H196.187L195.747 34.082C195.762 33.1873 195.571 32.388 195.175 31.684C194.794 30.9653 194.273 30.408 193.613 30.012C192.953 29.6013 192.19 29.396 191.325 29.396C190.474 29.396 189.712 29.6013 189.037 30.012C188.377 30.408 187.856 30.9653 187.475 31.684C187.094 32.388 186.903 33.1947 186.903 34.104V34.302C186.903 35.2407 187.108 36.0767 187.519 36.81C187.944 37.5287 188.524 38.0933 189.257 38.504C189.99 38.9 190.826 39.098 191.765 39.098C192.498 39.098 193.18 38.966 193.811 38.702C194.456 38.438 194.999 38.0347 195.439 37.492L196.077 38.218C195.578 38.834 194.948 39.3033 194.185 39.626C193.437 39.934 192.623 40.088 191.743 40.088Z" fill="white"/>
</g>
<defs>
<clipPath id="clip0_1_537">
<rect width="335" height="61" rx="16" fill="white"/>
</clipPath>
</defs>
</svg>
