<svg width="370" height="33" viewBox="0 0 370 33" fill="none" xmlns="http://www.w3.org/2000/svg">
<rect x="0.5" y="0.5" width="369" height="32" rx="9.5" fill="white"/>
<rect x="0.5" y="0.5" width="369" height="32" rx="9.5" stroke="white"/>
<path d="M140.826 22.112C140.079 22.112 139.365 22 138.684 21.776C138.003 21.5427 137.466 21.244 137.074 20.88L137.592 19.788C137.965 20.1147 138.441 20.3853 139.02 20.6C139.599 20.8147 140.201 20.922 140.826 20.922C141.395 20.922 141.857 20.8567 142.212 20.726C142.567 20.5953 142.828 20.418 142.996 20.194C143.164 19.9607 143.248 19.6993 143.248 19.41C143.248 19.074 143.136 18.8033 142.912 18.598C142.697 18.3927 142.413 18.2293 142.058 18.108C141.713 17.9773 141.33 17.8653 140.91 17.772C140.49 17.6787 140.065 17.5713 139.636 17.45C139.216 17.3193 138.829 17.156 138.474 16.96C138.129 16.764 137.849 16.5027 137.634 16.176C137.419 15.84 137.312 15.4107 137.312 14.888C137.312 14.384 137.443 13.922 137.704 13.502C137.975 13.0727 138.385 12.732 138.936 12.48C139.496 12.2187 140.205 12.088 141.064 12.088C141.633 12.088 142.198 12.1627 142.758 12.312C143.318 12.4613 143.803 12.676 144.214 12.956L143.752 14.076C143.332 13.796 142.889 13.5953 142.422 13.474C141.955 13.3433 141.503 13.278 141.064 13.278C140.513 13.278 140.061 13.348 139.706 13.488C139.351 13.628 139.09 13.8147 138.922 14.048C138.763 14.2813 138.684 14.5427 138.684 14.832C138.684 15.1773 138.791 15.4527 139.006 15.658C139.23 15.8633 139.515 16.0267 139.86 16.148C140.215 16.2693 140.602 16.3813 141.022 16.484C141.442 16.5773 141.862 16.6847 142.282 16.806C142.711 16.9273 143.099 17.086 143.444 17.282C143.799 17.478 144.083 17.7393 144.298 18.066C144.513 18.3927 144.62 18.8127 144.62 19.326C144.62 19.8207 144.485 20.2827 144.214 20.712C143.943 21.132 143.523 21.4727 142.954 21.734C142.394 21.986 141.685 22.112 140.826 22.112ZM149.263 22.084C148.628 22.084 148.068 21.9673 147.583 21.734C147.107 21.5007 146.733 21.146 146.463 20.67C146.201 20.1847 146.071 19.578 146.071 18.85V14.58H147.415V18.696C147.415 19.424 147.587 19.97 147.933 20.334C148.287 20.698 148.782 20.88 149.417 20.88C149.883 20.88 150.289 20.7867 150.635 20.6C150.98 20.404 151.246 20.124 151.433 19.76C151.619 19.3867 151.713 18.9387 151.713 18.416V14.58H153.057V22H151.783V19.998L151.993 20.53C151.75 21.0247 151.386 21.4073 150.901 21.678C150.415 21.9487 149.869 22.084 149.263 22.084ZM159.221 22.084C158.586 22.084 158.012 21.944 157.499 21.664C156.995 21.3747 156.594 20.95 156.295 20.39C156.006 19.83 155.861 19.13 155.861 18.29C155.861 17.45 156.01 16.75 156.309 16.19C156.617 15.63 157.023 15.21 157.527 14.93C158.04 14.65 158.605 14.51 159.221 14.51C159.949 14.51 160.593 14.6687 161.153 14.986C161.713 15.3033 162.156 15.7467 162.483 16.316C162.81 16.876 162.973 17.534 162.973 18.29C162.973 19.046 162.81 19.7087 162.483 20.278C162.156 20.8473 161.713 21.2907 161.153 21.608C160.593 21.9253 159.949 22.084 159.221 22.084ZM155.287 22V11.612H156.631V16.554L156.491 18.276L156.575 19.998V22H155.287ZM159.109 20.908C159.585 20.908 160.01 20.8007 160.383 20.586C160.766 20.3713 161.064 20.068 161.279 19.676C161.503 19.2747 161.615 18.8127 161.615 18.29C161.615 17.758 161.503 17.3007 161.279 16.918C161.064 16.526 160.766 16.2227 160.383 16.008C160.01 15.7933 159.585 15.686 159.109 15.686C158.642 15.686 158.218 15.7933 157.835 16.008C157.462 16.2227 157.163 16.526 156.939 16.918C156.724 17.3007 156.617 17.758 156.617 18.29C156.617 18.8127 156.724 19.2747 156.939 19.676C157.163 20.068 157.462 20.3713 157.835 20.586C158.218 20.8007 158.642 20.908 159.109 20.908ZM173.783 14.51C174.381 14.51 174.908 14.6267 175.365 14.86C175.823 15.0933 176.177 15.448 176.429 15.924C176.691 16.4 176.821 17.002 176.821 17.73V22H175.477V17.884C175.477 17.1653 175.309 16.624 174.973 16.26C174.637 15.896 174.166 15.714 173.559 15.714C173.111 15.714 172.719 15.8073 172.383 15.994C172.047 16.1807 171.786 16.456 171.599 16.82C171.422 17.184 171.333 17.6367 171.333 18.178V22H169.989V17.884C169.989 17.1653 169.821 16.624 169.485 16.26C169.159 15.896 168.687 15.714 168.071 15.714C167.633 15.714 167.245 15.8073 166.909 15.994C166.573 16.1807 166.312 16.456 166.125 16.82C165.939 17.184 165.845 17.6367 165.845 18.178V22H164.501V14.58H165.789V16.554L165.579 16.05C165.813 15.5647 166.172 15.1867 166.657 14.916C167.143 14.6453 167.707 14.51 168.351 14.51C169.061 14.51 169.672 14.6873 170.185 15.042C170.699 15.3873 171.035 15.9147 171.193 16.624L170.647 16.4C170.871 15.8307 171.263 15.3733 171.823 15.028C172.383 14.6827 173.037 14.51 173.783 14.51ZM178.966 22V14.58H180.31V22H178.966ZM179.638 13.152C179.376 13.152 179.157 13.068 178.98 12.9C178.812 12.732 178.728 12.5267 178.728 12.284C178.728 12.032 178.812 11.822 178.98 11.654C179.157 11.486 179.376 11.402 179.638 11.402C179.899 11.402 180.114 11.486 180.282 11.654C180.459 11.8127 180.548 12.0133 180.548 12.256C180.548 12.508 180.464 12.7227 180.296 12.9C180.128 13.068 179.908 13.152 179.638 13.152ZM185.095 22.084C184.349 22.084 183.77 21.8833 183.359 21.482C182.949 21.0807 182.743 20.5067 182.743 19.76V12.956H184.087V19.704C184.087 20.1053 184.185 20.4133 184.381 20.628C184.587 20.8427 184.876 20.95 185.249 20.95C185.669 20.95 186.019 20.8333 186.299 20.6L186.719 21.566C186.514 21.7433 186.267 21.874 185.977 21.958C185.697 22.042 185.403 22.084 185.095 22.084ZM181.483 15.686V14.58H186.215V15.686H181.483ZM191.447 22V14.58H192.735V16.596L192.609 16.092C192.814 15.5787 193.16 15.1867 193.645 14.916C194.13 14.6453 194.728 14.51 195.437 14.51V15.812C195.381 15.8027 195.325 15.798 195.269 15.798C195.222 15.798 195.176 15.798 195.129 15.798C194.41 15.798 193.841 16.0127 193.421 16.442C193.001 16.8713 192.791 17.492 192.791 18.304V22H191.447ZM200.001 22.084C199.207 22.084 198.507 21.9207 197.901 21.594C197.303 21.2673 196.837 20.8193 196.501 20.25C196.174 19.6807 196.011 19.0273 196.011 18.29C196.011 17.5527 196.169 16.8993 196.487 16.33C196.813 15.7607 197.257 15.3173 197.817 15C198.386 14.6733 199.025 14.51 199.735 14.51C200.453 14.51 201.088 14.6687 201.639 14.986C202.189 15.3033 202.619 15.7513 202.927 16.33C203.244 16.8993 203.403 17.5667 203.403 18.332C203.403 18.388 203.398 18.4533 203.389 18.528C203.389 18.6027 203.384 18.6727 203.375 18.738H197.061V17.772H202.675L202.129 18.108C202.138 17.632 202.04 17.2073 201.835 16.834C201.629 16.4607 201.345 16.1713 200.981 15.966C200.626 15.7513 200.211 15.644 199.735 15.644C199.268 15.644 198.853 15.7513 198.489 15.966C198.125 16.1713 197.84 16.4653 197.635 16.848C197.429 17.2213 197.327 17.6507 197.327 18.136V18.36C197.327 18.8547 197.439 19.298 197.663 19.69C197.896 20.0727 198.218 20.3713 198.629 20.586C199.039 20.8007 199.511 20.908 200.043 20.908C200.481 20.908 200.878 20.8333 201.233 20.684C201.597 20.5347 201.914 20.3107 202.185 20.012L202.927 20.88C202.591 21.272 202.171 21.5707 201.667 21.776C201.172 21.9813 200.617 22.084 200.001 22.084ZM208.874 22.084C208.258 22.084 207.694 21.944 207.18 21.664C206.676 21.3747 206.27 20.95 205.962 20.39C205.664 19.83 205.514 19.13 205.514 18.29C205.514 17.45 205.659 16.75 205.948 16.19C206.247 15.63 206.648 15.21 207.152 14.93C207.666 14.65 208.24 14.51 208.874 14.51C209.602 14.51 210.246 14.6687 210.806 14.986C211.366 15.3033 211.81 15.7467 212.136 16.316C212.463 16.876 212.626 17.534 212.626 18.29C212.626 19.046 212.463 19.7087 212.136 20.278C211.81 20.8473 211.366 21.2907 210.806 21.608C210.246 21.9253 209.602 22.084 208.874 22.084ZM204.94 24.716V14.58H206.228V16.582L206.144 18.304L206.284 20.026V24.716H204.94ZM208.762 20.908C209.238 20.908 209.663 20.8007 210.036 20.586C210.419 20.3713 210.718 20.068 210.932 19.676C211.156 19.2747 211.268 18.8127 211.268 18.29C211.268 17.758 211.156 17.3007 210.932 16.918C210.718 16.526 210.419 16.2227 210.036 16.008C209.663 15.7933 209.238 15.686 208.762 15.686C208.296 15.686 207.871 15.7933 207.488 16.008C207.115 16.2227 206.816 16.526 206.592 16.918C206.378 17.3007 206.27 17.758 206.27 18.29C206.27 18.8127 206.378 19.2747 206.592 19.676C206.816 20.068 207.115 20.3713 207.488 20.586C207.871 20.8007 208.296 20.908 208.762 20.908ZM217.333 22.084C216.586 22.084 215.923 21.9207 215.345 21.594C214.766 21.2673 214.309 20.8193 213.973 20.25C213.637 19.6713 213.469 19.018 213.469 18.29C213.469 17.5527 213.637 16.8993 213.973 16.33C214.309 15.7607 214.766 15.3173 215.345 15C215.923 14.6733 216.586 14.51 217.333 14.51C218.07 14.51 218.728 14.6733 219.307 15C219.895 15.3173 220.352 15.7607 220.679 16.33C221.015 16.89 221.183 17.5433 221.183 18.29C221.183 19.0273 221.015 19.6807 220.679 20.25C220.352 20.8193 219.895 21.2673 219.307 21.594C218.728 21.9207 218.07 22.084 217.333 22.084ZM217.333 20.908C217.809 20.908 218.233 20.8007 218.607 20.586C218.989 20.3713 219.288 20.068 219.503 19.676C219.717 19.2747 219.825 18.8127 219.825 18.29C219.825 17.758 219.717 17.3007 219.503 16.918C219.288 16.526 218.989 16.2227 218.607 16.008C218.233 15.7933 217.809 15.686 217.333 15.686C216.857 15.686 216.432 15.7933 216.059 16.008C215.685 16.2227 215.387 16.526 215.163 16.918C214.939 17.3007 214.827 17.758 214.827 18.29C214.827 18.8127 214.939 19.2747 215.163 19.676C215.387 20.068 215.685 20.3713 216.059 20.586C216.432 20.8007 216.857 20.908 217.333 20.908ZM222.713 22V14.58H224.001V16.596L223.875 16.092C224.08 15.5787 224.426 15.1867 224.911 14.916C225.396 14.6453 225.994 14.51 226.703 14.51V15.812C226.647 15.8027 226.591 15.798 226.535 15.798C226.488 15.798 226.442 15.798 226.395 15.798C225.676 15.798 225.107 16.0127 224.687 16.442C224.267 16.8713 224.057 17.492 224.057 18.304V22H222.713ZM230.88 22.084C230.133 22.084 229.554 21.8833 229.144 21.482C228.733 21.0807 228.528 20.5067 228.528 19.76V12.956H229.872V19.704C229.872 20.1053 229.97 20.4133 230.166 20.628C230.371 20.8427 230.66 20.95 231.034 20.95C231.454 20.95 231.804 20.8333 232.084 20.6L232.504 21.566C232.298 21.7433 232.051 21.874 231.762 21.958C231.482 22.042 231.188 22.084 230.88 22.084ZM227.268 15.686V14.58H232V15.686H227.268Z" fill="#161C2D"/>
</svg>
