<svg width="185" height="46" viewBox="0 0 185 46" fill="none" xmlns="http://www.w3.org/2000/svg">
<rect width="185" height="46" rx="5" fill="white"/>
<path d="M24.976 29.16C24.1013 29.16 23.264 29.0373 22.464 28.792C21.664 28.536 21.0293 28.2107 20.56 27.816L21.28 26.2C21.728 26.552 22.2827 26.8453 22.944 27.08C23.6053 27.3147 24.2827 27.432 24.976 27.432C25.5627 27.432 26.0373 27.368 26.4 27.24C26.7627 27.112 27.0293 26.9413 27.2 26.728C27.3707 26.504 27.456 26.2533 27.456 25.976C27.456 25.6347 27.3333 25.3627 27.088 25.16C26.8427 24.9467 26.5227 24.7813 26.128 24.664C25.744 24.536 25.312 24.4187 24.832 24.312C24.3627 24.2053 23.888 24.0827 23.408 23.944C22.9387 23.7947 22.5067 23.608 22.112 23.384C21.728 23.1493 21.4133 22.84 21.168 22.456C20.9227 22.072 20.8 21.5813 20.8 20.984C20.8 20.376 20.96 19.8213 21.28 19.32C21.6107 18.808 22.1067 18.4027 22.768 18.104C23.44 17.7947 24.288 17.64 25.312 17.64C25.984 17.64 26.6507 17.7253 27.312 17.896C27.9733 18.0667 28.5493 18.312 29.04 18.632L28.384 20.248C27.8827 19.9493 27.3653 19.7307 26.832 19.592C26.2987 19.4427 25.7867 19.368 25.296 19.368C24.72 19.368 24.2507 19.4373 23.888 19.576C23.536 19.7147 23.2747 19.896 23.104 20.12C22.944 20.344 22.864 20.6 22.864 20.888C22.864 21.2293 22.9813 21.5067 23.216 21.72C23.4613 21.9227 23.776 22.0827 24.16 22.2C24.5547 22.3173 24.992 22.4347 25.472 22.552C25.952 22.6587 26.4267 22.7813 26.896 22.92C27.376 23.0587 27.808 23.24 28.192 23.464C28.5867 23.688 28.9013 23.992 29.136 24.376C29.3813 24.76 29.504 25.2453 29.504 25.832C29.504 26.4293 29.3387 26.984 29.008 27.496C28.688 27.9973 28.192 28.4027 27.52 28.712C26.848 29.0107 26 29.16 24.976 29.16ZM35.1441 29.112C34.1948 29.112 33.3628 28.9253 32.6481 28.552C31.9441 28.168 31.3948 27.6453 31.0001 26.984C30.6161 26.3227 30.4241 25.5707 30.4241 24.728C30.4241 23.8747 30.6108 23.1227 30.9841 22.472C31.3681 21.8107 31.8908 21.2933 32.5521 20.92C33.2241 20.5467 33.9868 20.36 34.8401 20.36C35.6721 20.36 36.4134 20.5413 37.0641 20.904C37.7148 21.2667 38.2268 21.7787 38.6001 22.44C38.9734 23.1013 39.1601 23.88 39.1601 24.776C39.1601 24.8613 39.1548 24.9573 39.1441 25.064C39.1441 25.1707 39.1388 25.272 39.1281 25.368H32.0081V24.04H38.0721L37.2881 24.456C37.2988 23.9653 37.1974 23.5333 36.9841 23.16C36.7708 22.7867 36.4774 22.4933 36.1041 22.28C35.7414 22.0667 35.3201 21.96 34.8401 21.96C34.3494 21.96 33.9174 22.0667 33.5441 22.28C33.1814 22.4933 32.8934 22.792 32.6801 23.176C32.4774 23.5493 32.3761 23.992 32.3761 24.504V24.824C32.3761 25.336 32.4934 25.7893 32.7281 26.184C32.9628 26.5787 33.2934 26.8827 33.7201 27.096C34.1468 27.3093 34.6374 27.416 35.1921 27.416C35.6721 27.416 36.1041 27.3413 36.4881 27.192C36.8721 27.0427 37.2134 26.808 37.5121 26.488L38.5841 27.72C38.2001 28.168 37.7148 28.5147 37.1281 28.76C36.5521 28.9947 35.8908 29.112 35.1441 29.112ZM44.0508 29.112C43.1122 29.112 42.3868 28.872 41.8748 28.392C41.3628 27.9013 41.1068 27.1813 41.1068 26.232V18.568H43.1068V26.184C43.1068 26.5893 43.2082 26.904 43.4108 27.128C43.6242 27.352 43.9175 27.464 44.2908 27.464C44.7388 27.464 45.1122 27.3467 45.4108 27.112L45.9708 28.536C45.7362 28.728 45.4482 28.872 45.1068 28.968C44.7655 29.064 44.4135 29.112 44.0508 29.112ZM39.6988 22.12V20.52H45.3948V22.12H39.6988ZM56.3932 20.36C57.0758 20.36 57.6838 20.4933 58.2172 20.76C58.7612 21.0267 59.1878 21.4373 59.4972 21.992C59.8065 22.536 59.9612 23.24 59.9612 24.104V29H57.9612V24.36C57.9612 23.6027 57.7798 23.0373 57.4172 22.664C57.0652 22.2907 56.5692 22.104 55.9292 22.104C55.4598 22.104 55.0438 22.2 54.6812 22.392C54.3185 22.584 54.0358 22.872 53.8332 23.256C53.6412 23.6293 53.5452 24.104 53.5452 24.68V29H51.5452V20.456H53.4492V22.76L53.1132 22.056C53.4118 21.512 53.8438 21.096 54.4092 20.808C54.9852 20.5093 55.6465 20.36 56.3932 20.36ZM66.2835 29.112C65.3342 29.112 64.5022 28.9253 63.7875 28.552C63.0835 28.168 62.5342 27.6453 62.1395 26.984C61.7555 26.3227 61.5635 25.5707 61.5635 24.728C61.5635 23.8747 61.7502 23.1227 62.1235 22.472C62.5075 21.8107 63.0302 21.2933 63.6915 20.92C64.3635 20.5467 65.1262 20.36 65.9795 20.36C66.8115 20.36 67.5528 20.5413 68.2035 20.904C68.8542 21.2667 69.3662 21.7787 69.7395 22.44C70.1128 23.1013 70.2995 23.88 70.2995 24.776C70.2995 24.8613 70.2942 24.9573 70.2835 25.064C70.2835 25.1707 70.2782 25.272 70.2675 25.368H63.1475V24.04H69.2115L68.4275 24.456C68.4382 23.9653 68.3368 23.5333 68.1235 23.16C67.9102 22.7867 67.6168 22.4933 67.2435 22.28C66.8808 22.0667 66.4595 21.96 65.9795 21.96C65.4888 21.96 65.0568 22.0667 64.6835 22.28C64.3208 22.4933 64.0328 22.792 63.8195 23.176C63.6168 23.5493 63.5155 23.992 63.5155 24.504V24.824C63.5155 25.336 63.6328 25.7893 63.8675 26.184C64.1022 26.5787 64.4328 26.8827 64.8595 27.096C65.2862 27.3093 65.7768 27.416 66.3315 27.416C66.8115 27.416 67.2435 27.3413 67.6275 27.192C68.0115 27.0427 68.3528 26.808 68.6515 26.488L69.7235 27.72C69.3395 28.168 68.8542 28.5147 68.2675 28.76C67.6915 28.9947 67.0302 29.112 66.2835 29.112ZM73.706 29L70.57 20.456H72.458L75.146 27.992H74.25L77.066 20.456H78.746L81.482 27.992H80.602L83.37 20.456H85.146L81.994 29H80.074L77.578 22.328H78.17L75.626 29H73.706ZM90.4502 29V20.456H92.3542V22.808L92.1302 22.12C92.3862 21.544 92.7862 21.1067 93.3302 20.808C93.8848 20.5093 94.5728 20.36 95.3942 20.36V22.264C95.3088 22.2427 95.2288 22.232 95.1542 22.232C95.0795 22.2213 95.0048 22.216 94.9302 22.216C94.1728 22.216 93.5702 22.44 93.1222 22.888C92.6742 23.3253 92.4502 23.9813 92.4502 24.856V29H90.4502ZM100.782 29.112C99.8329 29.112 99.0009 28.9253 98.2863 28.552C97.5823 28.168 97.0329 27.6453 96.6383 26.984C96.2543 26.3227 96.0623 25.5707 96.0623 24.728C96.0623 23.8747 96.2489 23.1227 96.6223 22.472C97.0063 21.8107 97.5289 21.2933 98.1903 20.92C98.8623 20.5467 99.6249 20.36 100.478 20.36C101.31 20.36 102.052 20.5413 102.702 20.904C103.353 21.2667 103.865 21.7787 104.238 22.44C104.612 23.1013 104.798 23.88 104.798 24.776C104.798 24.8613 104.793 24.9573 104.782 25.064C104.782 25.1707 104.777 25.272 104.766 25.368H97.6463V24.04H103.71L102.926 24.456C102.937 23.9653 102.836 23.5333 102.622 23.16C102.409 22.7867 102.116 22.4933 101.742 22.28C101.38 22.0667 100.958 21.96 100.478 21.96C99.9876 21.96 99.5556 22.0667 99.1823 22.28C98.8196 22.4933 98.5316 22.792 98.3183 23.176C98.1156 23.5493 98.0143 23.992 98.0143 24.504V24.824C98.0143 25.336 98.1316 25.7893 98.3663 26.184C98.6009 26.5787 98.9316 26.8827 99.3583 27.096C99.7849 27.3093 100.276 27.416 100.83 27.416C101.31 27.416 101.742 27.3413 102.126 27.192C102.51 27.0427 102.852 26.808 103.15 26.488L104.222 27.72C103.838 28.168 103.353 28.5147 102.766 28.76C102.19 28.9947 101.529 29.112 100.782 29.112ZM117.257 20.36C117.94 20.36 118.542 20.4933 119.065 20.76C119.598 21.0267 120.014 21.4373 120.313 21.992C120.612 22.536 120.761 23.24 120.761 24.104V29H118.761V24.36C118.761 23.6027 118.596 23.0373 118.265 22.664C117.934 22.2907 117.46 22.104 116.841 22.104C116.404 22.104 116.014 22.2 115.673 22.392C115.342 22.584 115.081 22.8667 114.889 23.24C114.708 23.6133 114.617 24.088 114.617 24.664V29H112.617V24.36C112.617 23.6027 112.452 23.0373 112.121 22.664C111.79 22.2907 111.316 22.104 110.697 22.104C110.26 22.104 109.87 22.2 109.529 22.392C109.198 22.584 108.937 22.8667 108.745 23.24C108.564 23.6133 108.473 24.088 108.473 24.664V29H106.473V20.456H108.377V22.728L108.041 22.056C108.329 21.5013 108.745 21.08 109.289 20.792C109.844 20.504 110.473 20.36 111.177 20.36C111.977 20.36 112.67 20.5573 113.257 20.952C113.854 21.3467 114.249 21.944 114.441 22.744L113.657 22.472C113.934 21.832 114.393 21.32 115.033 20.936C115.673 20.552 116.414 20.36 117.257 20.36ZM123.07 29V20.456H125.07V29H123.07ZM124.078 19.048C123.705 19.048 123.396 18.9307 123.15 18.696C122.916 18.4613 122.798 18.1787 122.798 17.848C122.798 17.5067 122.916 17.224 123.15 17C123.396 16.7653 123.705 16.648 124.078 16.648C124.452 16.648 124.756 16.76 124.99 16.984C125.236 17.1973 125.358 17.4693 125.358 17.8C125.358 18.152 125.241 18.4507 125.006 18.696C124.772 18.9307 124.462 19.048 124.078 19.048ZM132.297 20.36C132.98 20.36 133.588 20.4933 134.121 20.76C134.665 21.0267 135.092 21.4373 135.401 21.992C135.71 22.536 135.865 23.24 135.865 24.104V29H133.865V24.36C133.865 23.6027 133.684 23.0373 133.321 22.664C132.969 22.2907 132.473 22.104 131.833 22.104C131.364 22.104 130.948 22.2 130.585 22.392C130.222 22.584 129.94 22.872 129.737 23.256C129.545 23.6293 129.449 24.104 129.449 24.68V29H127.449V20.456H129.353V22.76L129.017 22.056C129.316 21.512 129.748 21.096 130.313 20.808C130.889 20.5093 131.55 20.36 132.297 20.36ZM141.787 29.112C140.966 29.112 140.225 28.9307 139.563 28.568C138.913 28.1947 138.401 27.6827 138.027 27.032C137.654 26.3813 137.467 25.6133 137.467 24.728C137.467 23.8427 137.654 23.0747 138.027 22.424C138.401 21.7733 138.913 21.2667 139.563 20.904C140.225 20.5413 140.966 20.36 141.787 20.36C142.502 20.36 143.142 20.52 143.707 20.84C144.273 21.1493 144.721 21.624 145.051 22.264C145.382 22.904 145.547 23.7253 145.547 24.728C145.547 25.72 145.387 26.5413 145.067 27.192C144.747 27.832 144.305 28.312 143.739 28.632C143.174 28.952 142.523 29.112 141.787 29.112ZM142.027 27.4C142.507 27.4 142.934 27.2933 143.307 27.08C143.691 26.8667 143.995 26.5573 144.219 26.152C144.454 25.7467 144.571 25.272 144.571 24.728C144.571 24.1733 144.454 23.6987 144.219 23.304C143.995 22.8987 143.691 22.5893 143.307 22.376C142.934 22.1627 142.507 22.056 142.027 22.056C141.547 22.056 141.115 22.1627 140.731 22.376C140.358 22.5893 140.054 22.8987 139.819 23.304C139.595 23.6987 139.483 24.1733 139.483 24.728C139.483 25.272 139.595 25.7467 139.819 26.152C140.054 26.5573 140.358 26.8667 140.731 27.08C141.115 27.2933 141.547 27.4 142.027 27.4ZM144.619 29V26.984L144.699 24.712L144.539 22.44V17.128H146.523V29H144.619ZM152.925 29.112C151.976 29.112 151.144 28.9253 150.429 28.552C149.725 28.168 149.176 27.6453 148.781 26.984C148.397 26.3227 148.205 25.5707 148.205 24.728C148.205 23.8747 148.392 23.1227 148.765 22.472C149.149 21.8107 149.672 21.2933 150.333 20.92C151.005 20.5467 151.768 20.36 152.621 20.36C153.453 20.36 154.195 20.5413 154.845 20.904C155.496 21.2667 156.008 21.7787 156.381 22.44C156.755 23.1013 156.941 23.88 156.941 24.776C156.941 24.8613 156.936 24.9573 156.925 25.064C156.925 25.1707 156.92 25.272 156.909 25.368H149.789V24.04H155.853L155.069 24.456C155.08 23.9653 154.979 23.5333 154.765 23.16C154.552 22.7867 154.259 22.4933 153.885 22.28C153.523 22.0667 153.101 21.96 152.621 21.96C152.131 21.96 151.699 22.0667 151.325 22.28C150.963 22.4933 150.675 22.792 150.461 23.176C150.259 23.5493 150.157 23.992 150.157 24.504V24.824C150.157 25.336 150.275 25.7893 150.509 26.184C150.744 26.5787 151.075 26.8827 151.501 27.096C151.928 27.3093 152.419 27.416 152.973 27.416C153.453 27.416 153.885 27.3413 154.269 27.192C154.653 27.0427 154.995 26.808 155.293 26.488L156.365 27.72C155.981 28.168 155.496 28.5147 154.909 28.76C154.333 28.9947 153.672 29.112 152.925 29.112ZM158.616 29V20.456H160.52V22.808L160.296 22.12C160.552 21.544 160.952 21.1067 161.496 20.808C162.051 20.5093 162.739 20.36 163.56 20.36V22.264C163.475 22.2427 163.395 22.232 163.32 22.232C163.245 22.2213 163.171 22.216 163.096 22.216C162.339 22.216 161.736 22.44 161.288 22.888C160.84 23.3253 160.616 23.9813 160.616 24.856V29H158.616Z" fill="#161C2D"/>
</svg>
