<svg width="46" height="28" viewBox="0 0 46 28" fill="none" xmlns="http://www.w3.org/2000/svg">
<rect y="0.771057" width="46" height="27" rx="10" fill="#DADADA"/>
<path d="M9.26 18.7711V10.3711H10.244L15.8 17.2711H15.284V10.3711H16.484V18.7711H15.5L9.944 11.8711H10.46V18.7711H9.26ZM19.8319 14.3431H24.1639V15.3751H19.8319V14.3431ZM19.9519 18.7711H18.7519V10.3711H24.6799V11.4151H19.9519V18.7711ZM27.8493 18.7711V11.4151H24.9693V10.3711H31.9173V11.4151H29.0373V18.7711H27.8493ZM34.1768 18.8431C33.6488 18.8431 33.1448 18.7711 32.6648 18.6271C32.1928 18.4831 31.8208 18.3071 31.5488 18.0991L32.0288 17.1871C32.3008 17.3711 32.6368 17.5271 33.0368 17.6551C33.4368 17.7831 33.8448 17.8471 34.2608 17.8471C34.7968 17.8471 35.1808 17.7711 35.4128 17.6191C35.6528 17.4671 35.7728 17.2551 35.7728 16.9831C35.7728 16.7831 35.7008 16.6271 35.5568 16.5151C35.4128 16.4031 35.2208 16.3191 34.9808 16.2631C34.7488 16.2071 34.4888 16.1591 34.2008 16.1191C33.9128 16.0711 33.6248 16.0151 33.3368 15.9511C33.0488 15.8791 32.7848 15.7831 32.5448 15.6631C32.3048 15.5351 32.1128 15.3631 31.9688 15.1471C31.8248 14.9231 31.7528 14.6271 31.7528 14.2591C31.7528 13.8751 31.8608 13.5391 32.0768 13.2511C32.2928 12.9631 32.5968 12.7431 32.9888 12.5911C33.3888 12.4311 33.8608 12.3511 34.4048 12.3511C34.8208 12.3511 35.2408 12.4031 35.6648 12.5071C36.0968 12.6031 36.4488 12.7431 36.7208 12.9271L36.2288 13.8391C35.9408 13.6471 35.6408 13.5151 35.3288 13.4431C35.0168 13.3711 34.7048 13.3351 34.3928 13.3351C33.8888 13.3351 33.5128 13.4191 33.2648 13.5871C33.0168 13.7471 32.8928 13.9551 32.8928 14.2111C32.8928 14.4271 32.9648 14.5951 33.1088 14.7151C33.2608 14.8271 33.4528 14.9151 33.6848 14.9791C33.9248 15.0431 34.1888 15.0991 34.4768 15.1471C34.7648 15.1871 35.0528 15.2431 35.3408 15.3151C35.6288 15.3791 35.8888 15.4711 36.1208 15.5911C36.3608 15.7111 36.5528 15.8791 36.6968 16.0951C36.8488 16.3111 36.9248 16.5991 36.9248 16.9591C36.9248 17.3431 36.8128 17.6751 36.5888 17.9551C36.3648 18.2351 36.0488 18.4551 35.6408 18.6151C35.2328 18.7671 34.7448 18.8431 34.1768 18.8431Z" fill="#202020" fill-opacity="0.5"/>
</svg>
