<svg width="135" height="28" viewBox="0 0 135 28" fill="none" xmlns="http://www.w3.org/2000/svg">
<rect y="0.771057" width="135" height="27" rx="10" fill="#DADADA"/>
<path d="M9.26 18.7711V10.3711H12.536C13.272 10.3711 13.9 10.4871 14.42 10.7191C14.94 10.9511 15.34 11.2871 15.62 11.7271C15.9 12.1671 16.04 12.6911 16.04 13.2991C16.04 13.9071 15.9 14.4311 15.62 14.8711C15.34 15.3031 14.94 15.6391 14.42 15.8791C13.9 16.1111 13.272 16.2271 12.536 16.2271H9.92L10.46 15.6631V18.7711H9.26ZM10.46 15.7831L9.92 15.1831H12.5C13.268 15.1831 13.848 15.0191 14.24 14.6911C14.64 14.3631 14.84 13.8991 14.84 13.2991C14.84 12.6991 14.64 12.2351 14.24 11.9071C13.848 11.5791 13.268 11.4151 12.5 11.4151H9.92L10.46 10.8151V15.7831ZM17.2714 18.7711V12.4111H18.3754V14.1391L18.2674 13.7071C18.4434 13.2671 18.7394 12.9311 19.1554 12.6991C19.5714 12.4671 20.0834 12.3511 20.6914 12.3511V13.4671C20.6434 13.4591 20.5954 13.4551 20.5474 13.4551C20.5074 13.4551 20.4674 13.4551 20.4274 13.4551C19.8114 13.4551 19.3234 13.6391 18.9634 14.0071C18.6034 14.3751 18.4234 14.9071 18.4234 15.6031V18.7711H17.2714ZM24.5302 18.8431C23.8902 18.8431 23.3222 18.7031 22.8262 18.4231C22.3302 18.1431 21.9382 17.7591 21.6502 17.2711C21.3622 16.7751 21.2182 16.2151 21.2182 15.5911C21.2182 14.9591 21.3622 14.3991 21.6502 13.9111C21.9382 13.4231 22.3302 13.0431 22.8262 12.7711C23.3222 12.4911 23.8902 12.3511 24.5302 12.3511C25.1622 12.3511 25.7262 12.4911 26.2222 12.7711C26.7262 13.0431 27.1182 13.4231 27.3982 13.9111C27.6862 14.3911 27.8302 14.9511 27.8302 15.5911C27.8302 16.2231 27.6862 16.7831 27.3982 17.2711C27.1182 17.7591 26.7262 18.1431 26.2222 18.4231C25.7262 18.7031 25.1622 18.8431 24.5302 18.8431ZM24.5302 17.8351C24.9382 17.8351 25.3022 17.7431 25.6222 17.5591C25.9502 17.3751 26.2062 17.1151 26.3902 16.7791C26.5742 16.4351 26.6662 16.0391 26.6662 15.5911C26.6662 15.1351 26.5742 14.7431 26.3902 14.4151C26.2062 14.0791 25.9502 13.8191 25.6222 13.6351C25.3022 13.4511 24.9382 13.3591 24.5302 13.3591C24.1222 13.3591 23.7582 13.4511 23.4382 13.6351C23.1182 13.8191 22.8622 14.0791 22.6702 14.4151C22.4782 14.7431 22.3822 15.1351 22.3822 15.5911C22.3822 16.0391 22.4782 16.4351 22.6702 16.7791C22.8622 17.1151 23.1182 17.3751 23.4382 17.5591C23.7582 17.7431 24.1222 17.8351 24.5302 17.8351ZM37.133 12.3511C37.645 12.3511 38.097 12.4511 38.489 12.6511C38.881 12.8511 39.185 13.1551 39.401 13.5631C39.625 13.9711 39.737 14.4871 39.737 15.1111V18.7711H38.585V15.2431C38.585 14.6271 38.441 14.1631 38.153 13.8511C37.865 13.5391 37.461 13.3831 36.941 13.3831C36.557 13.3831 36.221 13.4631 35.933 13.6231C35.645 13.7831 35.421 14.0191 35.261 14.3311C35.109 14.6431 35.033 15.0311 35.033 15.4951V18.7711H33.881V15.2431C33.881 14.6271 33.737 14.1631 33.449 13.8511C33.169 13.5391 32.765 13.3831 32.237 13.3831C31.861 13.3831 31.529 13.4631 31.241 13.6231C30.953 13.7831 30.729 14.0191 30.569 14.3311C30.409 14.6431 30.329 15.0311 30.329 15.4951V18.7711H29.177V12.4111H30.281V14.1031L30.101 13.6711C30.301 13.2551 30.609 12.9311 31.025 12.6991C31.441 12.4671 31.925 12.3511 32.477 12.3511C33.085 12.3511 33.609 12.5031 34.049 12.8071C34.489 13.1031 34.777 13.5551 34.913 14.1631L34.445 13.9711C34.637 13.4831 34.973 13.0911 35.453 12.7951C35.933 12.4991 36.493 12.3511 37.133 12.3511ZM44.3343 18.8431C43.6943 18.8431 43.1263 18.7031 42.6303 18.4231C42.1343 18.1431 41.7423 17.7591 41.4543 17.2711C41.1663 16.7751 41.0223 16.2151 41.0223 15.5911C41.0223 14.9591 41.1663 14.3991 41.4543 13.9111C41.7423 13.4231 42.1343 13.0431 42.6303 12.7711C43.1263 12.4911 43.6943 12.3511 44.3343 12.3511C44.9663 12.3511 45.5303 12.4911 46.0263 12.7711C46.5303 13.0431 46.9223 13.4231 47.2023 13.9111C47.4903 14.3911 47.6343 14.9511 47.6343 15.5911C47.6343 16.2231 47.4903 16.7831 47.2023 17.2711C46.9223 17.7591 46.5303 18.1431 46.0263 18.4231C45.5303 18.7031 44.9663 18.8431 44.3343 18.8431ZM44.3343 17.8351C44.7423 17.8351 45.1063 17.7431 45.4263 17.5591C45.7543 17.3751 46.0103 17.1151 46.1943 16.7791C46.3783 16.4351 46.4703 16.0391 46.4703 15.5911C46.4703 15.1351 46.3783 14.7431 46.1943 14.4151C46.0103 14.0791 45.7543 13.8191 45.4263 13.6351C45.1063 13.4511 44.7423 13.3591 44.3343 13.3591C43.9263 13.3591 43.5623 13.4511 43.2423 13.6351C42.9223 13.8191 42.6663 14.0791 42.4743 14.4151C42.2823 14.7431 42.1863 15.1351 42.1863 15.5911C42.1863 16.0391 42.2823 16.4351 42.4743 16.7791C42.6663 17.1151 42.9223 17.3751 43.2423 17.5591C43.5623 17.7431 43.9263 17.8351 44.3343 17.8351ZM51.1651 18.8431C50.5251 18.8431 50.0291 18.6711 49.6771 18.3271C49.3251 17.9831 49.1491 17.4911 49.1491 16.8511V11.0191H50.3011V16.8031C50.3011 17.1471 50.3851 17.4111 50.5531 17.5951C50.7291 17.7791 50.9771 17.8711 51.2971 17.8711C51.6571 17.8711 51.9571 17.7711 52.1971 17.5711L52.5571 18.3991C52.3811 18.5511 52.1691 18.6631 51.9211 18.7351C51.6811 18.8071 51.4291 18.8431 51.1651 18.8431ZM48.0691 13.3591V12.4111H52.1251V13.3591H48.0691ZM53.7034 18.7711V12.4111H54.8554V18.7711H53.7034ZM54.2794 11.1871C54.0554 11.1871 53.8674 11.1151 53.7154 10.9711C53.5714 10.8271 53.4994 10.6511 53.4994 10.4431C53.4994 10.2271 53.5714 10.0471 53.7154 9.90306C53.8674 9.75906 54.0554 9.68706 54.2794 9.68706C54.5034 9.68706 54.6874 9.75906 54.8314 9.90306C54.9834 10.0391 55.0594 10.2111 55.0594 10.4191C55.0594 10.6351 54.9874 10.8191 54.8434 10.9711C54.6994 11.1151 54.5114 11.1871 54.2794 11.1871ZM59.5326 18.8431C58.8926 18.8431 58.3246 18.7031 57.8286 18.4231C57.3326 18.1431 56.9406 17.7591 56.6526 17.2711C56.3646 16.7751 56.2206 16.2151 56.2206 15.5911C56.2206 14.9591 56.3646 14.3991 56.6526 13.9111C56.9406 13.4231 57.3326 13.0431 57.8286 12.7711C58.3246 12.4911 58.8926 12.3511 59.5326 12.3511C60.1646 12.3511 60.7286 12.4911 61.2246 12.7711C61.7286 13.0431 62.1206 13.4231 62.4006 13.9111C62.6886 14.3911 62.8326 14.9511 62.8326 15.5911C62.8326 16.2231 62.6886 16.7831 62.4006 17.2711C62.1206 17.7591 61.7286 18.1431 61.2246 18.4231C60.7286 18.7031 60.1646 18.8431 59.5326 18.8431ZM59.5326 17.8351C59.9406 17.8351 60.3046 17.7431 60.6246 17.5591C60.9526 17.3751 61.2086 17.1151 61.3926 16.7791C61.5766 16.4351 61.6686 16.0391 61.6686 15.5911C61.6686 15.1351 61.5766 14.7431 61.3926 14.4151C61.2086 14.0791 60.9526 13.8191 60.6246 13.6351C60.3046 13.4511 59.9406 13.3591 59.5326 13.3591C59.1246 13.3591 58.7606 13.4511 58.4406 13.6351C58.1206 13.8191 57.8646 14.0791 57.6726 14.4151C57.4806 14.7431 57.3846 15.1351 57.3846 15.5911C57.3846 16.0391 57.4806 16.4351 57.6726 16.7791C57.8646 17.1151 58.1206 17.3751 58.4406 17.5591C58.7606 17.7431 59.1246 17.8351 59.5326 17.8351ZM67.5754 12.3511C68.0954 12.3511 68.5514 12.4511 68.9434 12.6511C69.3434 12.8511 69.6554 13.1551 69.8794 13.5631C70.1034 13.9711 70.2154 14.4871 70.2154 15.1111V18.7711H69.0634V15.2431C69.0634 14.6271 68.9114 14.1631 68.6074 13.8511C68.3114 13.5391 67.8914 13.3831 67.3474 13.3831C66.9394 13.3831 66.5834 13.4631 66.2794 13.6231C65.9754 13.7831 65.7394 14.0191 65.5714 14.3311C65.4114 14.6431 65.3314 15.0311 65.3314 15.4951V18.7711H64.1794V12.4111H65.2834V14.1271L65.1034 13.6711C65.3114 13.2551 65.6314 12.9311 66.0634 12.6991C66.4954 12.4671 66.9994 12.3511 67.5754 12.3511ZM76.049 18.7711V17.4271L75.989 17.1751V14.8831C75.989 14.3951 75.845 14.0191 75.557 13.7551C75.277 13.4831 74.853 13.3471 74.285 13.3471C73.909 13.3471 73.541 13.4111 73.181 13.5391C72.821 13.6591 72.517 13.8231 72.269 14.0311L71.789 13.1671C72.117 12.9031 72.509 12.7031 72.965 12.5671C73.429 12.4231 73.913 12.3511 74.417 12.3511C75.289 12.3511 75.961 12.5631 76.433 12.9871C76.905 13.4111 77.141 14.0591 77.141 14.9311V18.7711H76.049ZM73.961 18.8431C73.489 18.8431 73.073 18.7631 72.713 18.6031C72.361 18.4431 72.089 18.2231 71.897 17.9431C71.705 17.6551 71.609 17.3311 71.609 16.9711C71.609 16.6271 71.689 16.3151 71.849 16.0351C72.017 15.7551 72.285 15.5311 72.653 15.3631C73.029 15.1951 73.533 15.1111 74.165 15.1111H76.181V15.9391H74.213C73.637 15.9391 73.249 16.0351 73.049 16.2271C72.849 16.4191 72.749 16.6511 72.749 16.9231C72.749 17.2351 72.873 17.4871 73.121 17.6791C73.369 17.8631 73.713 17.9551 74.153 17.9551C74.585 17.9551 74.961 17.8591 75.281 17.6671C75.609 17.4751 75.845 17.1951 75.989 16.8271L76.217 17.6191C76.065 17.9951 75.797 18.2951 75.413 18.5191C75.029 18.7351 74.545 18.8431 73.961 18.8431ZM79.0264 18.7711V9.86706H80.1784V18.7711H79.0264ZM89.0559 18.7711V17.4271L88.9959 17.1751V14.8831C88.9959 14.3951 88.8519 14.0191 88.5639 13.7551C88.2839 13.4831 87.8599 13.3471 87.2919 13.3471C86.9159 13.3471 86.5479 13.4111 86.1879 13.5391C85.8279 13.6591 85.5239 13.8231 85.2759 14.0311L84.7959 13.1671C85.1239 12.9031 85.5159 12.7031 85.9719 12.5671C86.4359 12.4231 86.9199 12.3511 87.4239 12.3511C88.2959 12.3511 88.9679 12.5631 89.4399 12.9871C89.9119 13.4111 90.1479 14.0591 90.1479 14.9311V18.7711H89.0559ZM86.9679 18.8431C86.4959 18.8431 86.0799 18.7631 85.7199 18.6031C85.3679 18.4431 85.0959 18.2231 84.9039 17.9431C84.7119 17.6551 84.6159 17.3311 84.6159 16.9711C84.6159 16.6271 84.6959 16.3151 84.8559 16.0351C85.0239 15.7551 85.2919 15.5311 85.6599 15.3631C86.0359 15.1951 86.5399 15.1111 87.1719 15.1111H89.1879V15.9391H87.2199C86.6439 15.9391 86.2559 16.0351 86.0559 16.2271C85.8559 16.4191 85.7559 16.6511 85.7559 16.9231C85.7559 17.2351 85.8799 17.4871 86.1279 17.6791C86.3759 17.8631 86.7199 17.9551 87.1599 17.9551C87.5919 17.9551 87.9679 17.8591 88.2879 17.6671C88.6159 17.4751 88.8519 17.1951 88.9959 16.8271L89.2239 17.6191C89.0719 17.9951 88.8039 18.2951 88.4199 18.5191C88.0359 18.7351 87.5519 18.8431 86.9679 18.8431ZM92.0333 18.7711V12.4111H93.1853V18.7711H92.0333ZM92.6093 11.1871C92.3853 11.1871 92.1973 11.1151 92.0453 10.9711C91.9013 10.8271 91.8293 10.6511 91.8293 10.4431C91.8293 10.2271 91.9013 10.0471 92.0453 9.90306C92.1973 9.75906 92.3853 9.68706 92.6093 9.68706C92.8333 9.68706 93.0173 9.75906 93.1613 9.90306C93.3133 10.0391 93.3893 10.2111 93.3893 10.4191C93.3893 10.6351 93.3173 10.8191 93.1733 10.9711C93.0293 11.1151 92.8413 11.1871 92.6093 11.1871ZM95.1385 18.7711V12.4111H96.2425V14.1391L96.1345 13.7071C96.3105 13.2671 96.6065 12.9311 97.0225 12.6991C97.4385 12.4671 97.9505 12.3511 98.5585 12.3511V13.4671C98.5105 13.4591 98.4625 13.4551 98.4145 13.4551C98.3745 13.4551 98.3345 13.4551 98.2945 13.4551C97.6785 13.4551 97.1905 13.6391 96.8305 14.0071C96.4705 14.3751 96.2905 14.9071 96.2905 15.6031V18.7711H95.1385ZM102.301 18.8431C101.685 18.8431 101.133 18.7071 100.645 18.4351C100.165 18.1631 99.7853 17.7831 99.5053 17.2951C99.2253 16.8071 99.0853 16.2391 99.0853 15.5911C99.0853 14.9431 99.2253 14.3791 99.5053 13.8991C99.7853 13.4111 100.165 13.0311 100.645 12.7591C101.133 12.4871 101.685 12.3511 102.301 12.3511C102.837 12.3511 103.321 12.4711 103.753 12.7111C104.185 12.9511 104.529 13.3111 104.785 13.7911C105.049 14.2711 105.181 14.8711 105.181 15.5911C105.181 16.3111 105.053 16.9111 104.797 17.3911C104.549 17.8711 104.209 18.2351 103.777 18.4831C103.345 18.7231 102.853 18.8431 102.301 18.8431ZM102.397 17.8351C102.797 17.8351 103.157 17.7431 103.477 17.5591C103.805 17.3751 104.061 17.1151 104.245 16.7791C104.437 16.4351 104.533 16.0391 104.533 15.5911C104.533 15.1351 104.437 14.7431 104.245 14.4151C104.061 14.0791 103.805 13.8191 103.477 13.6351C103.157 13.4511 102.797 13.3591 102.397 13.3591C101.989 13.3591 101.625 13.4511 101.305 13.6351C100.985 13.8191 100.729 14.0791 100.537 14.4151C100.345 14.7431 100.249 15.1351 100.249 15.5911C100.249 16.0391 100.345 16.4351 100.537 16.7791C100.729 17.1151 100.985 17.3751 101.305 17.5591C101.625 17.7431 101.989 17.8351 102.397 17.8351ZM104.569 18.7711V17.0551L104.641 15.5791L104.521 14.1031V9.86706H105.673V18.7711H104.569ZM107.607 18.7711V12.4111H108.711V14.1391L108.603 13.7071C108.779 13.2671 109.075 12.9311 109.491 12.6991C109.907 12.4671 110.419 12.3511 111.027 12.3511V13.4671C110.979 13.4591 110.931 13.4551 110.883 13.4551C110.843 13.4551 110.803 13.4551 110.763 13.4551C110.147 13.4551 109.659 13.6391 109.299 14.0071C108.939 14.3751 108.759 14.9071 108.759 15.6031V18.7711H107.607ZM114.865 18.8431C114.225 18.8431 113.657 18.7031 113.161 18.4231C112.665 18.1431 112.273 17.7591 111.985 17.2711C111.697 16.7751 111.553 16.2151 111.553 15.5911C111.553 14.9591 111.697 14.3991 111.985 13.9111C112.273 13.4231 112.665 13.0431 113.161 12.7711C113.657 12.4911 114.225 12.3511 114.865 12.3511C115.497 12.3511 116.061 12.4911 116.557 12.7711C117.061 13.0431 117.453 13.4231 117.733 13.9111C118.021 14.3911 118.165 14.9511 118.165 15.5911C118.165 16.2231 118.021 16.7831 117.733 17.2711C117.453 17.7591 117.061 18.1431 116.557 18.4231C116.061 18.7031 115.497 18.8431 114.865 18.8431ZM114.865 17.8351C115.273 17.8351 115.637 17.7431 115.957 17.5591C116.285 17.3751 116.541 17.1151 116.725 16.7791C116.909 16.4351 117.001 16.0391 117.001 15.5911C117.001 15.1351 116.909 14.7431 116.725 14.4151C116.541 14.0791 116.285 13.8191 115.957 13.6351C115.637 13.4511 115.273 13.3591 114.865 13.3591C114.457 13.3591 114.093 13.4511 113.773 13.6351C113.453 13.8191 113.197 14.0791 113.005 14.4151C112.813 14.7431 112.717 15.1351 112.717 15.5911C112.717 16.0391 112.813 16.4351 113.005 16.7791C113.197 17.1151 113.453 17.3751 113.773 17.5591C114.093 17.7431 114.457 17.8351 114.865 17.8351ZM122.884 18.8431C122.356 18.8431 121.872 18.7231 121.432 18.4831C121 18.2351 120.652 17.8711 120.388 17.3911C120.132 16.9111 120.004 16.3111 120.004 15.5911C120.004 14.8711 120.128 14.2711 120.376 13.7911C120.632 13.3111 120.976 12.9511 121.408 12.7111C121.848 12.4711 122.34 12.3511 122.884 12.3511C123.508 12.3511 124.06 12.4871 124.54 12.7591C125.02 13.0311 125.4 13.4111 125.68 13.8991C125.96 14.3791 126.1 14.9431 126.1 15.5911C126.1 16.2391 125.96 16.8071 125.68 17.2951C125.4 17.7831 125.02 18.1631 124.54 18.4351C124.06 18.7071 123.508 18.8431 122.884 18.8431ZM119.512 21.0991V12.4111H120.616V14.1271L120.544 15.6031L120.664 17.0791V21.0991H119.512ZM122.788 17.8351C123.196 17.8351 123.56 17.7431 123.88 17.5591C124.208 17.3751 124.464 17.1151 124.648 16.7791C124.84 16.4351 124.936 16.0391 124.936 15.5911C124.936 15.1351 124.84 14.7431 124.648 14.4151C124.464 14.0791 124.208 13.8191 123.88 13.6351C123.56 13.4511 123.196 13.3591 122.788 13.3591C122.388 13.3591 122.024 13.4511 121.696 13.6351C121.376 13.8191 121.12 14.0791 120.928 14.4151C120.744 14.7431 120.652 15.1351 120.652 15.5911C120.652 16.0391 120.744 16.4351 120.928 16.7791C121.12 17.1151 121.376 17.3751 121.696 17.5591C122.024 17.7431 122.388 17.8351 122.788 17.8351Z" fill="#202020" fill-opacity="0.5"/>
</svg>
