<svg width="66" height="28" viewBox="0 0 66 28" fill="none" xmlns="http://www.w3.org/2000/svg">
<rect y="0.771057" width="66" height="27" rx="10" fill="#DADADA"/>
<path d="M13.052 18.8671C12.404 18.8671 11.808 18.7631 11.264 18.5551C10.72 18.3391 10.248 18.0391 9.848 17.6551C9.448 17.2631 9.136 16.8071 8.912 16.2871C8.688 15.7671 8.576 15.1951 8.576 14.5711C8.576 13.9471 8.688 13.3751 8.912 12.8551C9.136 12.3351 9.448 11.8831 9.848 11.4991C10.256 11.1071 10.732 10.8071 11.276 10.5991C11.82 10.3831 12.42 10.2751 13.076 10.2751C13.74 10.2751 14.348 10.3831 14.9 10.5991C15.452 10.8151 15.92 11.1391 16.304 11.5711L15.56 12.3151C15.216 11.9791 14.84 11.7351 14.432 11.5831C14.032 11.4231 13.596 11.3431 13.124 11.3431C12.644 11.3431 12.196 11.4231 11.78 11.5831C11.372 11.7431 11.016 11.9671 10.712 12.2551C10.416 12.5431 10.184 12.8871 10.016 13.2871C9.856 13.6791 9.776 14.1071 9.776 14.5711C9.776 15.0271 9.856 15.4551 10.016 15.8551C10.184 16.2471 10.416 16.5911 10.712 16.8871C11.016 17.1751 11.372 17.3991 11.78 17.5591C12.188 17.7191 12.632 17.7991 13.112 17.7991C13.56 17.7991 13.988 17.7311 14.396 17.5951C14.812 17.4511 15.196 17.2151 15.548 16.8871L16.232 17.7991C15.816 18.1511 15.328 18.4191 14.768 18.6031C14.216 18.7791 13.644 18.8671 13.052 18.8671ZM15.08 17.6431V14.5231H16.232V17.7991L15.08 17.6431ZM22.0631 18.7711V17.4271L22.0031 17.1751V14.8831C22.0031 14.3951 21.8591 14.0191 21.5711 13.7551C21.2911 13.4831 20.8671 13.3471 20.2991 13.3471C19.9231 13.3471 19.5551 13.4111 19.1951 13.5391C18.8351 13.6591 18.5311 13.8231 18.2831 14.0311L17.8031 13.1671C18.1311 12.9031 18.5231 12.7031 18.9791 12.5671C19.4431 12.4231 19.9271 12.3511 20.4311 12.3511C21.3031 12.3511 21.9751 12.5631 22.4471 12.9871C22.9191 13.4111 23.1551 14.0591 23.1551 14.9311V18.7711H22.0631ZM19.9751 18.8431C19.5031 18.8431 19.0871 18.7631 18.7271 18.6031C18.3751 18.4431 18.1031 18.2231 17.9111 17.9431C17.7191 17.6551 17.6231 17.3311 17.6231 16.9711C17.6231 16.6271 17.7031 16.3151 17.8631 16.0351C18.0311 15.7551 18.2991 15.5311 18.6671 15.3631C19.0431 15.1951 19.5471 15.1111 20.1791 15.1111H22.1951V15.9391H20.2271C19.6511 15.9391 19.2631 16.0351 19.0631 16.2271C18.8631 16.4191 18.7631 16.6511 18.7631 16.9231C18.7631 17.2351 18.8871 17.4871 19.1351 17.6791C19.3831 17.8631 19.7271 17.9551 20.1671 17.9551C20.5991 17.9551 20.9751 17.8591 21.2951 17.6671C21.6231 17.4751 21.8591 17.1951 22.0031 16.8271L22.2311 17.6191C22.0791 17.9951 21.8111 18.2951 21.4271 18.5191C21.0431 18.7351 20.5591 18.8431 19.9751 18.8431ZM32.9966 12.3511C33.5086 12.3511 33.9606 12.4511 34.3526 12.6511C34.7446 12.8511 35.0486 13.1551 35.2646 13.5631C35.4886 13.9711 35.6006 14.4871 35.6006 15.1111V18.7711H34.4486V15.2431C34.4486 14.6271 34.3046 14.1631 34.0166 13.8511C33.7286 13.5391 33.3246 13.3831 32.8046 13.3831C32.4206 13.3831 32.0846 13.4631 31.7966 13.6231C31.5086 13.7831 31.2846 14.0191 31.1246 14.3311C30.9726 14.6431 30.8966 15.0311 30.8966 15.4951V18.7711H29.7446V15.2431C29.7446 14.6271 29.6006 14.1631 29.3126 13.8511C29.0326 13.5391 28.6286 13.3831 28.1006 13.3831C27.7246 13.3831 27.3926 13.4631 27.1046 13.6231C26.8166 13.7831 26.5926 14.0191 26.4326 14.3311C26.2726 14.6431 26.1926 15.0311 26.1926 15.4951V18.7711H25.0406V12.4111H26.1446V14.1031L25.9646 13.6711C26.1646 13.2551 26.4726 12.9311 26.8886 12.6991C27.3046 12.4671 27.7886 12.3511 28.3406 12.3511C28.9486 12.3511 29.4726 12.5031 29.9126 12.8071C30.3526 13.1031 30.6406 13.5551 30.7766 14.1631L30.3086 13.9711C30.5006 13.4831 30.8366 13.0911 31.3166 12.7951C31.7966 12.4991 32.3566 12.3511 32.9966 12.3511ZM40.3059 18.8431C39.6259 18.8431 39.0259 18.7031 38.5059 18.4231C37.9939 18.1431 37.5939 17.7591 37.3059 17.2711C37.0259 16.7831 36.8859 16.2231 36.8859 15.5911C36.8859 14.9591 37.0219 14.3991 37.2939 13.9111C37.5739 13.4231 37.9539 13.0431 38.4339 12.7711C38.9219 12.4911 39.4699 12.3511 40.0779 12.3511C40.6939 12.3511 41.2379 12.4871 41.7099 12.7591C42.1819 13.0311 42.5499 13.4151 42.8139 13.9111C43.0859 14.3991 43.2219 14.9711 43.2219 15.6271C43.2219 15.6751 43.2179 15.7311 43.2099 15.7951C43.2099 15.8591 43.2059 15.9191 43.1979 15.9751H37.7859V15.1471H42.5979L42.1299 15.4351C42.1379 15.0271 42.0539 14.6631 41.8779 14.3431C41.7019 14.0231 41.4579 13.7751 41.1459 13.5991C40.8419 13.4151 40.4859 13.3231 40.0779 13.3231C39.6779 13.3231 39.3219 13.4151 39.0099 13.5991C38.6979 13.7751 38.4539 14.0271 38.2779 14.3551C38.1019 14.6751 38.0139 15.0431 38.0139 15.4591V15.6511C38.0139 16.0751 38.1099 16.4551 38.3019 16.7911C38.5019 17.1191 38.7779 17.3751 39.1299 17.5591C39.4819 17.7431 39.8859 17.8351 40.3419 17.8351C40.7179 17.8351 41.0579 17.7711 41.3619 17.6431C41.6739 17.5151 41.9459 17.3231 42.1779 17.0671L42.8139 17.8111C42.5259 18.1471 42.1659 18.4031 41.7339 18.5791C41.3099 18.7551 40.8339 18.8431 40.3059 18.8431ZM48.7994 14.3431H53.1314V15.3751H48.7994V14.3431ZM48.9194 18.7711H47.7194V10.3711H53.6474V11.4151H48.9194V18.7711ZM54.9222 18.7711V12.4111H56.0742V18.7711H54.9222ZM55.4982 11.1871C55.2742 11.1871 55.0862 11.1151 54.9342 10.9711C54.7902 10.8271 54.7182 10.6511 54.7182 10.4431C54.7182 10.2271 54.7902 10.0471 54.9342 9.90306C55.0862 9.75906 55.2742 9.68706 55.4982 9.68706C55.7222 9.68706 55.9062 9.75906 56.0502 9.90306C56.2022 10.0391 56.2782 10.2111 56.2782 10.4191C56.2782 10.6351 56.2062 10.8191 56.0622 10.9711C55.9182 11.1151 55.7302 11.1871 55.4982 11.1871Z" fill="#202020" fill-opacity="0.5"/>
</svg>
