<svg width="107" height="28" viewBox="0 0 107 28" fill="none" xmlns="http://www.w3.org/2000/svg">
<rect y="0.771057" width="107" height="27" rx="10" fill="#DADADA"/>
<path d="M13.052 18.8671C12.404 18.8671 11.808 18.7631 11.264 18.5551C10.72 18.3391 10.248 18.0391 9.848 17.6551C9.448 17.2631 9.136 16.8071 8.912 16.2871C8.688 15.7671 8.576 15.1951 8.576 14.5711C8.576 13.9471 8.688 13.3751 8.912 12.8551C9.136 12.3351 9.448 11.8831 9.848 11.4991C10.256 11.1071 10.732 10.8071 11.276 10.5991C11.82 10.3831 12.42 10.2751 13.076 10.2751C13.74 10.2751 14.348 10.3831 14.9 10.5991C15.452 10.8151 15.92 11.1391 16.304 11.5711L15.56 12.3151C15.216 11.9791 14.84 11.7351 14.432 11.5831C14.032 11.4231 13.596 11.3431 13.124 11.3431C12.644 11.3431 12.196 11.4231 11.78 11.5831C11.372 11.7431 11.016 11.9671 10.712 12.2551C10.416 12.5431 10.184 12.8871 10.016 13.2871C9.856 13.6791 9.776 14.1071 9.776 14.5711C9.776 15.0271 9.856 15.4551 10.016 15.8551C10.184 16.2471 10.416 16.5911 10.712 16.8871C11.016 17.1751 11.372 17.3991 11.78 17.5591C12.188 17.7191 12.632 17.7991 13.112 17.7991C13.56 17.7991 13.988 17.7311 14.396 17.5951C14.812 17.4511 15.196 17.2151 15.548 16.8871L16.232 17.7991C15.816 18.1511 15.328 18.4191 14.768 18.6031C14.216 18.7791 13.644 18.8671 13.052 18.8671ZM15.08 17.6431V14.5231H16.232V17.7991L15.08 17.6431ZM20.9471 18.8431C20.2671 18.8431 19.6671 18.7031 19.1471 18.4231C18.6351 18.1431 18.2351 17.7591 17.9471 17.2711C17.6671 16.7831 17.5271 16.2231 17.5271 15.5911C17.5271 14.9591 17.6631 14.3991 17.9351 13.9111C18.2151 13.4231 18.5951 13.0431 19.0751 12.7711C19.5631 12.4911 20.1111 12.3511 20.7191 12.3511C21.3351 12.3511 21.8791 12.4871 22.3511 12.7591C22.8231 13.0311 23.1911 13.4151 23.4551 13.9111C23.7271 14.3991 23.8631 14.9711 23.8631 15.6271C23.8631 15.6751 23.8591 15.7311 23.8511 15.7951C23.8511 15.8591 23.8471 15.9191 23.8391 15.9751H18.4271V15.1471H23.2391L22.7711 15.4351C22.7791 15.0271 22.6951 14.6631 22.5191 14.3431C22.3431 14.0231 22.0991 13.7751 21.7871 13.5991C21.4831 13.4151 21.1271 13.3231 20.7191 13.3231C20.3191 13.3231 19.9631 13.4151 19.6511 13.5991C19.3391 13.7751 19.0951 14.0271 18.9191 14.3551C18.7431 14.6751 18.6551 15.0431 18.6551 15.4591V15.6511C18.6551 16.0751 18.7511 16.4551 18.9431 16.7911C19.1431 17.1191 19.4191 17.3751 19.7711 17.5591C20.1231 17.7431 20.5271 17.8351 20.9831 17.8351C21.3591 17.8351 21.6991 17.7711 22.0031 17.6431C22.3151 17.5151 22.5871 17.3231 22.8191 17.0671L23.4551 17.8111C23.1671 18.1471 22.8071 18.4031 22.3751 18.5791C21.9511 18.7551 21.4751 18.8431 20.9471 18.8431ZM28.6124 12.3511C29.1324 12.3511 29.5884 12.4511 29.9804 12.6511C30.3804 12.8511 30.6924 13.1551 30.9164 13.5631C31.1404 13.9711 31.2524 14.4871 31.2524 15.1111V18.7711H30.1004V15.2431C30.1004 14.6271 29.9484 14.1631 29.6444 13.8511C29.3484 13.5391 28.9284 13.3831 28.3844 13.3831C27.9764 13.3831 27.6204 13.4631 27.3164 13.6231C27.0124 13.7831 26.7764 14.0191 26.6084 14.3311C26.4484 14.6431 26.3684 15.0311 26.3684 15.4951V18.7711H25.2164V12.4111H26.3204V14.1271L26.1404 13.6711C26.3484 13.2551 26.6684 12.9311 27.1004 12.6991C27.5324 12.4671 28.0364 12.3511 28.6124 12.3511ZM35.97 18.8431C35.29 18.8431 34.69 18.7031 34.17 18.4231C33.658 18.1431 33.258 17.7591 32.97 17.2711C32.69 16.7831 32.55 16.2231 32.55 15.5911C32.55 14.9591 32.686 14.3991 32.958 13.9111C33.238 13.4231 33.618 13.0431 34.098 12.7711C34.586 12.4911 35.134 12.3511 35.742 12.3511C36.358 12.3511 36.902 12.4871 37.374 12.7591C37.846 13.0311 38.214 13.4151 38.478 13.9111C38.75 14.3991 38.886 14.9711 38.886 15.6271C38.886 15.6751 38.882 15.7311 38.874 15.7951C38.874 15.8591 38.87 15.9191 38.862 15.9751H33.45V15.1471H38.262L37.794 15.4351C37.802 15.0271 37.718 14.6631 37.542 14.3431C37.366 14.0231 37.122 13.7751 36.81 13.5991C36.506 13.4151 36.15 13.3231 35.742 13.3231C35.342 13.3231 34.986 13.4151 34.674 13.5991C34.362 13.7751 34.118 14.0271 33.942 14.3551C33.766 14.6751 33.678 15.0431 33.678 15.4591V15.6511C33.678 16.0751 33.774 16.4551 33.966 16.7911C34.166 17.1191 34.442 17.3751 34.794 17.5591C35.146 17.7431 35.55 17.8351 36.006 17.8351C36.382 17.8351 36.722 17.7711 37.026 17.6431C37.338 17.5151 37.61 17.3231 37.842 17.0671L38.478 17.8111C38.19 18.1471 37.83 18.4031 37.398 18.5791C36.974 18.7551 36.498 18.8431 35.97 18.8431ZM40.2392 18.7711V12.4111H41.3432V14.1391L41.2352 13.7071C41.4112 13.2671 41.7072 12.9311 42.1232 12.6991C42.5392 12.4671 43.0512 12.3511 43.6592 12.3511V13.4671C43.6112 13.4591 43.5632 13.4551 43.5152 13.4551C43.4752 13.4551 43.4352 13.4551 43.3952 13.4551C42.7792 13.4551 42.2912 13.6391 41.9312 14.0071C41.5712 14.3751 41.3912 14.9071 41.3912 15.6031V18.7711H40.2392ZM48.3119 18.7711V17.4271L48.2519 17.1751V14.8831C48.2519 14.3951 48.1079 14.0191 47.8199 13.7551C47.5399 13.4831 47.1159 13.3471 46.5479 13.3471C46.1719 13.3471 45.8039 13.4111 45.4439 13.5391C45.0839 13.6591 44.7799 13.8231 44.5319 14.0311L44.0519 13.1671C44.3799 12.9031 44.7719 12.7031 45.2279 12.5671C45.6919 12.4231 46.1759 12.3511 46.6799 12.3511C47.5519 12.3511 48.2239 12.5631 48.6959 12.9871C49.1679 13.4111 49.4039 14.0591 49.4039 14.9311V18.7711H48.3119ZM46.2239 18.8431C45.7519 18.8431 45.3359 18.7631 44.9759 18.6031C44.6239 18.4431 44.3519 18.2231 44.1599 17.9431C43.9679 17.6551 43.8719 17.3311 43.8719 16.9711C43.8719 16.6271 43.9519 16.3151 44.1119 16.0351C44.2799 15.7551 44.5479 15.5311 44.9159 15.3631C45.2919 15.1951 45.7959 15.1111 46.4279 15.1111H48.4439V15.9391H46.4759C45.8999 15.9391 45.5119 16.0351 45.3119 16.2271C45.1119 16.4191 45.0119 16.6511 45.0119 16.9231C45.0119 17.2351 45.1359 17.4871 45.3839 17.6791C45.6319 17.8631 45.9759 17.9551 46.4159 17.9551C46.8479 17.9551 47.2239 17.8591 47.5439 17.6671C47.8719 17.4751 48.1079 17.1951 48.2519 16.8271L48.4799 17.6191C48.3279 17.9951 48.0599 18.2951 47.6759 18.5191C47.2919 18.7351 46.8079 18.8431 46.2239 18.8431ZM51.2894 18.7711V9.86706H52.4414V18.7711H51.2894ZM61.3188 18.7711V17.4271L61.2588 17.1751V14.8831C61.2588 14.3951 61.1148 14.0191 60.8268 13.7551C60.5468 13.4831 60.1228 13.3471 59.5548 13.3471C59.1788 13.3471 58.8108 13.4111 58.4508 13.5391C58.0908 13.6591 57.7868 13.8231 57.5388 14.0311L57.0588 13.1671C57.3868 12.9031 57.7788 12.7031 58.2348 12.5671C58.6988 12.4231 59.1828 12.3511 59.6868 12.3511C60.5588 12.3511 61.2308 12.5631 61.7028 12.9871C62.1748 13.4111 62.4108 14.0591 62.4108 14.9311V18.7711H61.3188ZM59.2308 18.8431C58.7588 18.8431 58.3428 18.7631 57.9828 18.6031C57.6308 18.4431 57.3588 18.2231 57.1668 17.9431C56.9748 17.6551 56.8788 17.3311 56.8788 16.9711C56.8788 16.6271 56.9588 16.3151 57.1188 16.0351C57.2868 15.7551 57.5548 15.5311 57.9228 15.3631C58.2988 15.1951 58.8028 15.1111 59.4348 15.1111H61.4508V15.9391H59.4828C58.9068 15.9391 58.5188 16.0351 58.3188 16.2271C58.1188 16.4191 58.0188 16.6511 58.0188 16.9231C58.0188 17.2351 58.1428 17.4871 58.3908 17.6791C58.6388 17.8631 58.9828 17.9551 59.4228 17.9551C59.8548 17.9551 60.2308 17.8591 60.5508 17.6671C60.8788 17.4751 61.1148 17.1951 61.2588 16.8271L61.4868 17.6191C61.3348 17.9951 61.0668 18.2951 60.6828 18.5191C60.2988 18.7351 59.8148 18.8431 59.2308 18.8431ZM64.2963 18.7711V12.4111H65.4483V18.7711H64.2963ZM64.8723 11.1871C64.6483 11.1871 64.4603 11.1151 64.3083 10.9711C64.1643 10.8271 64.0923 10.6511 64.0923 10.4431C64.0923 10.2271 64.1643 10.0471 64.3083 9.90306C64.4603 9.75906 64.6483 9.68706 64.8723 9.68706C65.0963 9.68706 65.2803 9.75906 65.4243 9.90306C65.5763 10.0391 65.6523 10.2111 65.6523 10.4191C65.6523 10.6351 65.5803 10.8191 65.4363 10.9711C65.2923 11.1151 65.1043 11.1871 64.8723 11.1871ZM67.4014 18.7711V12.4111H68.5054V14.1391L68.3974 13.7071C68.5734 13.2671 68.8694 12.9311 69.2854 12.6991C69.7014 12.4671 70.2134 12.3511 70.8214 12.3511V13.4671C70.7734 13.4591 70.7254 13.4551 70.6774 13.4551C70.6374 13.4551 70.5974 13.4551 70.5574 13.4551C69.9414 13.4551 69.4534 13.6391 69.0934 14.0071C68.7334 14.3751 68.5534 14.9071 68.5534 15.6031V18.7711H67.4014ZM74.5643 18.8431C73.9483 18.8431 73.3963 18.7071 72.9083 18.4351C72.4283 18.1631 72.0483 17.7831 71.7683 17.2951C71.4883 16.8071 71.3483 16.2391 71.3483 15.5911C71.3483 14.9431 71.4883 14.3791 71.7683 13.8991C72.0483 13.4111 72.4283 13.0311 72.9083 12.7591C73.3963 12.4871 73.9483 12.3511 74.5643 12.3511C75.1003 12.3511 75.5843 12.4711 76.0163 12.7111C76.4483 12.9511 76.7923 13.3111 77.0483 13.7911C77.3123 14.2711 77.4443 14.8711 77.4443 15.5911C77.4443 16.3111 77.3163 16.9111 77.0603 17.3911C76.8123 17.8711 76.4723 18.2351 76.0403 18.4831C75.6083 18.7231 75.1163 18.8431 74.5643 18.8431ZM74.6603 17.8351C75.0603 17.8351 75.4203 17.7431 75.7403 17.5591C76.0683 17.3751 76.3243 17.1151 76.5083 16.7791C76.7003 16.4351 76.7963 16.0391 76.7963 15.5911C76.7963 15.1351 76.7003 14.7431 76.5083 14.4151C76.3243 14.0791 76.0683 13.8191 75.7403 13.6351C75.4203 13.4511 75.0603 13.3591 74.6603 13.3591C74.2523 13.3591 73.8883 13.4511 73.5683 13.6351C73.2483 13.8191 72.9923 14.0791 72.8003 14.4151C72.6083 14.7431 72.5123 15.1351 72.5123 15.5911C72.5123 16.0391 72.6083 16.4351 72.8003 16.7791C72.9923 17.1151 73.2483 17.3751 73.5683 17.5591C73.8883 17.7431 74.2523 17.8351 74.6603 17.8351ZM76.8323 18.7711V17.0551L76.9043 15.5791L76.7843 14.1031V9.86706H77.9363V18.7711H76.8323ZM79.8696 18.7711V12.4111H80.9736V14.1391L80.8656 13.7071C81.0416 13.2671 81.3376 12.9311 81.7536 12.6991C82.1696 12.4671 82.6816 12.3511 83.2896 12.3511V13.4671C83.2416 13.4591 83.1936 13.4551 83.1456 13.4551C83.1056 13.4551 83.0656 13.4551 83.0256 13.4551C82.4096 13.4551 81.9216 13.6391 81.5616 14.0071C81.2016 14.3751 81.0216 14.9071 81.0216 15.6031V18.7711H79.8696ZM87.1284 18.8431C86.4884 18.8431 85.9204 18.7031 85.4244 18.4231C84.9284 18.1431 84.5364 17.7591 84.2484 17.2711C83.9604 16.7751 83.8164 16.2151 83.8164 15.5911C83.8164 14.9591 83.9604 14.3991 84.2484 13.9111C84.5364 13.4231 84.9284 13.0431 85.4244 12.7711C85.9204 12.4911 86.4884 12.3511 87.1284 12.3511C87.7604 12.3511 88.3244 12.4911 88.8204 12.7711C89.3244 13.0431 89.7164 13.4231 89.9964 13.9111C90.2844 14.3911 90.4284 14.9511 90.4284 15.5911C90.4284 16.2231 90.2844 16.7831 89.9964 17.2711C89.7164 17.7591 89.3244 18.1431 88.8204 18.4231C88.3244 18.7031 87.7604 18.8431 87.1284 18.8431ZM87.1284 17.8351C87.5364 17.8351 87.9004 17.7431 88.2204 17.5591C88.5484 17.3751 88.8044 17.1151 88.9884 16.7791C89.1724 16.4351 89.2644 16.0391 89.2644 15.5911C89.2644 15.1351 89.1724 14.7431 88.9884 14.4151C88.8044 14.0791 88.5484 13.8191 88.2204 13.6351C87.9004 13.4511 87.5364 13.3591 87.1284 13.3591C86.7204 13.3591 86.3564 13.4511 86.0364 13.6351C85.7164 13.8191 85.4604 14.0791 85.2684 14.4151C85.0764 14.7431 84.9804 15.1351 84.9804 15.5911C84.9804 16.0391 85.0764 16.4351 85.2684 16.7791C85.4604 17.1151 85.7164 17.3751 86.0364 17.5591C86.3564 17.7431 86.7204 17.8351 87.1284 17.8351ZM95.1472 18.8431C94.6192 18.8431 94.1352 18.7231 93.6952 18.4831C93.2632 18.2351 92.9152 17.8711 92.6512 17.3911C92.3952 16.9111 92.2672 16.3111 92.2672 15.5911C92.2672 14.8711 92.3912 14.2711 92.6392 13.7911C92.8952 13.3111 93.2392 12.9511 93.6712 12.7111C94.1112 12.4711 94.6032 12.3511 95.1472 12.3511C95.7712 12.3511 96.3232 12.4871 96.8032 12.7591C97.2832 13.0311 97.6632 13.4111 97.9432 13.8991C98.2232 14.3791 98.3632 14.9431 98.3632 15.5911C98.3632 16.2391 98.2232 16.8071 97.9432 17.2951C97.6632 17.7831 97.2832 18.1631 96.8032 18.4351C96.3232 18.7071 95.7712 18.8431 95.1472 18.8431ZM91.7752 21.0991V12.4111H92.8792V14.1271L92.8072 15.6031L92.9272 17.0791V21.0991H91.7752ZM95.0512 17.8351C95.4592 17.8351 95.8232 17.7431 96.1432 17.5591C96.4712 17.3751 96.7272 17.1151 96.9112 16.7791C97.1032 16.4351 97.1992 16.0391 97.1992 15.5911C97.1992 15.1351 97.1032 14.7431 96.9112 14.4151C96.7272 14.0791 96.4712 13.8191 96.1432 13.6351C95.8232 13.4511 95.4592 13.3591 95.0512 13.3591C94.6512 13.3591 94.2872 13.4511 93.9592 13.6351C93.6392 13.8191 93.3832 14.0791 93.1912 14.4151C93.0072 14.7431 92.9152 15.1351 92.9152 15.5911C92.9152 16.0391 93.0072 16.4351 93.1912 16.7791C93.3832 17.1151 93.6392 17.3751 93.9592 17.5591C94.2872 17.7431 94.6512 17.8351 95.0512 17.8351Z" fill="#202020" fill-opacity="0.5"/>
</svg>
