<svg width="58" height="28" viewBox="0 0 58 28" fill="none" xmlns="http://www.w3.org/2000/svg">
<rect y="0.771057" width="58" height="27" rx="10" fill="#DADADA"/>
<path d="M9.26 18.7711V10.3711H10.244L14.012 16.7191H13.484L17.204 10.3711H18.188L18.2 18.7711H17.048L17.036 12.1831H17.312L14 17.7511H13.448L10.112 12.1831H10.412V18.7711H9.26ZM20.3065 18.7711V12.4111H21.4585V18.7711H20.3065ZM20.8825 11.1871C20.6585 11.1871 20.4705 11.1151 20.3185 10.9711C20.1745 10.8271 20.1025 10.6511 20.1025 10.4431C20.1025 10.2271 20.1745 10.0471 20.3185 9.90306C20.4705 9.75906 20.6585 9.68706 20.8825 9.68706C21.1065 9.68706 21.2905 9.75906 21.4345 9.90306C21.5865 10.0391 21.6625 10.2111 21.6625 10.4191C21.6625 10.6351 21.5905 10.8191 21.4465 10.9711C21.3025 11.1151 21.1145 11.1871 20.8825 11.1871ZM26.8077 12.3511C27.3277 12.3511 27.7837 12.4511 28.1757 12.6511C28.5757 12.8511 28.8877 13.1551 29.1117 13.5631C29.3357 13.9711 29.4477 14.4871 29.4477 15.1111V18.7711H28.2957V15.2431C28.2957 14.6271 28.1437 14.1631 27.8397 13.8511C27.5437 13.5391 27.1237 13.3831 26.5797 13.3831C26.1717 13.3831 25.8157 13.4631 25.5117 13.6231C25.2077 13.7831 24.9717 14.0191 24.8037 14.3311C24.6437 14.6431 24.5637 15.0311 24.5637 15.4951V18.7711H23.4117V12.4111H24.5157V14.1271L24.3357 13.6711C24.5437 13.2551 24.8637 12.9311 25.2957 12.6991C25.7277 12.4671 26.2317 12.3511 26.8077 12.3511ZM31.3333 18.7711V12.4111H32.4853V18.7711H31.3333ZM31.9093 11.1871C31.6853 11.1871 31.4973 11.1151 31.3453 10.9711C31.2013 10.8271 31.1293 10.6511 31.1293 10.4431C31.1293 10.2271 31.2013 10.0471 31.3453 9.90306C31.4973 9.75906 31.6853 9.68706 31.9093 9.68706C32.1333 9.68706 32.3173 9.75906 32.4613 9.90306C32.6133 10.0391 32.6893 10.2111 32.6893 10.4191C32.6893 10.6351 32.6173 10.8191 32.4733 10.9711C32.3293 11.1151 32.1413 11.1871 31.9093 11.1871ZM37.8344 12.3511C38.3544 12.3511 38.8104 12.4511 39.2024 12.6511C39.6024 12.8511 39.9144 13.1551 40.1384 13.5631C40.3624 13.9711 40.4744 14.4871 40.4744 15.1111V18.7711H39.3224V15.2431C39.3224 14.6271 39.1704 14.1631 38.8664 13.8511C38.5704 13.5391 38.1504 13.3831 37.6064 13.3831C37.1984 13.3831 36.8424 13.4631 36.5384 13.6231C36.2344 13.7831 35.9984 14.0191 35.8304 14.3311C35.6704 14.6431 35.5904 15.0311 35.5904 15.4951V18.7711H34.4384V12.4111H35.5424V14.1271L35.3624 13.6711C35.5704 13.2551 35.8904 12.9311 36.3224 12.6991C36.7544 12.4671 37.2584 12.3511 37.8344 12.3511ZM45.144 21.1711C44.56 21.1711 43.992 21.0871 43.44 20.9191C42.896 20.7591 42.452 20.5271 42.108 20.2231L42.66 19.3351C42.956 19.5911 43.32 19.7911 43.752 19.9351C44.184 20.0871 44.636 20.1631 45.108 20.1631C45.86 20.1631 46.412 19.9871 46.764 19.6351C47.116 19.2831 47.292 18.7471 47.292 18.0271V16.6831L47.412 15.4231L47.352 14.1511V12.4111H48.444V17.9071C48.444 19.0271 48.164 19.8511 47.604 20.3791C47.044 20.9071 46.224 21.1711 45.144 21.1711ZM45 18.5071C44.384 18.5071 43.832 18.3791 43.344 18.1231C42.864 17.8591 42.48 17.4951 42.192 17.0311C41.912 16.5671 41.772 16.0311 41.772 15.4231C41.772 14.8071 41.912 14.2711 42.192 13.8151C42.48 13.3511 42.864 12.9911 43.344 12.7351C43.832 12.4791 44.384 12.3511 45 12.3511C45.544 12.3511 46.04 12.4631 46.488 12.6871C46.936 12.9031 47.292 13.2391 47.556 13.6951C47.828 14.1511 47.964 14.7271 47.964 15.4231C47.964 16.1111 47.828 16.6831 47.556 17.1391C47.292 17.5951 46.936 17.9391 46.488 18.1711C46.04 18.3951 45.544 18.5071 45 18.5071ZM45.132 17.4991C45.556 17.4991 45.932 17.4111 46.26 17.2351C46.588 17.0591 46.844 16.8151 47.028 16.5031C47.22 16.1911 47.316 15.8311 47.316 15.4231C47.316 15.0151 47.22 14.6551 47.028 14.3431C46.844 14.0311 46.588 13.7911 46.26 13.6231C45.932 13.4471 45.556 13.3591 45.132 13.3591C44.708 13.3591 44.328 13.4471 43.992 13.6231C43.664 13.7911 43.404 14.0311 43.212 14.3431C43.028 14.6551 42.936 15.0151 42.936 15.4231C42.936 15.8311 43.028 16.1911 43.212 16.5031C43.404 16.8151 43.664 17.0591 43.992 17.2351C44.328 17.4111 44.708 17.4991 45.132 17.4991Z" fill="#202020" fill-opacity="0.5"/>
</svg>
