<svg width="370" height="33" viewBox="0 0 370 33" fill="none" xmlns="http://www.w3.org/2000/svg">
<rect x="0.5" y="0.5" width="369" height="32" rx="9.5" fill="#161C2D"/>
<rect x="0.5" y="0.5" width="369" height="32" rx="9.5" stroke="#161C2D"/>
<path d="M133.97 22V12.2H138.1C139.145 12.2 140.065 12.4053 140.858 12.816C141.661 13.2267 142.281 13.8007 142.72 14.538C143.168 15.2753 143.392 16.1293 143.392 17.1C143.392 18.0707 143.168 18.9247 142.72 19.662C142.281 20.3993 141.661 20.9733 140.858 21.384C140.065 21.7947 139.145 22 138.1 22H133.97ZM135.37 20.782H138.016C138.828 20.782 139.528 20.628 140.116 20.32C140.713 20.012 141.175 19.5827 141.502 19.032C141.829 18.472 141.992 17.828 141.992 17.1C141.992 16.3627 141.829 15.7187 141.502 15.168C141.175 14.6173 140.713 14.188 140.116 13.88C139.528 13.572 138.828 13.418 138.016 13.418H135.37V20.782ZM148.316 22.084C147.523 22.084 146.823 21.9207 146.216 21.594C145.619 21.2673 145.152 20.8193 144.816 20.25C144.489 19.6807 144.326 19.0273 144.326 18.29C144.326 17.5527 144.485 16.8993 144.802 16.33C145.129 15.7607 145.572 15.3173 146.132 15C146.701 14.6733 147.341 14.51 148.05 14.51C148.769 14.51 149.403 14.6687 149.954 14.986C150.505 15.3033 150.934 15.7513 151.242 16.33C151.559 16.8993 151.718 17.5667 151.718 18.332C151.718 18.388 151.713 18.4533 151.704 18.528C151.704 18.6027 151.699 18.6727 151.69 18.738H145.376V17.772H150.99L150.444 18.108C150.453 17.632 150.355 17.2073 150.15 16.834C149.945 16.4607 149.66 16.1713 149.296 15.966C148.941 15.7513 148.526 15.644 148.05 15.644C147.583 15.644 147.168 15.7513 146.804 15.966C146.44 16.1713 146.155 16.4653 145.95 16.848C145.745 17.2213 145.642 17.6507 145.642 18.136V18.36C145.642 18.8547 145.754 19.298 145.978 19.69C146.211 20.0727 146.533 20.3713 146.944 20.586C147.355 20.8007 147.826 20.908 148.358 20.908C148.797 20.908 149.193 20.8333 149.548 20.684C149.912 20.5347 150.229 20.3107 150.5 20.012L151.242 20.88C150.906 21.272 150.486 21.5707 149.982 21.776C149.487 21.9813 148.932 22.084 148.316 22.084ZM153.256 22V11.612H154.6V22H153.256ZM160.141 22.084C159.348 22.084 158.648 21.9207 158.041 21.594C157.444 21.2673 156.977 20.8193 156.641 20.25C156.315 19.6807 156.151 19.0273 156.151 18.29C156.151 17.5527 156.31 16.8993 156.627 16.33C156.954 15.7607 157.397 15.3173 157.957 15C158.527 14.6733 159.166 14.51 159.875 14.51C160.594 14.51 161.229 14.6687 161.779 14.986C162.33 15.3033 162.759 15.7513 163.067 16.33C163.385 16.8993 163.543 17.5667 163.543 18.332C163.543 18.388 163.539 18.4533 163.529 18.528C163.529 18.6027 163.525 18.6727 163.515 18.738H157.201V17.772H162.815L162.269 18.108C162.279 17.632 162.181 17.2073 161.975 16.834C161.77 16.4607 161.485 16.1713 161.121 15.966C160.767 15.7513 160.351 15.644 159.875 15.644C159.409 15.644 158.993 15.7513 158.629 15.966C158.265 16.1713 157.981 16.4653 157.775 16.848C157.57 17.2213 157.467 17.6507 157.467 18.136V18.36C157.467 18.8547 157.579 19.298 157.803 19.69C158.037 20.0727 158.359 20.3713 158.769 20.586C159.18 20.8007 159.651 20.908 160.183 20.908C160.622 20.908 161.019 20.8333 161.373 20.684C161.737 20.5347 162.055 20.3107 162.325 20.012L163.067 20.88C162.731 21.272 162.311 21.5707 161.807 21.776C161.313 21.9813 160.757 22.084 160.141 22.084ZM167.629 22.084C166.882 22.084 166.304 21.8833 165.893 21.482C165.482 21.0807 165.277 20.5067 165.277 19.76V12.956H166.621V19.704C166.621 20.1053 166.719 20.4133 166.915 20.628C167.12 20.8427 167.41 20.95 167.783 20.95C168.203 20.95 168.553 20.8333 168.833 20.6L169.253 21.566C169.048 21.7433 168.8 21.874 168.511 21.958C168.231 22.042 167.937 22.084 167.629 22.084ZM164.017 15.686V14.58H168.749V15.686H164.017ZM173.607 22.084C172.814 22.084 172.114 21.9207 171.507 21.594C170.91 21.2673 170.443 20.8193 170.107 20.25C169.781 19.6807 169.617 19.0273 169.617 18.29C169.617 17.5527 169.776 16.8993 170.093 16.33C170.42 15.7607 170.863 15.3173 171.423 15C171.993 14.6733 172.632 14.51 173.341 14.51C174.06 14.51 174.695 14.6687 175.245 14.986C175.796 15.3033 176.225 15.7513 176.533 16.33C176.851 16.8993 177.009 17.5667 177.009 18.332C177.009 18.388 177.005 18.4533 176.995 18.528C176.995 18.6027 176.991 18.6727 176.981 18.738H170.667V17.772H176.281L175.735 18.108C175.745 17.632 175.647 17.2073 175.441 16.834C175.236 16.4607 174.951 16.1713 174.587 15.966C174.233 15.7513 173.817 15.644 173.341 15.644C172.875 15.644 172.459 15.7513 172.095 15.966C171.731 16.1713 171.447 16.4653 171.241 16.848C171.036 17.2213 170.933 17.6507 170.933 18.136V18.36C170.933 18.8547 171.045 19.298 171.269 19.69C171.503 20.0727 171.825 20.3713 172.235 20.586C172.646 20.8007 173.117 20.908 173.649 20.908C174.088 20.908 174.485 20.8333 174.839 20.684C175.203 20.5347 175.521 20.3107 175.791 20.012L176.533 20.88C176.197 21.272 175.777 21.5707 175.273 21.776C174.779 21.9813 174.223 22.084 173.607 22.084ZM186.584 22V20.432L186.514 20.138V17.464C186.514 16.8947 186.346 16.456 186.01 16.148C185.684 15.8307 185.189 15.672 184.526 15.672C184.088 15.672 183.658 15.7467 183.238 15.896C182.818 16.036 182.464 16.2273 182.174 16.47L181.614 15.462C181.997 15.154 182.454 14.9207 182.986 14.762C183.528 14.594 184.092 14.51 184.68 14.51C185.698 14.51 186.482 14.7573 187.032 15.252C187.583 15.7467 187.858 16.5027 187.858 17.52V22H186.584ZM184.148 22.084C183.598 22.084 183.112 21.9907 182.692 21.804C182.282 21.6173 181.964 21.3607 181.74 21.034C181.516 20.698 181.404 20.32 181.404 19.9C181.404 19.4987 181.498 19.1347 181.684 18.808C181.88 18.4813 182.193 18.22 182.622 18.024C183.061 17.828 183.649 17.73 184.386 17.73H186.738V18.696H184.442C183.77 18.696 183.318 18.808 183.084 19.032C182.851 19.256 182.734 19.5267 182.734 19.844C182.734 20.208 182.879 20.502 183.168 20.726C183.458 20.9407 183.859 21.048 184.372 21.048C184.876 21.048 185.315 20.936 185.688 20.712C186.071 20.488 186.346 20.1613 186.514 19.732L186.78 20.656C186.603 21.0947 186.29 21.4447 185.842 21.706C185.394 21.958 184.83 22.084 184.148 22.084ZM193.251 22.084C192.495 22.084 191.818 21.9207 191.221 21.594C190.633 21.2673 190.171 20.8193 189.835 20.25C189.499 19.6807 189.331 19.0273 189.331 18.29C189.331 17.5527 189.499 16.8993 189.835 16.33C190.171 15.7607 190.633 15.3173 191.221 15C191.818 14.6733 192.495 14.51 193.251 14.51C193.923 14.51 194.52 14.6453 195.043 14.916C195.575 15.1773 195.985 15.5693 196.275 16.092L195.253 16.75C195.01 16.386 194.711 16.12 194.357 15.952C194.011 15.7747 193.638 15.686 193.237 15.686C192.751 15.686 192.317 15.7933 191.935 16.008C191.552 16.2227 191.249 16.526 191.025 16.918C190.801 17.3007 190.689 17.758 190.689 18.29C190.689 18.822 190.801 19.284 191.025 19.676C191.249 20.068 191.552 20.3713 191.935 20.586C192.317 20.8007 192.751 20.908 193.237 20.908C193.638 20.908 194.011 20.824 194.357 20.656C194.711 20.4787 195.01 20.208 195.253 19.844L196.275 20.488C195.985 21.0013 195.575 21.398 195.043 21.678C194.52 21.9487 193.923 22.084 193.251 22.084ZM200.811 22.084C200.055 22.084 199.378 21.9207 198.781 21.594C198.193 21.2673 197.731 20.8193 197.395 20.25C197.059 19.6807 196.891 19.0273 196.891 18.29C196.891 17.5527 197.059 16.8993 197.395 16.33C197.731 15.7607 198.193 15.3173 198.781 15C199.378 14.6733 200.055 14.51 200.811 14.51C201.483 14.51 202.08 14.6453 202.603 14.916C203.135 15.1773 203.546 15.5693 203.835 16.092L202.813 16.75C202.57 16.386 202.272 16.12 201.917 15.952C201.572 15.7747 201.198 15.686 200.797 15.686C200.312 15.686 199.878 15.7933 199.495 16.008C199.112 16.2227 198.809 16.526 198.585 16.918C198.361 17.3007 198.249 17.758 198.249 18.29C198.249 18.822 198.361 19.284 198.585 19.676C198.809 20.068 199.112 20.3713 199.495 20.586C199.878 20.8007 200.312 20.908 200.797 20.908C201.198 20.908 201.572 20.824 201.917 20.656C202.272 20.4787 202.57 20.208 202.813 19.844L203.835 20.488C203.546 21.0013 203.135 21.398 202.603 21.678C202.08 21.9487 201.483 22.084 200.811 22.084ZM208.315 22.084C207.568 22.084 206.906 21.9207 206.327 21.594C205.748 21.2673 205.291 20.8193 204.955 20.25C204.619 19.6713 204.451 19.018 204.451 18.29C204.451 17.5527 204.619 16.8993 204.955 16.33C205.291 15.7607 205.748 15.3173 206.327 15C206.906 14.6733 207.568 14.51 208.315 14.51C209.052 14.51 209.71 14.6733 210.289 15C210.877 15.3173 211.334 15.7607 211.661 16.33C211.997 16.89 212.165 17.5433 212.165 18.29C212.165 19.0273 211.997 19.6807 211.661 20.25C211.334 20.8193 210.877 21.2673 210.289 21.594C209.71 21.9207 209.052 22.084 208.315 22.084ZM208.315 20.908C208.791 20.908 209.216 20.8007 209.589 20.586C209.972 20.3713 210.27 20.068 210.485 19.676C210.7 19.2747 210.807 18.8127 210.807 18.29C210.807 17.758 210.7 17.3007 210.485 16.918C210.27 16.526 209.972 16.2227 209.589 16.008C209.216 15.7933 208.791 15.686 208.315 15.686C207.839 15.686 207.414 15.7933 207.041 16.008C206.668 16.2227 206.369 16.526 206.145 16.918C205.921 17.3007 205.809 17.758 205.809 18.29C205.809 18.8127 205.921 19.2747 206.145 19.676C206.369 20.068 206.668 20.3713 207.041 20.586C207.414 20.8007 207.839 20.908 208.315 20.908ZM216.817 22.084C216.183 22.084 215.623 21.9673 215.137 21.734C214.661 21.5007 214.288 21.146 214.017 20.67C213.756 20.1847 213.625 19.578 213.625 18.85V14.58H214.969V18.696C214.969 19.424 215.142 19.97 215.487 20.334C215.842 20.698 216.337 20.88 216.971 20.88C217.438 20.88 217.844 20.7867 218.189 20.6C218.535 20.404 218.801 20.124 218.987 19.76C219.174 19.3867 219.267 18.9387 219.267 18.416V14.58H220.611V22H219.337V19.998L219.547 20.53C219.305 21.0247 218.941 21.4073 218.455 21.678C217.97 21.9487 217.424 22.084 216.817 22.084ZM226.803 14.51C227.41 14.51 227.942 14.6267 228.399 14.86C228.866 15.0933 229.23 15.448 229.491 15.924C229.753 16.4 229.883 17.002 229.883 17.73V22H228.539V17.884C228.539 17.1653 228.362 16.624 228.007 16.26C227.662 15.896 227.172 15.714 226.537 15.714C226.061 15.714 225.646 15.8073 225.291 15.994C224.937 16.1807 224.661 16.456 224.465 16.82C224.279 17.184 224.185 17.6367 224.185 18.178V22H222.841V14.58H224.129V16.582L223.919 16.05C224.162 15.5647 224.535 15.1867 225.039 14.916C225.543 14.6453 226.131 14.51 226.803 14.51ZM234.59 22.084C233.843 22.084 233.265 21.8833 232.854 21.482C232.443 21.0807 232.238 20.5067 232.238 19.76V12.956H233.582V19.704C233.582 20.1053 233.68 20.4133 233.876 20.628C234.081 20.8427 234.371 20.95 234.744 20.95C235.164 20.95 235.514 20.8333 235.794 20.6L236.214 21.566C236.009 21.7433 235.761 21.874 235.472 21.958C235.192 22.042 234.898 22.084 234.59 22.084ZM230.978 15.686V14.58H235.71V15.686H230.978Z" fill="white"/>
</svg>
