<svg width="335" height="61" viewBox="0 0 335 61" fill="none" xmlns="http://www.w3.org/2000/svg">
<g clip-path="url(#clip0_1_561)">
<rect width="335" height="61" rx="16" fill="#161C2D"/>
<rect width="335" height="61" rx="16" fill="#161C2D"/>
<path d="M145.736 40V24.6H146.682L157.66 38.614H157.154V24.6H158.276V40H157.352L146.352 25.986H146.858V40H145.736ZM167.966 40.088C166.807 40.088 165.78 39.8387 164.886 39.34C164.006 38.8413 163.309 38.152 162.796 37.272C162.297 36.392 162.048 35.3873 162.048 34.258C162.048 33.114 162.282 32.1093 162.752 31.244C163.236 30.364 163.896 29.6747 164.732 29.176C165.568 28.6773 166.506 28.428 167.548 28.428C168.589 28.428 169.52 28.67 170.342 29.154C171.178 29.638 171.83 30.32 172.3 31.2C172.784 32.0653 173.026 33.07 173.026 34.214C173.026 34.258 173.018 34.3093 173.004 34.368C173.004 34.412 173.004 34.4633 173.004 34.522H162.862V33.664H172.41L171.97 34.082C171.984 33.1873 171.794 32.388 171.398 31.684C171.016 30.9653 170.496 30.408 169.836 30.012C169.176 29.6013 168.413 29.396 167.548 29.396C166.697 29.396 165.934 29.6013 165.26 30.012C164.6 30.408 164.079 30.9653 163.698 31.684C163.316 32.388 163.126 33.1947 163.126 34.104V34.302C163.126 35.2407 163.331 36.0767 163.742 36.81C164.167 37.5287 164.746 38.0933 165.48 38.504C166.213 38.9 167.049 39.098 167.988 39.098C168.721 39.098 169.403 38.966 170.034 38.702C170.679 38.438 171.222 38.0347 171.662 37.492L172.3 38.218C171.801 38.834 171.17 39.3033 170.408 39.626C169.66 39.934 168.846 40.088 167.966 40.088ZM174.28 40L179.054 33.796L179.032 34.324L174.522 28.516H175.776L179.714 33.598H179.252L183.168 28.516H184.4L179.846 34.39L179.868 33.796L184.708 40H183.41L179.252 34.588L179.67 34.632L175.534 40H174.28ZM190.859 40.088C189.847 40.088 189.069 39.8093 188.527 39.252C187.999 38.6947 187.735 37.932 187.735 36.964V26.008H188.835V36.854C188.835 37.5873 189.018 38.152 189.385 38.548C189.751 38.944 190.279 39.142 190.969 39.142C191.687 39.142 192.281 38.9293 192.751 38.504L193.213 39.274C192.919 39.5527 192.56 39.758 192.135 39.89C191.724 40.022 191.299 40.088 190.859 40.088ZM185.623 29.462V28.516H192.487V29.462H185.623Z" fill="white"/>
</g>
<defs>
<clipPath id="clip0_1_561">
<rect width="335" height="61" rx="16" fill="white"/>
</clipPath>
</defs>
</svg>
