<svg width="369" height="34" viewBox="0 0 369 34" fill="none" xmlns="http://www.w3.org/2000/svg">
<rect x="0.5" y="0.958008" width="368" height="32" rx="9.5" fill="#161C2D"/>
<rect x="0.5" y="0.958008" width="368" height="32" rx="9.5" stroke="#161C2D"/>
<path d="M172.326 22.57C171.579 22.57 170.865 22.458 170.184 22.234C169.503 22.0007 168.966 21.702 168.574 21.338L169.092 20.246C169.465 20.5727 169.941 20.8433 170.52 21.058C171.099 21.2727 171.701 21.38 172.326 21.38C172.895 21.38 173.357 21.3147 173.712 21.184C174.067 21.0533 174.328 20.876 174.496 20.652C174.664 20.4187 174.748 20.1573 174.748 19.868C174.748 19.532 174.636 19.2613 174.412 19.056C174.197 18.8507 173.913 18.6873 173.558 18.566C173.213 18.4353 172.83 18.3233 172.41 18.23C171.99 18.1367 171.565 18.0293 171.136 17.908C170.716 17.7773 170.329 17.614 169.974 17.418C169.629 17.222 169.349 16.9607 169.134 16.634C168.919 16.298 168.812 15.8687 168.812 15.346C168.812 14.842 168.943 14.38 169.204 13.96C169.475 13.5307 169.885 13.19 170.436 12.938C170.996 12.6767 171.705 12.546 172.564 12.546C173.133 12.546 173.698 12.6207 174.258 12.77C174.818 12.9193 175.303 13.134 175.714 13.414L175.252 14.534C174.832 14.254 174.389 14.0533 173.922 13.932C173.455 13.8013 173.003 13.736 172.564 13.736C172.013 13.736 171.561 13.806 171.206 13.946C170.851 14.086 170.59 14.2727 170.422 14.506C170.263 14.7393 170.184 15.0007 170.184 15.29C170.184 15.6353 170.291 15.9107 170.506 16.116C170.73 16.3213 171.015 16.4847 171.36 16.606C171.715 16.7273 172.102 16.8393 172.522 16.942C172.942 17.0353 173.362 17.1427 173.782 17.264C174.211 17.3853 174.599 17.544 174.944 17.74C175.299 17.936 175.583 18.1973 175.798 18.524C176.013 18.8507 176.12 19.2707 176.12 19.784C176.12 20.2787 175.985 20.7407 175.714 21.17C175.443 21.59 175.023 21.9307 174.454 22.192C173.894 22.444 173.185 22.57 172.326 22.57ZM182.247 22.458V20.89L182.177 20.596V17.922C182.177 17.3527 182.009 16.914 181.673 16.606C181.346 16.2887 180.851 16.13 180.189 16.13C179.75 16.13 179.321 16.2047 178.901 16.354C178.481 16.494 178.126 16.6853 177.837 16.928L177.277 15.92C177.659 15.612 178.117 15.3787 178.649 15.22C179.19 15.052 179.755 14.968 180.343 14.968C181.36 14.968 182.144 15.2153 182.695 15.71C183.245 16.2047 183.521 16.9607 183.521 17.978V22.458H182.247ZM179.811 22.542C179.26 22.542 178.775 22.4487 178.355 22.262C177.944 22.0753 177.627 21.8187 177.403 21.492C177.179 21.156 177.067 20.778 177.067 20.358C177.067 19.9567 177.16 19.5927 177.347 19.266C177.543 18.9393 177.855 18.678 178.285 18.482C178.723 18.286 179.311 18.188 180.049 18.188H182.401V19.154H180.105C179.433 19.154 178.98 19.266 178.747 19.49C178.513 19.714 178.397 19.9847 178.397 20.302C178.397 20.666 178.541 20.96 178.831 21.184C179.12 21.3987 179.521 21.506 180.035 21.506C180.539 21.506 180.977 21.394 181.351 21.17C181.733 20.946 182.009 20.6193 182.177 20.19L182.443 21.114C182.265 21.5527 181.953 21.9027 181.505 22.164C181.057 22.416 180.492 22.542 179.811 22.542ZM187.489 22.458L184.241 15.038H185.641L188.525 21.758H187.853L190.793 15.038H192.109L188.861 22.458H187.489ZM196.133 22.542C195.34 22.542 194.64 22.3787 194.033 22.052C193.436 21.7253 192.969 21.2773 192.633 20.708C192.307 20.1387 192.143 19.4853 192.143 18.748C192.143 18.0107 192.302 17.3573 192.619 16.788C192.946 16.2187 193.389 15.7753 193.949 15.458C194.519 15.1313 195.158 14.968 195.867 14.968C196.586 14.968 197.221 15.1267 197.771 15.444C198.322 15.7613 198.751 16.2093 199.059 16.788C199.377 17.3573 199.535 18.0247 199.535 18.79C199.535 18.846 199.531 18.9113 199.521 18.986C199.521 19.0607 199.517 19.1307 199.507 19.196H193.193V18.23H198.807L198.261 18.566C198.271 18.09 198.173 17.6653 197.967 17.292C197.762 16.9187 197.477 16.6293 197.113 16.424C196.759 16.2093 196.343 16.102 195.867 16.102C195.401 16.102 194.985 16.2093 194.621 16.424C194.257 16.6293 193.973 16.9233 193.767 17.306C193.562 17.6793 193.459 18.1087 193.459 18.594V18.818C193.459 19.3127 193.571 19.756 193.795 20.148C194.029 20.5307 194.351 20.8293 194.761 21.044C195.172 21.2587 195.643 21.366 196.175 21.366C196.614 21.366 197.011 21.2913 197.365 21.142C197.729 20.9927 198.047 20.7687 198.317 20.47L199.059 21.338C198.723 21.73 198.303 22.0287 197.799 22.234C197.305 22.4393 196.749 22.542 196.133 22.542Z" fill="white"/>
</svg>
