<svg width="278" height="44" viewBox="0 0 278 44" fill="none" xmlns="http://www.w3.org/2000/svg">
<rect x="0.5" y="1.27106" width="277" height="42" rx="9.5" stroke="#161C2D"/>
<path d="M33.912 27.8671C33.08 27.8671 32.28 27.7337 31.512 27.4671C30.7547 27.1897 30.168 26.8377 29.752 26.4111L30.216 25.4991C30.6107 25.8831 31.1387 26.2084 31.8 26.4751C32.472 26.7311 33.176 26.8591 33.912 26.8591C34.616 26.8591 35.1867 26.7737 35.624 26.6031C36.072 26.4217 36.3973 26.1817 36.6 25.8831C36.8133 25.5844 36.92 25.2537 36.92 24.8911C36.92 24.4537 36.792 24.1017 36.536 23.8351C36.2907 23.5684 35.9653 23.3604 35.56 23.2111C35.1547 23.0511 34.7067 22.9124 34.216 22.7951C33.7253 22.6777 33.2347 22.5551 32.744 22.4271C32.2533 22.2884 31.8 22.1071 31.384 21.8831C30.9787 21.6591 30.648 21.3657 30.392 21.0031C30.1467 20.6297 30.024 20.1444 30.024 19.5471C30.024 18.9924 30.168 18.4857 30.456 18.0271C30.7547 17.5577 31.208 17.1844 31.816 16.9071C32.424 16.6191 33.2027 16.4751 34.152 16.4751C34.7813 16.4751 35.4053 16.5657 36.024 16.7471C36.6427 16.9177 37.176 17.1577 37.624 17.4671L37.224 18.4111C36.744 18.0911 36.232 17.8564 35.688 17.7071C35.1547 17.5577 34.6373 17.4831 34.136 17.4831C33.464 17.4831 32.9093 17.5737 32.472 17.7551C32.0347 17.9364 31.7093 18.1817 31.496 18.4911C31.2933 18.7897 31.192 19.1311 31.192 19.5151C31.192 19.9524 31.3147 20.3044 31.56 20.5711C31.816 20.8377 32.1467 21.0457 32.552 21.1951C32.968 21.3444 33.4213 21.4777 33.912 21.5951C34.4027 21.7124 34.888 21.8404 35.368 21.9791C35.8587 22.1177 36.3067 22.2991 36.712 22.5231C37.128 22.7364 37.4587 23.0244 37.704 23.3871C37.96 23.7497 38.088 24.2244 38.088 24.8111C38.088 25.3551 37.9387 25.8617 37.64 26.3311C37.3413 26.7897 36.8827 27.1631 36.264 27.4511C35.656 27.7284 34.872 27.8671 33.912 27.8671ZM43.6672 27.8511C42.7926 27.8511 42.0246 27.6697 41.3632 27.3071C40.7019 26.9337 40.1846 26.4271 39.8112 25.7871C39.4379 25.1364 39.2512 24.3951 39.2512 23.5631C39.2512 22.7311 39.4272 21.9951 39.7792 21.3551C40.1419 20.7151 40.6326 20.2137 41.2512 19.8511C41.8806 19.4777 42.5846 19.2911 43.3632 19.2911C44.1526 19.2911 44.8512 19.4724 45.4592 19.8351C46.0779 20.1871 46.5632 20.6884 46.9152 21.3391C47.2672 21.9791 47.4432 22.7204 47.4432 23.5631C47.4432 23.6164 47.4379 23.6751 47.4272 23.7391C47.4272 23.7924 47.4272 23.8511 47.4272 23.9151H40.1152V23.0671H46.8192L46.3712 23.4031C46.3712 22.7951 46.2379 22.2564 45.9712 21.7871C45.7152 21.3071 45.3632 20.9337 44.9152 20.6671C44.4672 20.4004 43.9499 20.2671 43.3632 20.2671C42.7872 20.2671 42.2699 20.4004 41.8112 20.6671C41.3526 20.9337 40.9952 21.3071 40.7392 21.7871C40.4832 22.2671 40.3552 22.8164 40.3552 23.4351V23.6111C40.3552 24.2511 40.4939 24.8164 40.7712 25.3071C41.0592 25.7871 41.4539 26.1657 41.9552 26.4431C42.4672 26.7097 43.0486 26.8431 43.6992 26.8431C44.2112 26.8431 44.6859 26.7524 45.1232 26.5711C45.5712 26.3897 45.9552 26.1124 46.2752 25.7391L46.9152 26.4751C46.5419 26.9231 46.0726 27.2644 45.5072 27.4991C44.9526 27.7337 44.3392 27.8511 43.6672 27.8511ZM54.4566 27.7711V25.9151L54.4086 25.6111V22.5071C54.4086 21.7924 54.2059 21.2431 53.8006 20.8591C53.4059 20.4751 52.8139 20.2831 52.0246 20.2831C51.4806 20.2831 50.9632 20.3737 50.4726 20.5551C49.9819 20.7364 49.5659 20.9764 49.2246 21.2751L48.7126 20.4271C49.1392 20.0644 49.6512 19.7871 50.2486 19.5951C50.8459 19.3924 51.4752 19.2911 52.1366 19.2911C53.2246 19.2911 54.0619 19.5631 54.6486 20.1071C55.2459 20.6404 55.5446 21.4564 55.5446 22.5551V27.7711H54.4566ZM51.5606 27.8511C50.9312 27.8511 50.3819 27.7497 49.9126 27.5471C49.4539 27.3337 49.1019 27.0457 48.8566 26.6831C48.6112 26.3097 48.4886 25.8831 48.4886 25.4031C48.4886 24.9657 48.5899 24.5711 48.7926 24.2191C49.0059 23.8564 49.3472 23.5684 49.8166 23.3551C50.2966 23.1311 50.9366 23.0191 51.7366 23.0191H54.6326V23.8671H51.7686C50.9579 23.8671 50.3926 24.0111 50.0726 24.2991C49.7632 24.5871 49.6086 24.9444 49.6086 25.3711C49.6086 25.8511 49.7952 26.2351 50.1686 26.5231C50.5419 26.8111 51.0646 26.9551 51.7366 26.9551C52.3766 26.9551 52.9259 26.8111 53.3846 26.5231C53.8539 26.2244 54.1952 25.7977 54.4086 25.2431L54.6646 26.0271C54.4512 26.5817 54.0779 27.0244 53.5446 27.3551C53.0219 27.6857 52.3606 27.8511 51.5606 27.8511ZM58.3015 27.7711V19.3711H59.3895V21.6591L59.2775 21.2591C59.5122 20.6191 59.9069 20.1337 60.4615 19.8031C61.0162 19.4617 61.7042 19.2911 62.5255 19.2911V20.3951C62.4829 20.3951 62.4402 20.3951 62.3975 20.3951C62.3549 20.3844 62.3122 20.3791 62.2695 20.3791C61.3842 20.3791 60.6909 20.6511 60.1895 21.1951C59.6882 21.7284 59.4375 22.4911 59.4375 23.4831V27.7711H58.3015ZM67.6797 27.8511C66.8477 27.8511 66.1011 27.6697 65.4397 27.3071C64.7891 26.9337 64.2771 26.4271 63.9037 25.7871C63.5304 25.1364 63.3437 24.3951 63.3437 23.5631C63.3437 22.7204 63.5304 21.9791 63.9037 21.3391C64.2771 20.6991 64.7891 20.1977 65.4397 19.8351C66.1011 19.4724 66.8477 19.2911 67.6797 19.2911C68.3944 19.2911 69.0397 19.4297 69.6157 19.7071C70.1917 19.9844 70.6451 20.4004 70.9757 20.9551L70.1277 21.5311C69.8397 21.1044 69.4824 20.7897 69.0557 20.5871C68.6291 20.3844 68.1651 20.2831 67.6637 20.2831C67.0664 20.2831 66.5277 20.4217 66.0477 20.6991C65.5677 20.9657 65.1891 21.3444 64.9117 21.8351C64.6344 22.3257 64.4957 22.9017 64.4957 23.5631C64.4957 24.2244 64.6344 24.8004 64.9117 25.2911C65.1891 25.7817 65.5677 26.1657 66.0477 26.4431C66.5277 26.7097 67.0664 26.8431 67.6637 26.8431C68.1651 26.8431 68.6291 26.7417 69.0557 26.5391C69.4824 26.3364 69.8397 26.0271 70.1277 25.6111L70.9757 26.1871C70.6451 26.7311 70.1917 27.1471 69.6157 27.4351C69.0397 27.7124 68.3944 27.8511 67.6797 27.8511ZM77.0418 19.2911C77.7245 19.2911 78.3218 19.4244 78.8338 19.6911C79.3565 19.9471 79.7618 20.3417 80.0498 20.8751C80.3485 21.4084 80.4978 22.0804 80.4978 22.8911V27.7711H79.3618V23.0031C79.3618 22.1177 79.1378 21.4511 78.6898 21.0031C78.2525 20.5444 77.6338 20.3151 76.8338 20.3151C76.2365 20.3151 75.7138 20.4377 75.2658 20.6831C74.8285 20.9177 74.4872 21.2644 74.2418 21.7231C74.0072 22.1711 73.8898 22.7151 73.8898 23.3551V27.7711H72.7538V15.8991H73.8898V21.6751L73.6658 21.2431C73.9325 20.6351 74.3592 20.1604 74.9458 19.8191C75.5325 19.4671 76.2312 19.2911 77.0418 19.2911Z" fill="#202020"/>
<g clip-path="url(#clip0_387_6466)">
<path d="M238.167 13.9377C242.307 13.9377 245.667 17.2977 245.667 21.4377C245.667 25.5777 242.307 28.9377 238.167 28.9377C234.027 28.9377 230.667 25.5777 230.667 21.4377C230.667 17.2977 234.027 13.9377 238.167 13.9377ZM238.167 27.2711C241.389 27.2711 244 24.6602 244 21.4377C244 18.2144 241.389 15.6044 238.167 15.6044C234.943 15.6044 232.333 18.2144 232.333 21.4377C232.333 24.6602 234.943 27.2711 238.167 27.2711ZM245.238 27.3302L247.595 29.6869L246.416 30.8661L244.059 28.5086L245.238 27.3302Z" fill="#09121F"/>
</g>
<defs>
<clipPath id="clip0_387_6466">
<rect width="20" height="20" fill="white" transform="translate(229 12.2711)"/>
</clipPath>
</defs>
</svg>
