<svg width="181" height="31" viewBox="0 0 181 31" fill="none" xmlns="http://www.w3.org/2000/svg">
<rect y="0.541992" width="181" height="30" rx="5" fill="#161C2D"/>
<path d="M50.3609 19.12C49.8249 19.12 49.3289 19.016 48.8729 18.808C48.4249 18.6 48.0569 18.3 47.7689 17.908L48.6569 16.84C48.8889 17.16 49.1409 17.4 49.4129 17.56C49.6929 17.72 49.9969 17.8 50.3249 17.8C51.1969 17.8 51.6329 17.284 51.6329 16.252V11.908H48.6449V10.6H53.1929V16.168C53.1929 17.16 52.9489 17.9 52.4609 18.388C51.9809 18.876 51.2809 19.12 50.3609 19.12ZM57.8706 19.084C57.2146 19.084 56.6306 18.944 56.1186 18.664C55.6066 18.376 55.2026 17.984 54.9066 17.488C54.6106 16.992 54.4626 16.428 54.4626 15.796C54.4626 15.156 54.6106 14.592 54.9066 14.104C55.2026 13.608 55.6066 13.22 56.1186 12.94C56.6306 12.66 57.2146 12.52 57.8706 12.52C58.5346 12.52 59.1226 12.66 59.6346 12.94C60.1546 13.22 60.5586 13.604 60.8466 14.092C61.1426 14.58 61.2906 15.148 61.2906 15.796C61.2906 16.428 61.1426 16.992 60.8466 17.488C60.5586 17.984 60.1546 18.376 59.6346 18.664C59.1226 18.944 58.5346 19.084 57.8706 19.084ZM57.8706 17.8C58.2386 17.8 58.5666 17.72 58.8546 17.56C59.1426 17.4 59.3666 17.168 59.5266 16.864C59.6946 16.56 59.7786 16.204 59.7786 15.796C59.7786 15.38 59.6946 15.024 59.5266 14.728C59.3666 14.424 59.1426 14.192 58.8546 14.032C58.5666 13.872 58.2426 13.792 57.8826 13.792C57.5146 13.792 57.1866 13.872 56.8986 14.032C56.6186 14.192 56.3946 14.424 56.2266 14.728C56.0586 15.024 55.9746 15.38 55.9746 15.796C55.9746 16.204 56.0586 16.56 56.2266 16.864C56.3946 17.168 56.6186 17.4 56.8986 17.56C57.1866 17.72 57.5106 17.8 57.8706 17.8ZM62.4786 19V12.592H63.9786V19H62.4786ZM63.2346 11.536C62.9546 11.536 62.7226 11.448 62.5386 11.272C62.3626 11.096 62.2746 10.884 62.2746 10.636C62.2746 10.38 62.3626 10.168 62.5386 10C62.7226 9.824 62.9546 9.736 63.2346 9.736C63.5146 9.736 63.7426 9.82 63.9186 9.988C64.1026 10.148 64.1946 10.352 64.1946 10.6C64.1946 10.864 64.1066 11.088 63.9306 11.272C63.7546 11.448 63.5226 11.536 63.2346 11.536ZM69.3369 12.52C69.8489 12.52 70.3049 12.62 70.7049 12.82C71.1129 13.02 71.4329 13.328 71.665 13.744C71.897 14.152 72.0129 14.68 72.0129 15.328V19H70.5129V15.52C70.5129 14.952 70.3769 14.528 70.1049 14.248C69.8409 13.968 69.4689 13.828 68.9889 13.828C68.6369 13.828 68.3249 13.9 68.0529 14.044C67.7809 14.188 67.5689 14.404 67.4169 14.692C67.2729 14.972 67.2009 15.328 67.2009 15.76V19H65.7009V12.592H67.1289V14.32L66.8769 13.792C67.1009 13.384 67.4249 13.072 67.8489 12.856C68.2809 12.632 68.7769 12.52 69.3369 12.52ZM80.3754 12.52C80.8874 12.52 81.3434 12.62 81.7434 12.82C82.1514 13.02 82.4714 13.328 82.7034 13.744C82.9354 14.152 83.0514 14.68 83.0514 15.328V19H81.5514V15.52C81.5514 14.952 81.4154 14.528 81.1434 14.248C80.8794 13.968 80.5074 13.828 80.0274 13.828C79.6754 13.828 79.3634 13.9 79.0914 14.044C78.8194 14.188 78.6074 14.404 78.4554 14.692C78.3114 14.972 78.2394 15.328 78.2394 15.76V19H76.7394V12.592H78.1674V14.32L77.9154 13.792C78.1394 13.384 78.4634 13.072 78.8874 12.856C79.3194 12.632 79.8154 12.52 80.3754 12.52ZM87.5996 19.084C86.9436 19.084 86.3596 18.944 85.8476 18.664C85.3356 18.376 84.9316 17.984 84.6356 17.488C84.3396 16.992 84.1916 16.428 84.1916 15.796C84.1916 15.156 84.3396 14.592 84.6356 14.104C84.9316 13.608 85.3356 13.22 85.8476 12.94C86.3596 12.66 86.9436 12.52 87.5996 12.52C88.2636 12.52 88.8516 12.66 89.3636 12.94C89.8836 13.22 90.2876 13.604 90.5756 14.092C90.8716 14.58 91.0196 15.148 91.0196 15.796C91.0196 16.428 90.8716 16.992 90.5756 17.488C90.2876 17.984 89.8836 18.376 89.3636 18.664C88.8516 18.944 88.2636 19.084 87.5996 19.084ZM87.5996 17.8C87.9676 17.8 88.2956 17.72 88.5836 17.56C88.8716 17.4 89.0956 17.168 89.2556 16.864C89.4236 16.56 89.5076 16.204 89.5076 15.796C89.5076 15.38 89.4236 15.024 89.2556 14.728C89.0956 14.424 88.8716 14.192 88.5836 14.032C88.2956 13.872 87.9716 13.792 87.6116 13.792C87.2436 13.792 86.9156 13.872 86.6276 14.032C86.3476 14.192 86.1236 14.424 85.9556 14.728C85.7876 15.024 85.7036 15.38 85.7036 15.796C85.7036 16.204 85.7876 16.56 85.9556 16.864C86.1236 17.168 86.3476 17.4 86.6276 17.56C86.9156 17.72 87.2396 17.8 87.5996 17.8ZM93.4478 19L91.0958 12.592H92.5118L94.5278 18.244H93.8558L95.9678 12.592H97.2278L99.2798 18.244H98.6198L100.696 12.592H102.028L99.6638 19H98.2238L96.3518 13.996H96.7958L94.8878 19H93.4478Z" fill="white"/>
<g clip-path="url(#clip0_387_8908)">
<path d="M124.75 8.875V10.125H121.625V18.875H130.375V15.75H131.625V19.5C131.625 19.6658 131.559 19.8247 131.442 19.9419C131.325 20.0592 131.166 20.125 131 20.125H121C120.834 20.125 120.675 20.0592 120.558 19.9419C120.441 19.8247 120.375 19.6658 120.375 19.5V9.5C120.375 9.33424 120.441 9.17527 120.558 9.05806C120.675 8.94085 120.834 8.875 121 8.875H124.75ZM129.491 10.125H126.625V8.875H131.625V13.875H130.375V11.0087L126 15.3837L125.116 14.5L129.491 10.125Z" fill="white"/>
</g>
<defs>
<clipPath id="clip0_387_8908">
<rect width="15" height="15" fill="white" transform="translate(118.5 7)"/>
</clipPath>
</defs>
</svg>
