<svg width="110" height="104" viewBox="0 0 110 104" fill="none" xmlns="http://www.w3.org/2000/svg">
<rect width="110" height="92" rx="20" fill="#161C2D"/>
<g clip-path="url(#clip0_127_3624)">
<path d="M56.4839 53.3717L49.4855 49.555C48.5719 50.5318 47.3855 51.2112 46.0807 51.5048C44.7758 51.7985 43.4128 51.6929 42.1687 51.2017C40.9247 50.7106 39.8571 49.8566 39.1048 48.7508C38.3525 47.6449 37.9502 46.3383 37.9502 45.0008C37.9502 43.6634 38.3525 42.3568 39.1048 41.2509C39.8571 40.1451 40.9247 39.2911 42.1687 38.7999C43.4128 38.3088 44.7758 38.2032 46.0807 38.4969C47.3855 38.7905 48.5719 39.4699 49.4855 40.4467L56.4855 36.63C56.0881 35.0568 56.2781 33.3927 57.0199 31.9495C57.7617 30.5064 59.0044 29.3833 60.515 28.7908C62.0256 28.1984 63.7004 28.1772 65.2255 28.7312C66.7506 29.2853 68.0213 30.3765 68.7994 31.8004C69.5775 33.2244 69.8095 34.8832 69.452 36.4659C69.0946 38.0487 68.1721 39.4467 66.8576 40.398C65.5431 41.3493 63.9267 41.7885 62.3115 41.6333C60.6964 41.4781 59.1932 40.7392 58.0839 39.555L51.0839 43.3717C51.3525 44.4406 51.3525 45.5594 51.0839 46.6283L58.0822 50.445C59.1915 49.2608 60.6947 48.5219 62.3099 48.3667C63.9251 48.2115 65.5414 48.6507 66.8559 49.602C68.1705 50.5533 69.0929 51.9513 69.4504 53.5341C69.8078 55.1169 69.5758 56.7757 68.7977 58.1996C68.0196 59.6235 66.7489 60.7147 65.2238 61.2688C63.6987 61.8228 62.0239 61.8016 60.5133 61.2092C59.0027 60.6167 57.7601 59.4937 57.0183 58.0505C56.2765 56.6074 56.0865 54.9432 56.4839 53.37V53.3717ZM44.6172 48.3333C45.5013 48.3333 46.3491 47.9822 46.9742 47.357C47.5993 46.7319 47.9505 45.8841 47.9505 45C47.9505 44.116 47.5993 43.2681 46.9742 42.643C46.3491 42.0179 45.5013 41.6667 44.6172 41.6667C43.7331 41.6667 42.8853 42.0179 42.2602 42.643C41.6351 43.2681 41.2839 44.116 41.2839 45C41.2839 45.8841 41.6351 46.7319 42.2602 47.357C42.8853 47.9822 43.7331 48.3333 44.6172 48.3333ZM62.9505 38.3333C63.8346 38.3333 64.6824 37.9822 65.3076 37.357C65.9327 36.7319 66.2839 35.8841 66.2839 35C66.2839 34.116 65.9327 33.2681 65.3076 32.643C64.6824 32.0179 63.8346 31.6667 62.9505 31.6667C62.0665 31.6667 61.2186 32.0179 60.5935 32.643C59.9684 33.2681 59.6172 34.116 59.6172 35C59.6172 35.8841 59.9684 36.7319 60.5935 37.357C61.2186 37.9822 62.0665 38.3333 62.9505 38.3333ZM62.9505 58.3333C63.8346 58.3333 64.6824 57.9822 65.3076 57.357C65.9327 56.7319 66.2839 55.8841 66.2839 55C66.2839 54.116 65.9327 53.2681 65.3076 52.643C64.6824 52.0179 63.8346 51.6667 62.9505 51.6667C62.0665 51.6667 61.2186 52.0179 60.5935 52.643C59.9684 53.2681 59.6172 54.116 59.6172 55C59.6172 55.8841 59.9684 56.7319 60.5935 57.357C61.2186 57.9822 62.0665 58.3333 62.9505 58.3333Z" fill="white"/>
</g>
<path d="M30.368 78V69.6H33.512C34.224 69.6 34.836 69.716 35.348 69.948C35.86 70.172 36.252 70.5 36.524 70.932C36.804 71.356 36.944 71.872 36.944 72.48C36.944 73.072 36.804 73.584 36.524 74.016C36.252 74.44 35.86 74.768 35.348 75C34.836 75.224 34.224 75.336 33.512 75.336H30.86L31.256 74.928V78H30.368ZM36.104 78L33.944 74.952H34.904L37.076 78H36.104ZM31.256 75L30.86 74.58H33.488C34.328 74.58 34.964 74.396 35.396 74.028C35.836 73.66 36.056 73.144 36.056 72.48C36.056 71.808 35.836 71.288 35.396 70.92C34.964 70.552 34.328 70.368 33.488 70.368H30.86L31.256 69.948V75ZM41.2895 78.06C40.6335 78.06 40.0575 77.924 39.5615 77.652C39.0655 77.372 38.6775 76.992 38.3975 76.512C38.1175 76.024 37.9775 75.468 37.9775 74.844C37.9775 74.22 38.1095 73.668 38.3735 73.188C38.6455 72.708 39.0135 72.332 39.4775 72.06C39.9495 71.78 40.4775 71.64 41.0615 71.64C41.6535 71.64 42.1775 71.776 42.6335 72.048C43.0975 72.312 43.4615 72.688 43.7255 73.176C43.9895 73.656 44.1215 74.212 44.1215 74.844C44.1215 74.884 44.1175 74.928 44.1095 74.976C44.1095 75.016 44.1095 75.06 44.1095 75.108H38.6255V74.472H43.6535L43.3175 74.724C43.3175 74.268 43.2175 73.864 43.0175 73.512C42.8255 73.152 42.5615 72.872 42.2255 72.672C41.8895 72.472 41.5015 72.372 41.0615 72.372C40.6295 72.372 40.2415 72.472 39.8975 72.672C39.5535 72.872 39.2855 73.152 39.0935 73.512C38.9015 73.872 38.8055 74.284 38.8055 74.748V74.88C38.8055 75.36 38.9095 75.784 39.1175 76.152C39.3335 76.512 39.6295 76.796 40.0055 77.004C40.3895 77.204 40.8255 77.304 41.3135 77.304C41.6975 77.304 42.0535 77.236 42.3815 77.1C42.7175 76.964 43.0055 76.756 43.2455 76.476L43.7255 77.028C43.4455 77.364 43.0935 77.62 42.6695 77.796C42.2535 77.972 41.7935 78.06 41.2895 78.06ZM45.7533 78V70.908C45.7533 70.348 45.9173 69.896 46.2453 69.552C46.5733 69.208 47.0453 69.036 47.6613 69.036C47.9013 69.036 48.1333 69.068 48.3573 69.132C48.5813 69.196 48.7693 69.296 48.9213 69.432L48.6333 70.068C48.5133 69.964 48.3733 69.888 48.2133 69.84C48.0533 69.784 47.8813 69.756 47.6973 69.756C47.3373 69.756 47.0613 69.856 46.8693 70.056C46.6773 70.256 46.5813 70.552 46.5813 70.944V71.904L46.6053 72.3V78H45.7533ZM44.6253 72.408V71.7H48.5253V72.408H44.6253ZM51.9998 78.06C51.3438 78.06 50.7678 77.924 50.2718 77.652C49.7758 77.372 49.3878 76.992 49.1078 76.512C48.8278 76.024 48.6878 75.468 48.6878 74.844C48.6878 74.22 48.8198 73.668 49.0838 73.188C49.3558 72.708 49.7238 72.332 50.1878 72.06C50.6598 71.78 51.1878 71.64 51.7718 71.64C52.3638 71.64 52.8878 71.776 53.3438 72.048C53.8078 72.312 54.1718 72.688 54.4358 73.176C54.6998 73.656 54.8318 74.212 54.8318 74.844C54.8318 74.884 54.8278 74.928 54.8198 74.976C54.8198 75.016 54.8198 75.06 54.8198 75.108H49.3358V74.472H54.3638L54.0278 74.724C54.0278 74.268 53.9278 73.864 53.7278 73.512C53.5358 73.152 53.2718 72.872 52.9358 72.672C52.5998 72.472 52.2118 72.372 51.7718 72.372C51.3398 72.372 50.9518 72.472 50.6078 72.672C50.2638 72.872 49.9958 73.152 49.8038 73.512C49.6118 73.872 49.5158 74.284 49.5158 74.748V74.88C49.5158 75.36 49.6198 75.784 49.8278 76.152C50.0438 76.512 50.3398 76.796 50.7158 77.004C51.0998 77.204 51.5358 77.304 52.0238 77.304C52.4078 77.304 52.7638 77.236 53.0918 77.1C53.4278 76.964 53.7158 76.756 53.9558 76.476L54.4358 77.028C54.1558 77.364 53.8038 77.62 53.3798 77.796C52.9638 77.972 52.5038 78.06 51.9998 78.06ZM56.3196 78V71.7H57.1356V73.416L57.0516 73.116C57.2276 72.636 57.5236 72.272 57.9396 72.024C58.3556 71.768 58.8716 71.64 59.4876 71.64V72.468C59.4556 72.468 59.4236 72.468 59.3916 72.468C59.3596 72.46 59.3276 72.456 59.2956 72.456C58.6316 72.456 58.1116 72.66 57.7356 73.068C57.3596 73.468 57.1716 74.04 57.1716 74.784V78H56.3196ZM60.7958 78V71.7H61.6118V73.416L61.5278 73.116C61.7038 72.636 61.9998 72.272 62.4158 72.024C62.8318 71.768 63.3478 71.64 63.9638 71.64V72.468C63.9318 72.468 63.8998 72.468 63.8678 72.468C63.8358 72.46 63.8038 72.456 63.7718 72.456C63.1078 72.456 62.5878 72.66 62.2118 73.068C61.8358 73.468 61.6478 74.04 61.6478 74.784V78H60.7958ZM68.7513 78V76.608L68.7153 76.38V74.052C68.7153 73.516 68.5633 73.104 68.2593 72.816C67.9633 72.528 67.5193 72.384 66.9273 72.384C66.5193 72.384 66.1313 72.452 65.7633 72.588C65.3953 72.724 65.0833 72.904 64.8273 73.128L64.4433 72.492C64.7633 72.22 65.1473 72.012 65.5953 71.868C66.0433 71.716 66.5153 71.64 67.0113 71.64C67.8273 71.64 68.4553 71.844 68.8953 72.252C69.3433 72.652 69.5673 73.264 69.5673 74.088V78H68.7513ZM66.5793 78.06C66.1073 78.06 65.6953 77.984 65.3433 77.832C64.9993 77.672 64.7353 77.456 64.5513 77.184C64.3673 76.904 64.2753 76.584 64.2753 76.224C64.2753 75.896 64.3513 75.6 64.5033 75.336C64.6633 75.064 64.9193 74.848 65.2713 74.688C65.6313 74.52 66.1113 74.436 66.7113 74.436H68.8833V75.072H66.7353C66.1273 75.072 65.7033 75.18 65.4633 75.396C65.2313 75.612 65.1153 75.88 65.1153 76.2C65.1153 76.56 65.2553 76.848 65.5353 77.064C65.8153 77.28 66.2073 77.388 66.7113 77.388C67.1913 77.388 67.6033 77.28 67.9473 77.064C68.2993 76.84 68.5553 76.52 68.7153 76.104L68.9073 76.692C68.7473 77.108 68.4673 77.44 68.0673 77.688C67.6753 77.936 67.1793 78.06 66.5793 78.06ZM71.6351 78V69.096H72.4871V78H71.6351ZM76.3033 78.06C75.7833 78.06 75.2913 77.988 74.8273 77.844C74.3633 77.692 73.9993 77.504 73.7353 77.28L74.1193 76.608C74.3753 76.8 74.7033 76.968 75.1033 77.112C75.5033 77.248 75.9233 77.316 76.3633 77.316C76.9633 77.316 77.3953 77.224 77.6593 77.04C77.9233 76.848 78.0553 76.596 78.0553 76.284C78.0553 76.052 77.9793 75.872 77.8273 75.744C77.6833 75.608 77.4913 75.508 77.2513 75.444C77.0113 75.372 76.7433 75.312 76.4473 75.264C76.1513 75.216 75.8553 75.16 75.5593 75.096C75.2713 75.032 75.0073 74.94 74.7673 74.82C74.5273 74.692 74.3313 74.52 74.1793 74.304C74.0353 74.088 73.9633 73.8 73.9633 73.44C73.9633 73.096 74.0593 72.788 74.2513 72.516C74.4433 72.244 74.7233 72.032 75.0913 71.88C75.4673 71.72 75.9233 71.64 76.4593 71.64C76.8673 71.64 77.2753 71.696 77.6833 71.808C78.0913 71.912 78.4273 72.052 78.6913 72.228L78.3193 72.912C78.0393 72.72 77.7393 72.584 77.4193 72.504C77.0993 72.416 76.7793 72.372 76.4593 72.372C75.8913 72.372 75.4713 72.472 75.1993 72.672C74.9353 72.864 74.8033 73.112 74.8033 73.416C74.8033 73.656 74.8753 73.844 75.0193 73.98C75.1713 74.116 75.3673 74.224 75.6073 74.304C75.8553 74.376 76.1233 74.436 76.4113 74.484C76.7073 74.532 76.9993 74.592 77.2873 74.664C77.5833 74.728 77.8513 74.82 78.0913 74.94C78.3393 75.052 78.5353 75.216 78.6793 75.432C78.8313 75.64 78.9073 75.916 78.9073 76.26C78.9073 76.628 78.8033 76.948 78.5953 77.22C78.3953 77.484 78.0993 77.692 77.7073 77.844C77.3233 77.988 76.8553 78.06 76.3033 78.06Z" fill="white"/>
<defs>
<clipPath id="clip0_127_3624">
<rect width="40" height="40" fill="white" transform="translate(34.6172 25)"/>
</clipPath>
</defs>
</svg>
