<svg width="128" height="30" viewBox="0 0 128 30" fill="none" xmlns="http://www.w3.org/2000/svg">
<rect width="128" height="29.908" rx="5.9816" fill="#161C2D"/>
<path d="M51.5929 20.5977C50.8081 20.5977 50.0568 20.4876 49.339 20.2675C48.6213 20.0378 48.0518 19.7459 47.6307 19.3918L48.2767 17.9418C48.6787 18.2577 49.1763 18.5209 49.7697 18.7314C50.3631 18.942 50.9708 19.0472 51.5929 19.0472C52.1193 19.0472 52.5452 18.9898 52.8706 18.875C53.196 18.7601 53.4352 18.607 53.5884 18.4156C53.7415 18.2146 53.8181 17.9897 53.8181 17.7409C53.8181 17.4346 53.708 17.1905 53.4879 17.0087C53.2678 16.8173 52.9806 16.6689 52.6265 16.5637C52.282 16.4488 51.8944 16.3435 51.4637 16.2478C51.0426 16.1521 50.6167 16.0421 50.186 15.9177C49.7649 15.7837 49.3773 15.6162 49.0232 15.4152C48.6787 15.2047 48.3963 14.9271 48.1762 14.5826C47.9561 14.238 47.846 13.7978 47.846 13.2618C47.846 12.7163 47.9896 12.2186 48.2767 11.7688C48.5734 11.3094 49.0184 10.9458 49.6118 10.6778C50.2147 10.4002 50.9756 10.2615 51.8944 10.2615C52.4973 10.2615 53.0955 10.338 53.6889 10.4912C54.2822 10.6443 54.799 10.8644 55.2393 11.1515L54.6507 12.6015C54.2009 12.3335 53.7367 12.1373 53.2582 12.0129C52.7797 11.8789 52.3203 11.8119 51.88 11.8119C51.3632 11.8119 50.9421 11.8741 50.6167 11.9985C50.3009 12.1229 50.0664 12.2856 49.9133 12.4866C49.7697 12.6876 49.6979 12.9173 49.6979 13.1757C49.6979 13.482 49.8032 13.7308 50.0138 13.9222C50.2339 14.104 50.5162 14.2476 50.8608 14.3529C51.2149 14.4582 51.6073 14.5634 52.0379 14.6687C52.4686 14.7644 52.8945 14.8745 53.3156 14.9989C53.7463 15.1233 54.1339 15.286 54.4784 15.487C54.8325 15.688 55.1149 15.9607 55.3254 16.3053C55.5455 16.6498 55.6556 17.0853 55.6556 17.6116C55.6556 18.1476 55.5073 18.6453 55.2106 19.1047C54.9235 19.5545 54.4784 19.9182 53.8755 20.1957C53.2725 20.4637 52.5117 20.5977 51.5929 20.5977ZM61.7622 20.4541V18.9037L61.6617 18.5735V15.8602C61.6617 15.3339 61.5038 14.9271 61.188 14.64C60.8721 14.3433 60.3936 14.195 59.7524 14.195C59.3217 14.195 58.8958 14.262 58.4747 14.3959C58.0632 14.5299 57.7138 14.7166 57.4267 14.9558L56.7233 13.6494C57.1348 13.3336 57.6229 13.0991 58.1876 12.946C58.7618 12.7833 59.3552 12.702 59.9677 12.702C61.0779 12.702 61.9345 12.9699 62.5374 13.5059C63.1499 14.0323 63.4562 14.8505 63.4562 15.9607V20.4541H61.7622ZM59.3504 20.5546C58.7762 20.5546 58.2737 20.4589 57.843 20.2675C57.4124 20.0665 57.0774 19.7937 56.8381 19.4492C56.6084 19.0951 56.4936 18.6979 56.4936 18.2577C56.4936 17.827 56.5941 17.4394 56.7951 17.0948C57.0056 16.7503 57.3454 16.4775 57.8143 16.2766C58.2833 16.0756 58.9054 15.9751 59.6806 15.9751H61.9057V17.1666H59.8098C59.1973 17.1666 58.7857 17.2671 58.5752 17.4681C58.3646 17.6595 58.2594 17.8988 58.2594 18.1859C58.2594 18.5113 58.3886 18.7697 58.647 18.9611C58.9054 19.1525 59.2643 19.2482 59.7237 19.2482C60.1639 19.2482 60.5563 19.1477 60.9008 18.9467C61.2549 18.7458 61.5086 18.4491 61.6617 18.0567L61.9632 19.1334C61.7909 19.5832 61.4799 19.9325 61.03 20.1813C60.5898 20.4302 60.0299 20.5546 59.3504 20.5546ZM67.3627 20.4541L64.0752 12.7881H65.9415L68.7696 19.5497H67.8508L70.7794 12.7881H72.5021L69.2146 20.4541H67.3627ZM76.7219 20.5546C75.8701 20.5546 75.1236 20.3871 74.4824 20.0521C73.8507 19.7076 73.3579 19.2386 73.0038 18.6453C72.6592 18.0519 72.4869 17.3772 72.4869 16.6211C72.4869 15.8555 72.6544 15.1807 72.9894 14.5969C73.3339 14.0035 73.8029 13.5394 74.3963 13.2044C74.9992 12.8694 75.6835 12.702 76.4491 12.702C77.1957 12.702 77.8608 12.8647 78.4446 13.1901C79.0284 13.5155 79.4878 13.9748 79.8228 14.5682C80.1577 15.1616 80.3252 15.8602 80.3252 16.6642C80.3252 16.7407 80.3204 16.8269 80.3109 16.9226C80.3109 17.0183 80.3061 17.1092 80.2965 17.1953H73.9082V16.0038H79.349L78.6456 16.377C78.6552 15.9368 78.5642 15.5492 78.3728 15.2142C78.1814 14.8793 77.9182 14.6161 77.5833 14.4247C77.2579 14.2332 76.8798 14.1375 76.4491 14.1375C76.0089 14.1375 75.6213 14.2332 75.2863 14.4247C74.9609 14.6161 74.7025 14.884 74.5111 15.2286C74.3293 15.5635 74.2384 15.9607 74.2384 16.4201V16.7072C74.2384 17.1666 74.3436 17.5734 74.5542 17.9275C74.7647 18.2816 75.0614 18.5543 75.4442 18.7458C75.8271 18.9372 76.2673 19.0329 76.765 19.0329C77.1957 19.0329 77.5833 18.9659 77.9278 18.8319C78.2723 18.6979 78.5786 18.4874 78.8466 18.2002L79.8084 19.3056C79.4639 19.7076 79.0284 20.0186 78.502 20.2388C77.9852 20.4493 77.3918 20.5546 76.7219 20.5546Z" fill="white"/>
</svg>

